<svg width="101" height="837" viewBox="0 0 101 837" fill="none" xmlns="http://www.w3.org/2000/svg">
<path fill-rule="evenodd" clip-rule="evenodd" d="M99.3494 253.713C99.4837 248.645 99.5263 243.588 99.4846 238.55C99.4824 238.274 99.7043 238.048 99.9805 238.046C100.257 238.043 100.482 238.265 100.485 238.542C100.526 243.591 100.484 248.659 100.349 253.739C100.342 254.016 100.112 254.233 99.836 254.226C99.5599 254.219 99.3421 253.989 99.3494 253.713ZM99.629 223.867C99.3531 223.879 99.1203 223.664 99.109 223.388C98.901 218.311 98.6133 213.26 98.2533 208.244C98.2335 207.969 98.4408 207.73 98.7162 207.71C98.9916 207.69 99.2309 207.897 99.2507 208.173C99.6114 213.198 99.8998 218.259 100.108 223.347C100.119 223.623 99.9049 223.856 99.629 223.867ZM99.2013 268.383C99.4769 268.401 99.6861 268.638 99.6686 268.914C99.3476 273.959 98.9297 279.008 98.4077 284.055C98.3793 284.329 98.1336 284.529 97.8589 284.501C97.5842 284.472 97.3846 284.227 97.413 283.952C97.9336 278.919 98.3505 273.883 98.6706 268.85C98.6881 268.575 98.9258 268.366 99.2013 268.383ZM97.4939 193.579C97.2192 193.607 96.974 193.407 96.9462 193.132C96.4342 188.061 95.8541 183.035 95.214 178.062C95.1787 177.788 95.3722 177.538 95.646 177.502C95.9199 177.467 96.1705 177.661 96.2058 177.935C96.847 182.916 97.4282 187.951 97.9412 193.032C97.9689 193.306 97.7687 193.552 97.4939 193.579ZM96.1068 298.567C96.38 298.607 96.5691 298.861 96.5291 299.135C95.7966 304.142 94.9543 309.139 93.9952 314.12C93.9429 314.391 93.6808 314.568 93.4096 314.516C93.1385 314.464 92.961 314.202 93.0132 313.931C93.9694 308.965 94.8092 303.983 95.5396 298.99C95.5796 298.717 95.8335 298.527 96.1068 298.567ZM93.6511 163.461C93.3782 163.504 93.1227 163.317 93.0803 163.044C92.2952 157.987 91.4541 152.997 90.5663 148.084C90.5172 147.812 90.6977 147.552 90.9694 147.503C91.2412 147.454 91.5013 147.635 91.5504 147.906C92.4396 152.827 93.2821 157.825 94.0685 162.891C94.1108 163.163 93.9239 163.419 93.6511 163.461ZM90.4004 328.368C90.6687 328.433 90.8335 328.704 90.7683 328.972C89.5746 333.89 88.2583 338.785 86.8126 343.648C86.7339 343.913 86.4556 344.064 86.1909 343.985C85.9262 343.906 85.7754 343.628 85.8541 343.363C87.2948 338.516 88.6067 333.638 89.7965 328.736C89.8617 328.468 90.132 328.303 90.4004 328.368ZM88.281 133.578C88.0105 133.633 87.7462 133.459 87.6907 133.188C86.6553 128.145 85.5779 123.199 84.4695 118.362C84.4078 118.093 84.576 117.825 84.8452 117.763C85.1144 117.701 85.3826 117.869 85.4443 118.139C86.5542 122.982 87.6333 127.936 88.6703 132.987C88.7258 133.258 88.5515 133.522 88.281 133.578ZM81.7919 357.461C82.052 357.554 82.1876 357.84 82.0949 358.1C80.3954 362.865 78.5615 367.592 76.5865 372.276C76.4792 372.53 76.186 372.65 75.9315 372.542C75.6771 372.435 75.5578 372.142 75.6651 371.887C77.6326 367.222 79.4597 362.512 81.153 357.764C81.2458 357.504 81.5318 357.369 81.7919 357.461ZM81.5242 103.974C81.2564 104.042 80.9846 103.88 80.917 103.612C79.6451 98.5746 78.35 93.6828 77.0464 88.9515C76.9731 88.6853 77.1294 88.41 77.3956 88.3367C77.6619 88.2633 77.9371 88.4197 78.0105 88.6859C79.3159 93.4238 80.6128 98.3226 81.8866 103.367C81.9542 103.635 81.7919 103.907 81.5242 103.974ZM73.4954 74.7462C73.2308 74.8252 72.9523 74.6747 72.8733 74.4101C71.3559 69.3265 69.8482 64.4815 68.373 59.8987C68.2884 59.6359 68.4329 59.3542 68.6957 59.2696C68.9586 59.185 69.2403 59.3295 69.3249 59.5923C70.8021 64.1816 72.3121 69.0334 73.8315 74.1241C73.9105 74.3887 73.76 74.6673 73.4954 74.7462ZM70.0466 385.432C70.2943 385.554 70.3961 385.853 70.274 386.101C68.0439 390.626 65.6701 395.101 63.1464 399.52C63.0094 399.76 62.704 399.843 62.4642 399.706C62.2244 399.569 62.1411 399.264 62.278 399.024C64.7915 394.623 67.1557 390.166 69.377 385.659C69.4991 385.411 69.7989 385.31 70.0466 385.432ZM64.1925 45.786C63.9316 45.8764 63.6468 45.7381 63.5564 45.4772C61.7205 40.1765 59.9892 35.3923 58.4177 31.1811C58.3212 30.9224 58.4526 30.6344 58.7113 30.5378C58.97 30.4413 59.258 30.5728 59.3546 30.8315C60.9287 35.0497 62.6627 39.8414 64.5013 45.1499C64.5917 45.4108 64.4534 45.6956 64.1925 45.786ZM55.0611 411.78C55.2919 411.932 55.356 412.242 55.2043 412.472C53.8108 414.593 52.3792 416.698 50.9089 418.788C49.4448 420.868 48.0192 422.965 46.6314 425.077C46.4797 425.308 46.1697 425.372 45.939 425.22C45.7082 425.068 45.644 424.758 45.7957 424.528C47.1893 422.407 48.6208 420.302 50.0911 418.212C51.5553 416.132 52.9809 414.035 54.3686 411.923C54.5203 411.692 54.8303 411.628 55.0611 411.78ZM53.5959 17.3826C53.3401 17.4866 53.0484 17.3636 52.9443 17.1079C52.0291 14.8582 51.3033 13.1309 50.8066 11.9666C50.5582 11.3845 50.3671 10.9431 50.2383 10.6475C50.1738 10.4997 50.1249 10.3884 50.0922 10.3141L50.0554 10.2307L50.0434 10.2037C49.9311 9.95137 50.0444 9.65549 50.2967 9.54321C50.549 9.43092 50.8445 9.5444 50.9568 9.79668L50.5 10C50.9568 9.79668 50.9568 9.79665 50.9568 9.79668L50.9697 9.82575L51.0073 9.91095C51.0406 9.98636 51.09 10.0989 51.1549 10.2478C51.2848 10.5458 51.477 10.9896 51.7264 11.5742C52.2252 12.7434 52.9531 14.4759 53.8706 16.731C53.9747 16.9868 53.8517 17.2785 53.5959 17.3826ZM50.7033 827.457C50.451 827.569 50.1555 827.456 50.0432 827.203L50.0423 827.201L50.0399 827.196L50.0303 827.174L49.9927 827.089C49.9594 827.014 49.91 826.901 49.8451 826.752C49.7152 826.454 49.523 826.01 49.2736 825.426C48.7748 824.257 48.0468 822.524 47.1293 820.269C47.0253 820.013 47.1483 819.721 47.4041 819.617C47.6598 819.513 47.9516 819.636 48.0556 819.892C48.9709 822.142 49.6967 823.869 50.1934 825.033C50.4418 825.616 50.6329 826.057 50.7617 826.352C50.8262 826.5 50.8751 826.612 50.9078 826.686L50.9446 826.769L50.9538 826.79L50.9561 826.795L50.9568 826.797C51.0691 827.049 50.9556 827.345 50.7033 827.457ZM42.2886 806.462C42.0299 806.559 41.7419 806.427 41.6454 806.168C40.0712 801.95 38.3373 797.159 36.4986 791.85C36.4083 791.589 36.5465 791.304 36.8075 791.214C37.0684 791.124 37.3532 791.262 37.4436 791.523C39.2795 796.823 41.0107 801.608 42.5823 805.819C42.6788 806.078 42.5473 806.365 42.2886 806.462ZM38.5358 437.294C38.7756 437.431 38.859 437.736 38.722 437.976C36.2086 442.377 33.8443 446.834 31.623 451.341C31.5009 451.589 31.2011 451.69 30.9534 451.568C30.7058 451.446 30.6039 451.146 30.726 450.899C32.9562 446.374 35.3299 441.899 37.8537 437.48C37.9906 437.24 38.296 437.157 38.5358 437.294ZM32.3042 777.73C32.0414 777.815 31.7597 777.67 31.6751 777.408C30.1978 772.818 28.6879 767.967 27.1684 762.876C27.0895 762.611 27.2399 762.333 27.5045 762.254C27.7691 762.175 28.0477 762.325 28.1267 762.59C29.644 767.673 31.1518 772.518 32.627 777.101C32.7116 777.364 32.5671 777.646 32.3042 777.73ZM25.0685 464.458C25.323 464.565 25.4422 464.858 25.3349 465.113C23.3674 469.778 21.5403 474.488 19.847 479.236C19.7543 479.496 19.4682 479.631 19.2081 479.538C18.948 479.446 18.8124 479.16 18.9052 478.9C20.6046 474.135 22.4385 469.407 24.4135 464.724C24.5208 464.47 24.8141 464.35 25.0685 464.458ZM23.6043 748.663C23.3381 748.737 23.0628 748.58 22.9895 748.314C21.684 743.576 20.3871 738.677 19.1134 733.633C19.0458 733.365 19.2081 733.093 19.4758 733.026C19.7435 732.958 20.0154 733.12 20.083 733.388C21.3549 738.425 22.65 743.317 23.9535 748.048C24.0269 748.315 23.8705 748.59 23.6043 748.663ZM16.1548 719.237C15.8856 719.299 15.6174 719.13 15.5557 718.861C14.4458 714.017 13.3667 709.064 12.3297 704.013C12.2742 703.742 12.4485 703.478 12.719 703.422C12.9895 703.367 13.2538 703.541 13.3093 703.811C14.3447 708.855 15.4221 713.801 16.5305 718.638C16.5921 718.907 16.4239 719.175 16.1548 719.237ZM14.8092 493.015C15.0738 493.094 15.2246 493.372 15.146 493.637C13.7052 498.484 12.3933 503.362 11.2035 508.264C11.1383 508.532 10.868 508.697 10.5996 508.632C10.3313 508.567 10.1666 508.296 10.2317 508.028C11.4254 503.11 12.7417 498.215 14.1874 493.352C14.2661 493.087 14.5445 492.936 14.8092 493.015ZM10.0305 689.497C9.75881 689.546 9.49871 689.365 9.4496 689.094C8.56039 684.173 7.71794 679.175 6.93154 674.109C6.88918 673.836 7.07604 673.581 7.34892 673.539C7.62179 673.496 7.87734 673.683 7.9197 673.956C8.70479 679.013 9.54587 684.003 10.4337 688.916C10.4828 689.187 10.3023 689.448 10.0305 689.497ZM7.59039 522.484C7.86154 522.536 8.03903 522.798 7.98682 523.069C7.03064 528.035 6.19077 533.017 5.46037 538.01C5.42039 538.283 5.1665 538.472 4.89326 538.432C4.62003 538.393 4.43093 538.139 4.4709 537.865C5.2034 532.858 6.04575 527.861 7.00486 522.88C7.05708 522.609 7.31922 522.432 7.59039 522.484ZM5.35394 659.497C5.08006 659.533 4.82946 659.339 4.79421 659.065C4.15298 654.084 3.57179 649.049 3.05884 643.968C3.0311 643.694 3.23134 643.448 3.50608 643.421C3.78083 643.393 4.02604 643.593 4.05378 643.868C4.56578 648.939 5.14592 653.965 5.78602 658.938C5.82128 659.212 5.62783 659.462 5.35394 659.497ZM3.14113 552.499C3.41581 552.528 3.61545 552.773 3.58704 553.048C3.06644 558.081 2.64955 563.117 2.3294 568.15C2.31187 568.425 2.07425 568.634 1.79866 568.617C1.52308 568.599 1.31389 568.362 1.33142 568.086C1.65237 563.041 2.07035 557.992 2.59234 552.945C2.62075 552.67 2.86645 552.471 3.14113 552.499ZM2.28379 629.29C2.00836 629.31 1.76905 629.103 1.74929 628.827C1.38858 623.802 1.10025 618.741 0.891873 613.653C0.880574 613.377 1.09508 613.144 1.371 613.133C1.64691 613.121 1.87973 613.336 1.89103 613.612C2.09898 618.689 2.38672 623.74 2.74672 628.756C2.76648 629.031 2.55923 629.27 2.28379 629.29ZM1.16405 582.774C1.44009 582.781 1.65794 583.011 1.65062 583.287C1.51635 588.355 1.47365 593.412 1.51536 598.45C1.51765 598.726 1.29565 598.952 1.01952 598.954C0.743382 598.957 0.517682 598.735 0.515401 598.458C0.4736 593.409 0.516386 588.341 0.650976 583.26C0.658292 582.984 0.887998 582.767 1.16405 582.774Z" fill="#E4E4E4"/>
<path d="M53 6.5C53 8.433 51.433 10 49.5 10C47.567 10 46 8.433 46 6.5C46 4.567 47.567 3 49.5 3C51.433 3 53 4.567 53 6.5Z" fill="#E4E4E4"/>
<path fill-rule="evenodd" clip-rule="evenodd" d="M49.5 12C52.5376 12 55 9.53757 55 6.5C55 3.46243 52.5376 1 49.5 1C46.4624 1 44 3.46243 44 6.5C44 9.53757 46.4624 12 49.5 12ZM49.5 13C53.0899 13 56 10.0899 56 6.5C56 2.91015 53.0899 0 49.5 0C45.9101 0 43 2.91015 43 6.5C43 10.0899 45.9101 13 49.5 13Z" fill="#E4E4E4"/>
<path d="M56 830.5C56 832.433 54.433 834 52.5 834C50.567 834 49 832.433 49 830.5C49 828.567 50.567 827 52.5 827C54.433 827 56 828.567 56 830.5Z" fill="#E4E4E4"/>
<path fill-rule="evenodd" clip-rule="evenodd" d="M52.5 836C55.5376 836 58 833.538 58 830.5C58 827.462 55.5376 825 52.5 825C49.4624 825 47 827.462 47 830.5C47 833.538 49.4624 836 52.5 836ZM52.5 837C56.0899 837 59 834.09 59 830.5C59 826.91 56.0899 824 52.5 824C48.9101 824 46 826.91 46 830.5C46 834.09 48.9101 837 52.5 837Z" fill="#E4E4E4"/>
<path d="M53 809.5L66.5 814.5L53 820V809.5Z" fill="#E5E5E5"/>
<path fill-rule="evenodd" clip-rule="evenodd" d="M52.5 808.782L67.8797 814.478L53.5 820.336V830.5H52.5V808.782ZM53.5 819.256L65.1203 814.522L53.5 810.218V819.256Z" fill="#E5E5E5"/>
</svg>
