<svg width="22" height="23" viewBox="0 0 22 23" fill="none" xmlns="http://www.w3.org/2000/svg">
<path d="M21.999 11.0018C21.999 4.92682 17.074 0.00183404 10.999 0.00183298C4.924 0.00183192 -0.000977424 4.92681 -0.000978486 11.0018C-0.000979548 17.0768 4.924 22.0018 10.999 22.0018C17.074 22.0018 21.999 17.0768 21.999 11.0018ZM0.999015 11.0018C0.999016 5.47882 5.47602 1.00183 10.999 1.00183C16.522 1.00183 20.999 5.47883 20.999 11.0018C20.999 16.5248 16.522 21.0018 10.999 21.0018C5.47601 21.0018 0.999014 16.5248 0.999015 11.0018Z" fill="white"/>
<path d="M11.4209 17.3512L11.4209 11.0022L13.5159 11.0022L13.8469 8.8982L11.4209 8.8982L11.4209 7.84321C11.4209 7.29422 11.6009 6.77021 12.3889 6.77021L13.9639 6.77021L13.9639 4.67021L11.7279 4.67021C9.84792 4.67021 9.33491 5.90818 9.3349 7.62422L9.3349 8.89723L8.04492 8.89723L8.04492 11.0022L9.3349 11.0022L9.3349 17.3512L11.4209 17.3512Z" fill="white"/>
</svg>
