<svg width="24" height="24" viewBox="0 0 24 24" fill="none" xmlns="http://www.w3.org/2000/svg">
<circle cx="11.999" cy="12.0018" r="11" stroke="white"/>
<path d="M16.005 6.61813L7.99349 6.61813C7.26095 6.61813 6.66504 7.21404 6.66504 7.94658L6.66504 16.0571C6.66504 16.7897 7.26095 17.3856 7.99349 17.3856L16.005 17.3856C16.7376 17.3856 17.3335 16.7897 17.3335 16.0571L17.3335 7.94658C17.3335 7.21411 16.7376 6.61813 16.005 6.61813ZM16.0749 16.0571C16.0749 16.0957 16.0436 16.127 16.005 16.127L7.99349 16.127C7.95489 16.127 7.92357 16.0957 7.92357 16.0571L7.92357 7.94658C7.92357 7.90798 7.9549 7.87666 7.99349 7.87666L16.005 7.87666C16.0436 7.87666 16.075 7.90798 16.075 7.94658L16.0749 16.0571Z" fill="white"/>
<path d="M15.2763 8.81947L13.835 8.81947L13.835 10.1417L15.2763 10.1417L15.2763 8.81947Z" fill="white"/>
<path d="M11.9991 13.9559C12.784 13.9559 13.4202 13.3196 13.4202 12.5348C13.4202 11.75 12.784 11.1138 11.9991 11.1138C11.2143 11.1138 10.5781 11.75 10.5781 12.5348C10.5781 13.3196 11.2143 13.9559 11.9991 13.9559Z" fill="white"/>
<path d="M14.2664 12.5284C14.2664 13.7802 13.2516 14.795 11.9998 14.795C10.748 14.795 9.73319 13.7802 9.73319 12.5284L9.73627 11.5184L8.72266 11.5184L8.72266 15.2773L15.277 15.2773L15.277 11.5184L14.2717 11.5184L14.2664 12.5284Z" fill="white"/>
</svg>
