<svg width="17" height="17" viewBox="0 0 17 17" fill="none" xmlns="http://www.w3.org/2000/svg">
<path d="M12.2333 2.28945C11.2833 1.45702 9.95 1 8.5 1C7.05 1 5.71666 1.45702 4.76666 2.28945C3.61666 3.30142 3 4.81937 3 6.69641C3 10.7933 7.81667 15.6083 8.03334 15.8041C8.16668 15.9347 8.33333 16 8.5 16C8.66666 16 8.85 15.9347 8.96667 15.8041C9.16667 15.6083 14 10.7933 14 6.69641C13.9833 4.81937 13.3833 3.30142 12.2333 2.28945ZM8.48333 14.4004C8.03333 13.9108 7.31667 13.0947 6.61667 12.1153C5.11667 10.0261 4.31667 8.1654 4.31667 6.71273C4.31667 2.63221 7.5 2.30577 8.48333 2.30577C12.35 2.30577 12.65 5.68444 12.65 6.71273C12.65 9.58542 9.66667 13.1273 8.48333 14.4004ZM8.48333 3.82372C7.01667 3.82372 5.83333 5.01523 5.83333 6.4679C5.83333 7.92057 7.01667 9.11208 8.48333 9.11208C9.95 9.11208 11.1333 7.92057 11.1333 6.4679C11.1333 4.99891 9.95 3.82372 8.48333 3.82372ZM8.48333 7.95321C7.66667 7.95321 7 7.28401 7 6.45158C7 5.61915 7.66667 4.94995 8.48333 4.94995C9.3 4.94995 9.96667 5.61915 9.96667 6.45158C9.96667 7.28401 9.3 7.95321 8.48333 7.95321Z" fill="#B2B2B2"/>
</svg>
