<svg width="24" height="24" viewBox="0 0 24 24" fill="none" xmlns="http://www.w3.org/2000/svg">
<path d="M17.2623 5.20451C17.0533 4.86381 16.7292 4.66853 16.3728 4.66853C16.1426 4.66853 15.9042 4.74844 15.6639 4.90587L5.4331 11.5991C4.70594 12.0756 4.65537 12.793 4.66741 13.0791C4.67897 13.3669 4.79021 14.0729 5.55301 14.4509L6.86046 15.0962C7.10847 15.2188 7.38585 15.2819 7.68442 15.2819C7.73161 15.2819 7.77688 15.2741 7.82359 15.2711C7.80577 15.2999 7.7841 15.3222 7.76773 15.3522C7.52406 15.8071 7.51202 16.4236 7.73257 17.0876C7.73594 17.099 7.73931 17.1086 7.74269 17.1182C8.12938 18.1872 8.55942 19.3937 8.61143 19.5614C8.73953 19.9784 9.06603 20.2656 9.42431 20.2656C9.97618 20.2656 10.1399 19.9339 11.0428 18.1C11.1132 17.9654 11.2697 17.653 11.2962 17.2552C11.4016 17.3087 11.5008 17.358 11.5856 17.4006L13.0341 18.1373C13.3245 18.2851 13.5788 18.4155 13.7126 18.4846C13.7541 18.5165 13.7979 18.5435 13.8436 18.5669C13.9457 18.6174 14.0546 18.6432 14.1639 18.6432C14.8227 18.6432 14.9806 17.9312 15.0654 17.5496C15.1073 17.361 15.165 17.0996 15.2272 16.8112L17.4366 6.68148C17.6032 5.91656 17.3985 5.42804 17.2623 5.20451ZM10.3133 17.5232C10.3133 17.5232 9.49366 19.1882 9.42383 19.1882C9.4219 19.1882 9.42094 19.187 9.41998 19.1846C9.33956 18.9148 8.52956 16.6753 8.52956 16.6753C8.38028 16.2265 8.40725 15.8419 8.66392 15.8419C8.72026 15.8419 8.78768 15.8606 8.86666 15.9014L9.49558 16.3094C9.60056 16.3989 9.71518 16.4765 9.84135 16.5383L9.87313 16.5534L9.93236 16.5906C10.4183 16.9115 10.5728 17.0275 10.3133 17.5232ZM16.6035 6.39786L14.395 16.5275C14.2703 17.0984 14.1663 17.5653 14.1644 17.5653C14.1624 17.5641 14.16 17.5532 14.16 17.5514C14.16 17.5478 13.7998 17.364 13.3597 17.1392L11.9101 16.4025C11.47 16.1802 10.7481 15.8203 10.3056 15.6076L10.2324 15.5709L9.96174 15.3955C9.69351 15.1389 9.66991 14.7159 9.93959 14.3571L14.4239 8.36575C14.604 8.126 14.6719 8.00222 14.6329 8.00222C14.6021 8.00222 14.5024 8.08214 14.3358 8.24497L8.66199 13.8296C8.41447 14.0705 8.03837 14.2051 7.6849 14.2051C7.50383 14.2051 7.32806 14.1691 7.17829 14.0952L5.87181 13.4504C5.43021 13.2323 5.41336 12.8297 5.83376 12.5533L16.0656 5.85887C16.1836 5.78196 16.2871 5.74591 16.3728 5.74591C16.5929 5.74591 16.6931 5.98626 16.6035 6.39786Z" fill="white"/>
<circle cx="11.999" cy="12.0018" r="11" stroke="white"/>
</svg>
