<svg width="17" height="17" viewBox="0 0 17 17" fill="none" xmlns="http://www.w3.org/2000/svg">
<path d="M8.50397 1.9834C4.90564 1.9834 1.9873 4.90173 1.9873 8.50006C1.9873 12.0984 4.90564 15.0167 8.50397 15.0167C12.1023 15.0167 15.0206 12.0984 15.0206 8.50006C15.0206 4.90173 12.1023 1.9834 8.50397 1.9834ZM8.50397 13.8834C5.52897 13.8834 3.12064 11.4751 3.12064 8.50006C3.12064 5.52507 5.52897 3.11673 8.50397 3.11673C11.479 3.11673 13.8873 5.52507 13.8873 8.50006C13.8873 11.4751 11.479 13.8834 8.50397 13.8834ZM10.6715 9.86008C10.8981 10.0867 10.8981 10.4409 10.6715 10.6676C10.5581 10.7809 10.4165 10.8376 10.2748 10.8376C10.1331 10.8376 9.99146 10.7809 9.87813 10.6676L8.12148 8.91088C8.00814 8.79755 7.95147 8.65591 7.95147 8.51425V5.14257C7.95147 4.83091 8.20647 4.57591 8.51813 4.57591C8.8298 4.57591 9.0848 4.83091 9.0848 5.14257V8.28757L10.6715 9.86008Z" fill="#B2B2B2"/>
</svg>
