<svg width="124" height="16" viewBox="0 0 124 16" fill="none" xmlns="http://www.w3.org/2000/svg">
<path d="M12.3136 2.92006H7.47348V15.7941H4.79752V2.92006H0V0.822378H12.3136V2.92006Z" fill="white"/>
<path d="M19.446 6.95091C19.1048 6.89607 18.753 6.86865 18.3905 6.86865C17.2036 6.86865 16.404 7.30738 15.9917 8.18485V15.7941H13.4011V4.66814H15.8745L15.9384 5.91235C16.5639 4.94577 17.431 4.46248 18.5398 4.46248C18.9094 4.46248 19.215 4.51047 19.4566 4.60644L19.446 6.95091Z" fill="white"/>
<path d="M27.6551 15.7941C27.5413 15.5816 27.4418 15.2354 27.3565 14.7555C26.5321 15.585 25.5228 15.9998 24.3288 15.9998C23.1703 15.9998 22.225 15.681 21.4929 15.0435C20.7608 14.4059 20.3948 13.6176 20.3948 12.6784C20.3948 11.4925 20.8497 10.5842 21.7594 9.95348C22.6763 9.31595 23.9841 8.99719 25.6827 8.99719H27.2713V8.26711C27.2713 7.69127 27.1042 7.23198 26.7702 6.88922C26.4361 6.5396 25.928 6.36479 25.2456 6.36479C24.6557 6.36479 24.1724 6.50875 23.7957 6.79667C23.419 7.07773 23.2307 7.43763 23.2307 7.87636H20.64C20.64 7.26625 20.8497 6.69727 21.269 6.16942C21.6884 5.63472 22.257 5.21655 22.9748 4.91492C23.6998 4.6133 24.5065 4.46248 25.3949 4.46248C26.7453 4.46248 27.8221 4.79153 28.6252 5.44963C29.4284 6.10087 29.8406 7.01946 29.8619 8.20541V13.2234C29.8619 14.2243 30.0076 15.0229 30.299 15.6193V15.7941H27.6551ZM24.8085 13.9946C25.3203 13.9946 25.8 13.8746 26.2478 13.6347C26.7027 13.3948 27.0438 13.0726 27.2713 12.6681V10.5704H25.8746C24.9151 10.5704 24.1937 10.7315 23.7104 11.0537C23.2271 11.3759 22.9855 11.8318 22.9855 12.4213C22.9855 12.9012 23.1489 13.2851 23.4759 13.573C23.8099 13.8541 24.2541 13.9946 24.8085 13.9946Z" fill="white"/>
<path d="M36.4718 12.627L38.9132 4.66814H41.5892L37.5913 15.7941H35.3418L31.3118 4.66814H33.9985L36.4718 12.627Z" fill="white"/>
<path d="M48.1458 15.9998C46.504 15.9998 45.1714 15.5028 44.1479 14.5088C43.1315 13.5079 42.6233 12.178 42.6233 10.519V10.2106C42.6233 9.10001 42.8437 8.10944 43.2843 7.23883C43.7321 6.36137 44.3576 5.67928 45.1607 5.19256C45.9638 4.70584 46.8594 4.46248 47.8473 4.46248C49.418 4.46248 50.6299 4.94577 51.4828 5.91235C52.3428 6.87893 52.7728 8.24654 52.7728 10.0152V11.0229H45.2353C45.3135 11.9415 45.6298 12.6681 46.1842 13.2028C46.7457 13.7375 47.4493 14.0049 48.2951 14.0049C49.482 14.0049 50.4486 13.5422 51.1949 12.6167L52.5915 13.9021C52.1295 14.567 51.5112 15.0846 50.7365 15.4548C49.9689 15.8181 49.1053 15.9998 48.1458 15.9998ZM47.8366 6.46762C47.1259 6.46762 46.5502 6.70755 46.1095 7.18742C45.676 7.66728 45.3988 8.33566 45.278 9.19256H50.2141V9.00747C50.1572 8.17114 49.9262 7.54046 49.5211 7.11544C49.116 6.68356 48.5545 6.46762 47.8366 6.46762Z" fill="white"/>
<path d="M57.549 15.7941H54.9583V-0.000244141H57.549V15.7941Z" fill="white"/>
<path d="M86.3981 15.7941C86.2844 15.5816 86.1849 15.2354 86.0996 14.7555C85.2751 15.585 84.2658 15.9998 83.0718 15.9998C81.9133 15.9998 80.968 15.681 80.2359 15.0435C79.5039 14.4059 79.1378 13.6176 79.1378 12.6784C79.1378 11.4925 79.5927 10.5842 80.5024 9.95348C81.4193 9.31595 82.7271 8.99719 84.4258 8.99719H86.0143V8.26711C86.0143 7.69127 85.8472 7.23198 85.5132 6.88922C85.1791 6.5396 84.671 6.36479 83.9886 6.36479C83.3987 6.36479 82.9154 6.50875 82.5387 6.79667C82.162 7.07773 81.9737 7.43763 81.9737 7.87636H79.383C79.383 7.26625 79.5927 6.69727 80.012 6.16942C80.4314 5.63472 81 5.21655 81.7178 4.91492C82.4428 4.6133 83.2495 4.46248 84.1379 4.46248C85.4883 4.46248 86.5651 4.79153 87.3682 5.44963C88.1714 6.10087 88.5836 7.01946 88.6049 8.20541V13.2234C88.6049 14.2243 88.7506 15.0229 89.042 15.6193V15.7941H86.3981ZM83.5515 13.9946C84.0633 13.9946 84.543 13.8746 84.9908 13.6347C85.4457 13.3948 85.7868 13.0726 86.0143 12.6681V10.5704H84.6177C83.6582 10.5704 82.9368 10.7315 82.4534 11.0537C81.9701 11.3759 81.7285 11.8318 81.7285 12.4213C81.7285 12.9012 81.892 13.2851 82.2189 13.573C82.5529 13.8541 82.9972 13.9946 83.5515 13.9946Z" fill="white"/>
<path d="M93.7223 4.66814L93.7969 5.95348C94.6498 4.95948 95.7692 4.46248 97.1552 4.46248C99.5575 4.46248 100.78 5.78896 100.823 8.44192V15.7941H98.232V8.58587C98.232 7.87979 98.072 7.3588 97.7522 7.02289C97.4395 6.68013 96.9242 6.50875 96.2063 6.50875C95.1616 6.50875 94.3833 6.96462 93.8716 7.87636V15.7941H91.2809V4.66814H93.7223Z" fill="white"/>
<path d="M106.228 15.7941H103.637V4.66814H106.228V15.7941ZM103.477 1.77868C103.477 1.39479 103.602 1.07602 103.85 0.822378C104.106 0.568736 104.469 0.441915 104.938 0.441915C105.407 0.441915 105.769 0.568736 106.025 0.822378C106.281 1.07602 106.409 1.39479 106.409 1.77868C106.409 2.15571 106.281 2.47105 106.025 2.72469C105.769 2.97148 105.407 3.09487 104.938 3.09487C104.469 3.09487 104.106 2.97148 103.85 2.72469C103.602 2.47105 103.477 2.15571 103.477 1.77868Z" fill="white"/>
<path d="M115.951 15.7941C115.837 15.5816 115.738 15.2354 115.652 14.7555C114.828 15.585 113.819 15.9998 112.625 15.9998C111.466 15.9998 110.521 15.681 109.789 15.0435C109.057 14.4059 108.691 13.6176 108.691 12.6784C108.691 11.4925 109.145 10.5842 110.055 9.95348C110.972 9.31595 112.28 8.99719 113.979 8.99719H115.567V8.26711C115.567 7.69127 115.4 7.23198 115.066 6.88922C114.732 6.5396 114.224 6.36479 113.541 6.36479C112.951 6.36479 112.468 6.50875 112.091 6.79667C111.715 7.07773 111.526 7.43763 111.526 7.87636H108.936C108.936 7.26625 109.145 6.69727 109.565 6.16942C109.984 5.63472 110.553 5.21655 111.271 4.91492C111.996 4.6133 112.802 4.46248 113.691 4.46248C115.041 4.46248 116.118 4.79153 116.921 5.44963C117.724 6.10087 118.136 7.01946 118.158 8.20541V13.2234C118.158 14.2243 118.303 15.0229 118.595 15.6193V15.7941H115.951ZM113.104 13.9946C113.616 13.9946 114.096 13.8746 114.544 13.6347C114.998 13.3948 115.34 13.0726 115.567 12.6681V10.5704H114.17C113.211 10.5704 112.489 10.7315 112.006 11.0537C111.523 11.3759 111.281 11.8318 111.281 12.4213C111.281 12.9012 111.445 13.2851 111.772 13.573C112.106 13.8541 112.55 13.9946 113.104 13.9946Z" fill="white"/>
<path d="M122.486 13.1617C122.969 13.1617 123.343 13.2954 123.606 13.5627C123.869 13.8232 124 14.1523 124 14.5499C124 14.9406 123.869 15.2663 123.606 15.5267C123.343 15.7804 122.969 15.9072 122.486 15.9072C122.024 15.9072 121.658 15.7804 121.388 15.5267C121.118 15.2731 120.983 14.9475 120.983 14.5499C120.983 14.1523 121.114 13.8232 121.377 13.5627C121.64 13.2954 122.01 13.1617 122.486 13.1617Z" fill="white"/>
<path d="M64.1269 0.822378L68.6046 12.298L73.0716 0.822378H76.5578V15.7941H73.8712V10.8584L74.1377 4.25683L69.5534 15.7941H67.6238L63.0501 4.26711L63.3167 10.8584V15.7941H60.63V0.822378H64.1269Z" fill="white"/>
</svg>
