<svg width="62" height="62" viewBox="0 0 62 62" fill="none" xmlns="http://www.w3.org/2000/svg">
<g clip-path="url(#clip0)">
<path d="M61.642 43.0927L58.6862 40.161C58.2112 39.6898 57.4444 39.6931 56.9734 40.168C56.5022 40.6429 56.5055 41.4098 56.9804 41.8809L59.936 44.8126C60.1722 45.0469 60.4806 45.1639 60.7889 45.1639C61.1005 45.1639 61.412 45.0443 61.6488 44.8055C62.1201 44.3306 62.1169 43.5637 61.642 43.0927Z" fill="black"/>
<path d="M55.6746 37.1614C55.2016 36.6884 54.435 36.6884 53.9617 37.1614L53.9597 37.1634C53.4867 37.6364 53.4878 38.4024 53.9608 38.8753C54.1969 39.1116 54.5068 39.2297 54.8165 39.2297C55.127 39.2297 55.4377 39.1111 55.6745 38.8744C56.1475 38.4014 56.1475 37.6345 55.6746 37.1614Z" fill="black"/>
<path d="M45.3488 42.7461L57.0983 30.9968C58.8778 29.2172 58.8778 26.3216 57.0982 24.542C56.4707 23.9145 55.7043 23.5093 54.8971 23.3244C55.1739 22.7293 55.3204 22.0763 55.3204 21.4004C55.3204 20.1813 54.8456 19.0351 53.9836 18.1732C53.3076 17.497 52.4564 17.0603 51.5326 16.903C52.0527 15.3184 51.685 13.5036 50.4272 12.2459C49.7357 11.5544 48.8755 11.133 47.9779 10.979C48.1283 10.5226 48.2076 10.0406 48.2076 9.54609C48.2076 8.32691 47.7328 7.18076 46.8708 6.31882C46.0088 5.45687 44.8626 4.98206 43.6436 4.98206C42.8694 4.98206 42.1251 5.17412 41.4638 5.53473L41.3469 5.40916C39.8282 3.77706 37.6784 2.84113 35.4492 2.84113H25.9385C25.2697 2.84113 24.7273 3.3835 24.7273 4.05231V5.64057C24.7273 6.27619 24.8348 6.89498 25.0404 7.47684C24.4926 7.2493 23.8998 7.12978 23.2888 7.12978C22.0696 7.12978 20.9235 7.60459 20.0614 8.46654C18.803 9.72494 18.4357 11.5411 18.957 13.1262C18.0586 13.2799 17.1973 13.7015 16.5051 14.3936C15.6432 15.2557 15.1684 16.4018 15.1684 17.6209C15.1684 18.1144 15.2475 18.5957 15.3972 19.0511C14.4745 19.2089 13.6242 19.6453 12.9487 20.3209C11.5589 21.7107 11.2546 23.7814 12.0358 25.4693C11.2086 25.6583 10.4489 26.0749 9.83396 26.6897C8.05449 28.4692 8.05449 31.3648 9.83396 33.1444L12.2503 35.5605L0.354744 47.4558C-0.118248 47.9288 -0.118248 48.6957 0.354744 49.1688C0.59124 49.4052 0.90124 49.5236 1.21112 49.5236C1.521 49.5236 1.831 49.4053 2.06749 49.1688L14.0778 37.1585C14.7578 37.5465 15.5294 37.754 16.3335 37.754C17.5526 37.754 18.6987 37.2792 19.5608 36.4171C20.4974 35.4807 20.9403 34.235 20.891 33.0057C20.9524 33.0082 21.0138 33.0101 21.0752 33.0101C22.2438 33.0099 23.4129 32.565 24.3025 31.6755C25.1644 30.8134 25.6392 29.6673 25.6392 28.4482C25.6392 28.3866 25.6372 28.3253 25.6348 28.264C25.6954 28.2665 25.7561 28.2684 25.8169 28.2684C26.9856 28.2684 28.1545 27.8235 29.0441 26.9338C29.9061 26.0718 30.3809 24.9256 30.3809 23.7065C30.3809 23.6449 30.3788 23.5836 30.3764 23.5224C30.4371 23.5248 30.4978 23.5267 30.5585 23.5267C31.7273 23.5267 32.8961 23.0818 33.7858 22.1922C35.4579 20.5201 35.5585 17.8629 34.0886 16.0718L42.1284 8.03193C42.533 7.62724 43.0707 7.40454 43.6428 7.40454C44.215 7.40454 44.7528 7.62724 45.1574 8.03193C45.5619 8.4365 45.7846 8.97416 45.7846 9.54633C45.7846 10.1184 45.5619 10.6563 45.1572 11.0607L43.9719 12.2461L39.6708 16.5471C39.1979 17.0201 39.1979 17.787 39.6708 18.2601C39.9073 18.4965 40.2173 18.6149 40.5272 18.6149C40.8371 18.6149 41.1471 18.4966 41.3836 18.2601L45.6846 13.9591C46.5195 13.124 47.8783 13.1239 48.7135 13.959C49.5486 14.7942 49.5486 16.1528 48.7135 16.988L47.528 18.1735L44.4125 21.289C43.9395 21.762 43.9395 22.5289 44.4125 23.002C44.649 23.2384 44.959 23.3568 45.2689 23.3568C45.5788 23.3568 45.8888 23.2385 46.1253 23.002L49.2408 19.8865C49.6453 19.4818 50.1831 19.2591 50.7552 19.2591C51.3273 19.2591 51.8651 19.4818 52.2697 19.8865C52.6743 20.2911 52.8969 20.8288 52.8969 21.4009C52.8969 21.973 52.6743 22.5109 52.2696 22.9153L50.6424 24.5425L49.1541 26.0308C48.6811 26.5038 48.6811 27.2707 49.1541 27.7438C49.3906 27.9802 49.7006 28.0986 50.0104 28.0986C50.3203 28.0986 50.6303 27.9803 50.8668 27.7438L52.3563 26.2544C53.1914 25.4206 54.5494 25.4207 55.3841 26.2554C56.2193 27.0905 56.2193 28.4493 55.3841 29.2845L43.6346 41.0338C40.6843 43.9843 36.7631 45.6923 32.5935 45.8437C32.287 45.8548 31.9959 45.9819 31.7794 46.1993L20.9255 57.0934C20.4534 57.5673 20.4547 58.3342 20.9287 58.8063C21.1649 59.0417 21.4742 59.1595 21.7835 59.1595C22.0941 59.1595 22.4049 59.0407 22.6414 58.8032L30.6248 50.7904C32.6526 52.0913 35.0374 52.7098 37.4623 52.5495L43.7105 58.7978C43.947 59.0342 44.257 59.1526 44.5669 59.1526C44.8769 59.1526 45.1868 59.0343 45.4233 58.7978C45.8963 58.3248 45.8963 57.5579 45.4233 57.0848L38.7801 50.4409C38.5286 50.1895 38.1791 50.061 37.8247 50.0901L37.4407 50.1216C35.6682 50.2669 33.9162 49.8787 32.3866 49.0214L33.165 48.2403C37.7685 47.9563 42.0784 46.0166 45.3488 42.7461ZM17.8481 34.7044C17.4435 35.1091 16.9056 35.3318 16.3337 35.3318C15.7615 35.3318 15.2237 35.1091 14.8193 34.7044L11.5466 31.4318C10.7115 30.5968 10.7115 29.238 11.5466 28.4028C11.9512 27.9981 12.4891 27.7754 13.0611 27.7754C13.6332 27.7754 14.1711 27.9981 14.5755 28.4028L17.8482 31.6754C18.6831 32.5104 18.6831 33.8692 17.8481 34.7044ZM22.59 29.9625C21.7548 30.7976 20.3958 30.7976 19.5609 29.9625L16.2883 26.6898L14.661 25.0626C13.8259 24.2275 13.8259 22.8687 14.661 22.0336C15.0656 21.6289 15.6035 21.4062 16.1754 21.4062C16.7476 21.4062 17.2853 21.6289 17.6898 22.0336L22.5896 26.9335C22.5896 26.9335 22.5896 26.9335 22.5897 26.9335C22.9944 27.3381 23.2171 27.8759 23.2171 28.448C23.2171 29.02 22.9944 29.5579 22.59 29.9625ZM27.3316 25.2207C26.4965 26.0556 25.1375 26.0558 24.3026 25.2207L18.2173 19.1354C17.8127 18.7308 17.59 18.1931 17.59 17.621C17.59 17.0489 17.8127 16.511 18.2174 16.1066C18.6349 15.6891 19.1835 15.4803 19.7318 15.4803C20.2799 15.4803 20.8278 15.6888 21.2452 16.1056L24.0188 18.8791L27.3314 22.1918H27.3315C27.736 22.5964 27.9587 23.134 27.9587 23.7062C27.9589 24.2784 27.7362 24.8162 27.3316 25.2207ZM32.0734 20.4789C31.2384 21.314 29.8796 21.314 29.0445 20.4789L22.9592 14.3936C22.9586 14.393 22.9579 14.3924 22.9571 14.3917L21.7737 13.2082C20.9386 12.373 20.9386 11.0143 21.7737 10.1792C22.1912 9.76151 22.7398 9.55275 23.2882 9.55275C23.8366 9.55275 24.3852 9.76151 24.8026 10.1792L32.0732 17.4498C32.4779 17.8543 32.7006 18.3921 32.7006 18.9642C32.7007 19.5364 32.4781 20.0745 32.0734 20.4789ZM32.3919 14.3429L29.0652 11.0162C29.4424 11.0967 29.8303 11.1394 30.2251 11.1393C30.2339 11.1393 30.2429 11.1393 30.2518 11.1393L33.5756 11.1237C34.2444 11.1205 34.7842 10.5757 34.7811 9.90682C34.7779 9.23984 34.2363 8.70134 33.57 8.70134C33.5681 8.70134 33.5662 8.70134 33.5642 8.70134L30.2404 8.71696C30.2353 8.71696 30.2305 8.71696 30.2254 8.71696C29.4065 8.71696 28.6362 8.39909 28.0554 7.82111C27.471 7.23937 27.1493 6.4651 27.1493 5.64045V5.26336H35.4488C37.0079 5.26336 38.5113 5.91788 39.5735 7.05931L39.6228 7.11222L32.3919 14.3429Z" fill="black"/>
</g>
<defs>
<clipPath id="clip0">
<rect width="62" height="62" fill="white"/>
</clipPath>
</defs>
</svg>
