<svg width="62" height="62" viewBox="0 0 62 62" fill="none" xmlns="http://www.w3.org/2000/svg">
<path d="M61.4443 1.31237C61.0999 1.10341 60.6704 1.09423 60.3157 1.28137L41.3333 11.3311L22.3521 1.28137C22.3372 1.27334 22.32 1.27104 22.3051 1.26415C22.25 1.23774 22.1937 1.21822 22.1363 1.201C22.1041 1.19182 22.0731 1.18148 22.041 1.1746C21.9779 1.16197 21.9136 1.15737 21.8481 1.15508C21.8194 1.15393 21.7907 1.15048 21.7609 1.15163C21.6989 1.15508 21.638 1.16656 21.5771 1.18034C21.5427 1.18722 21.5083 1.19182 21.475 1.20215C21.4669 1.20445 21.4589 1.20445 21.452 1.20674L0.785333 8.09563C0.315741 8.25178 0 8.69037 0 9.18523V58.5556C0 58.9241 0.176815 59.2709 0.47763 59.4879C0.675111 59.6291 0.910482 59.7037 1.14815 59.7037C1.26985 59.7037 1.3927 59.6842 1.51096 59.644L21.7712 52.8906L40.8959 60.7658C40.912 60.7727 40.9303 60.7704 40.9464 60.7761C41.0727 60.8209 41.2013 60.8519 41.3333 60.8519C41.4367 60.8519 41.5389 60.8347 41.6387 60.8071C41.6709 60.7979 41.7007 60.783 41.7329 60.7715C41.7788 60.7543 41.827 60.7417 41.8707 60.7187L61.3892 50.3854C61.7646 50.1867 62 49.7952 62 49.3704V2.29634C62 1.89334 61.7887 1.52019 61.4443 1.31237ZM2.2963 10.013L20.6667 3.88997V34.8808C20.173 34.9703 19.6861 35.0714 19.2154 35.1954C18.6023 35.3584 18.2372 35.9865 18.4002 36.5996C18.5369 37.1139 19.0007 37.4538 19.5093 37.4538C19.6058 37.4538 19.7057 37.4412 19.8044 37.4159C20.08 37.3424 20.3808 37.3057 20.6667 37.246V50.84L2.2963 56.962V10.013ZM22.963 36.9245C23.3315 36.8958 23.6886 36.8487 24.0663 36.8407C24.7001 36.8269 25.203 36.3022 25.1904 35.6684C25.1766 35.0427 24.6657 34.5444 24.0422 34.5444C24.0342 34.5444 24.025 34.5444 24.017 34.5444C23.661 34.5524 23.3109 34.5719 22.963 34.596V4.20341L40.1852 13.3209V37.6547C39.3654 37.6191 38.5319 37.5227 37.6581 37.3539C37.0335 37.231 36.433 37.6398 36.3125 38.2621C36.1919 38.8844 36.5995 39.4872 37.2218 39.6077C38.2391 39.8052 39.2265 39.9016 40.1863 39.9395V57.9896L22.963 50.8974V36.9245ZM59.7037 48.6781L42.4815 57.7955V39.8155C42.9086 39.6215 43.1933 39.1852 43.1554 38.6903C43.1222 38.2609 42.8466 37.9165 42.4815 37.7477V13.3209L59.7037 4.20341V48.6781Z" fill="black"/>
<path d="M12.6294 10.3334C9.46397 10.3334 6.88867 12.9087 6.88867 16.0741C6.88867 18.8469 8.86463 21.165 11.4813 21.6989V24.1112C11.4813 24.7461 11.9956 25.2593 12.6294 25.2593C13.2632 25.2593 13.7776 24.7461 13.7776 24.1112V21.6989C16.3942 21.165 18.3702 18.8469 18.3702 16.0741C18.3702 12.9087 15.7949 10.3334 12.6294 10.3334ZM12.6294 19.5186C10.7304 19.5186 9.18497 17.9732 9.18497 16.0741C9.18497 14.1751 10.7304 12.6297 12.6294 12.6297C14.5285 12.6297 16.0739 14.1751 16.0739 16.0741C16.0739 17.9732 14.5285 19.5186 12.6294 19.5186Z" fill="black"/>
<path d="M51.7476 31.7727C51.8854 31.8267 52.0266 31.8508 52.1656 31.8508C52.6248 31.8508 53.0577 31.5741 53.2356 31.1206C53.7753 29.744 54.2081 28.1894 54.525 26.5005C54.6421 25.8782 54.2311 25.2788 53.6076 25.1606C52.9807 25.0572 52.3849 25.4556 52.2677 26.0791C51.9784 27.6268 51.5846 29.0413 51.0978 30.2847C50.867 30.8737 51.1575 31.5408 51.7476 31.7727Z" fill="black"/>
<path d="M14.7023 37.1335C13.3165 38.0026 12.0673 39.0911 10.988 40.3712C10.5793 40.8558 10.6413 41.5802 11.1258 41.989C11.3417 42.1704 11.6046 42.2588 11.8652 42.2588C12.1924 42.2588 12.5162 42.1199 12.7436 41.8512C13.669 40.7536 14.7379 39.8201 15.9216 39.0796C16.459 38.742 16.6209 38.0336 16.2844 37.4963C15.948 36.959 15.2385 36.7959 14.7023 37.1335Z" fill="black"/>
<path d="M9.90532 43.9466C9.32895 43.6825 8.64695 43.9316 8.38172 44.508C7.20372 47.0638 6.91209 49.127 6.89946 49.2143C6.81335 49.8423 7.25195 50.4198 7.87998 50.5059C7.9328 50.514 7.98676 50.5174 8.03843 50.5174C8.60217 50.5174 9.09358 50.1018 9.17509 49.5289C9.17739 49.5105 9.44032 47.6953 10.4668 45.4713C10.732 44.8938 10.4805 44.2129 9.90532 43.9466Z" fill="black"/>
<path d="M46.4114 38.7259C46.5871 38.7259 46.7662 38.6857 46.9326 38.6007C48.4161 37.8418 49.7238 36.7648 50.818 35.402C51.2152 34.9071 51.136 34.1838 50.6412 33.7877C50.1475 33.3939 49.4241 33.4708 49.0269 33.9645C48.1359 35.0748 47.0796 35.9462 45.8867 36.5559C45.3218 36.8452 45.0979 37.5364 45.3872 38.1013C45.5916 38.4974 45.9946 38.7259 46.4114 38.7259Z" fill="black"/>
<path d="M33.4914 36.0886C32.985 35.8762 32.6888 35.7293 32.6693 35.7189C32.5947 35.681 32.5154 35.65 32.4339 35.6294C31.1905 35.3102 29.9654 35.0576 28.7908 34.8785C28.1651 34.7797 27.5784 35.2126 27.482 35.8395C27.3867 36.4664 27.8172 37.0531 28.4441 37.1484C29.5073 37.3114 30.6175 37.5387 31.7473 37.8258C31.9012 37.8993 32.1951 38.0382 32.6061 38.2093C32.7508 38.2701 32.9012 38.2977 33.0482 38.2977C33.4971 38.2977 33.9242 38.0336 34.1079 37.5927C34.3525 37.0048 34.0769 36.332 33.4914 36.0886Z" fill="black"/>
<path d="M53.8745 22.8838C53.8998 22.885 53.9239 22.8861 53.9492 22.8861C54.5496 22.8861 55.0548 22.42 55.0939 21.8103C55.1651 20.7069 55.2006 19.5393 55.2006 18.3429C55.2006 17.9445 55.1972 17.5403 55.1892 17.1282C55.1777 16.4932 54.6266 16.011 54.0203 16.0007C53.3866 16.0122 52.8814 16.5357 52.8929 17.1695C52.8998 17.5679 52.9043 17.9594 52.9043 18.3429C52.9043 19.491 52.8699 20.6082 52.8022 21.6645C52.762 22.2971 53.2419 22.8425 53.8745 22.8838Z" fill="black"/>
<path d="M9.52126 32.9599C9.74515 33.1838 10.0391 33.2963 10.333 33.2963C10.6269 33.2963 10.9209 33.1838 11.1447 32.9599L12.6293 31.4754L14.1139 32.9599C14.3377 33.1838 14.6317 33.2963 14.9256 33.2963C15.2195 33.2963 15.5135 33.1838 15.7373 32.9599C16.1863 32.511 16.1863 31.7854 15.7373 31.3365L14.2528 29.8519L15.7373 28.3673C16.1863 27.9184 16.1863 27.1928 15.7373 26.7439C15.2884 26.2949 14.5628 26.2949 14.1139 26.7439L12.6293 28.2284L11.1447 26.7439C10.6958 26.2949 9.97019 26.2949 9.52126 26.7439C9.07234 27.1928 9.07234 27.9184 9.52126 28.3673L11.0058 29.8519L9.52126 31.3365C9.07234 31.7842 9.07234 32.511 9.52126 32.9599Z" fill="black"/>
</svg>
