<svg width="62" height="62" viewBox="0 0 62 62" fill="none" xmlns="http://www.w3.org/2000/svg">
<g clip-path="url(#clip0)">
<path d="M61.2215 32.8677L56.4137 34.892C56.3193 34.9325 56.2313 34.9869 56.1528 35.0531L49.6627 40.5573L49.5485 40.28C48.9204 38.7751 47.2375 38.0105 45.6911 38.528L44.9824 38.7667L44.458 38.2364L41.9835 34.1126L44.8327 21.1053L46.3035 20.3684C47.2079 19.9127 47.753 18.9613 47.6897 17.9507C47.6265 16.9395 46.9662 16.0642 46.0119 15.7247L46.6193 12.9526C46.7201 12.4144 46.3756 11.8935 45.8409 11.7769C45.3056 11.6597 44.7748 11.9894 44.6424 12.5202L43.8986 15.914L36.0978 19.8198L33.1626 17.3027L33.2081 17.0438C33.3776 16.0128 33.1844 14.9552 32.6615 14.0508C34.3977 13.9307 35.9777 13.0035 36.9281 11.5451C37.8785 10.0871 38.0895 8.26741 37.4984 6.63055L41.0632 4.85086C41.5659 4.60178 41.7715 3.99241 41.5219 3.48978C41.2728 2.98716 40.6629 2.78206 40.1608 3.03115L36.4784 4.87212C34.5297 2.5819 31.1126 2.25572 28.7661 4.13622C26.419 6.01673 25.9925 9.4224 27.8033 11.8238C27.5038 11.8841 27.2117 11.9745 26.9305 12.0942L27.0734 11.339C27.1554 10.9041 27.0571 10.4543 26.8006 10.0935C26.5441 9.73227 26.1516 9.49159 25.7138 9.42586L21.0177 8.73049C19.6314 8.51699 18.3301 9.45502 18.0954 10.8378L16.9142 17.5424L15.6208 17.2652C15.0618 17.1456 14.4782 17.2548 14.0008 17.5691C13.5233 17.8834 13.1917 18.3767 13.081 18.9371L12.1044 23.8867C11.9922 24.4571 12.1173 25.0481 12.4509 25.5236C12.7845 25.9995 13.2975 26.3183 13.8718 26.4073L16.3345 26.7878H16.3483L22.0531 27.5538L21.9982 27.7159C21.5213 29.1289 21.8895 30.6902 22.9476 31.7414C22.9802 31.7735 23.0188 31.7977 23.0489 31.8293L25.4296 38.569L20.4923 46.0723L17.9506 49.0845C17.7509 49.3208 17.6703 49.6351 17.7311 49.9385C17.7924 50.2415 17.9886 50.5 18.2644 50.6403L23.1572 53.1342L20.9732 54.4503L0 57.0815L0.251064 59.09L21.4378 56.4331C21.5786 56.4158 21.7145 56.3688 21.8356 56.2942L35.36 48.1208L42.4634 45.5034L49.4986 42.9112L50.2266 42.6434C50.3373 42.6018 50.4401 42.5416 50.53 42.4649L57.3349 36.6959L61.9999 34.7324L61.2215 32.8677ZM45.0259 40.8859L46.342 40.4436C46.8787 40.2652 47.4629 40.5296 47.6828 41.051L47.8187 41.3782L42.839 43.2142L42.6868 43.2695L41.8659 41.2665L43.52 40.1644L43.9875 40.6383C44.2584 40.9116 44.6607 41.0075 45.0259 40.8859ZM25.563 30.8656C24.9823 30.8132 24.457 30.4979 24.1382 30.0096C23.8189 29.5213 23.7403 28.9139 23.9257 28.3604L24.1352 27.7278H30.3486L36.9138 29.6044L39.8307 34.463L39.3014 36.8768L36.4097 32.2524C36.2426 31.9825 35.9589 31.8066 35.6431 31.7765L25.563 30.8656ZM29.6394 25.7035H24.5988L25.0683 22.8513L25.3994 22.8222C27.0991 22.667 28.7606 22.2281 30.3154 21.5234L30.3619 21.5639L29.6394 25.7035ZM25.4103 20.7796L26.0073 17.1559C26.1245 17.6833 26.4081 18.1592 26.8174 18.5121L28.5985 20.0447C27.5701 20.4198 26.4991 20.6664 25.4103 20.7796ZM40.782 43.9733L39.7353 44.3588L40.1554 42.4417L40.782 43.9733ZM42.284 38.5581L41.3731 39.1655L40.9175 39.469L40.8359 39.3375L41.3479 36.9984L42.284 38.5581ZM40.4623 31.5862L38.4429 28.222C38.3109 28.0016 38.0999 27.84 37.8528 27.7693L31.6444 25.9921L32.1505 23.1014L34.0735 24.7551C34.8474 25.4203 35.9446 25.5557 36.8569 25.0986L42.5059 22.2706L40.4623 31.5862ZM44.9389 17.6581C45.0595 17.5968 45.1994 17.5869 45.3279 17.6294C45.4544 17.6714 45.5592 17.7629 45.618 17.8825C45.743 18.1315 45.6432 18.435 45.3946 18.561L35.9451 23.2927C35.7622 23.3806 35.5453 23.353 35.3901 23.223L31.1482 19.5697L28.1389 16.981C27.9842 16.8471 27.9254 16.6336 27.9892 16.4393C28.0534 16.2451 28.2279 16.1087 28.4315 16.0934H28.469C28.5901 16.0934 28.7073 16.1369 28.7992 16.2154L35.7983 22.238L44.9389 17.6581ZM35.8043 8.49672C35.8097 10.0169 34.842 11.3696 33.4019 11.8559C31.9617 12.3422 30.3723 11.8525 29.455 10.6407L35.6525 7.54436C35.7469 7.85325 35.7978 8.174 35.8043 8.49672ZM32.2617 4.95416C33.1112 4.95762 33.9307 5.26848 34.5682 5.82991L28.7414 8.73889C28.7414 8.65784 28.7171 8.58074 28.7171 8.4987C28.7191 6.54357 30.3031 4.95811 32.2587 4.95416H32.2617ZM29.1402 13.7864C30.0896 13.9371 30.866 14.6246 31.1309 15.5487L30.1187 14.6779C29.0853 13.7849 27.5285 13.8788 26.6098 14.89C27.1564 14.0488 28.1518 13.6149 29.1402 13.7864ZM14.0932 24.2796L15.0702 19.329L14.0764 19.1338L15.1987 19.244L16.5628 19.5366L15.6653 24.636L14.1826 24.4071L14.0932 24.2796ZM20.0895 11.1892C20.1449 10.8932 20.4226 10.693 20.7212 10.7336L25.0075 11.3686L24.2281 15.5013V15.5235L22.5661 25.5824L17.6693 24.9241L20.0895 11.1892ZM27.5157 38.3718L25.5833 32.8993L29.199 33.228L30.0239 38.6179L24.1278 47.2312L22.7302 46.3698L27.4055 39.2644C27.5794 39.0005 27.6205 38.6703 27.5157 38.3718ZM25.1968 51.9055L20.3223 49.4216L21.5208 48.0047L23.8861 49.4631C23.9657 49.5115 24.0522 49.5491 24.1421 49.5743C24.2311 49.6 24.3235 49.6129 24.4164 49.6129H24.5336C25.4538 49.6148 26.2584 50.2316 26.4996 51.1192L26.1877 51.3075L25.1968 51.9055ZM34.5682 46.2625C34.5079 46.2848 34.4496 46.3129 34.3942 46.3465L28.2634 50.0532C27.8488 49.091 27.0788 48.3264 26.1136 47.9177L31.9227 39.4314C32.068 39.2199 32.1273 38.9604 32.0877 38.7069L31.2777 33.4163L34.9621 33.7514L38.6851 39.7077L37.4846 45.1886L34.5682 46.2625Z" fill="black"/>
</g>
<defs>
<clipPath id="clip0">
<rect width="62" height="62" fill="white"/>
</clipPath>
</defs>
</svg>
