<svg width="62" height="62" viewBox="0 0 62 62" fill="none" xmlns="http://www.w3.org/2000/svg">
<path d="M29.6884 1.34596C28.8206 0.478079 27.6668 0 26.4394 0C25.503 0 24.6091 0.278395 23.8526 0.79583C23.096 0.278274 22.2022 0 21.2658 0C20.0385 0 18.8846 0.478079 18.0169 1.34584C17.1489 2.2136 16.6709 3.36738 16.6709 4.59491C16.6709 5.8222 17.1489 6.97622 18.0169 7.84411L23.1905 13.0174C23.3733 13.2002 23.6131 13.2916 23.8527 13.2916C24.0924 13.2916 24.3322 13.2002 24.5151 13.0172L29.6884 7.84386C31.4794 6.05216 31.4792 3.13718 29.6884 1.34596ZM28.3635 6.51946L23.8529 11.0303L19.3416 6.51946C18.8276 6.00541 18.5445 5.32196 18.5445 4.59503C18.5445 3.86811 18.8273 3.18465 19.3415 2.67061C19.8554 2.15656 20.5389 1.87345 21.2658 1.87345C21.9927 1.87345 22.6762 2.15656 23.1905 2.67073C23.3661 2.84631 23.6044 2.94501 23.8529 2.94501C24.1014 2.94501 24.3395 2.84631 24.5151 2.67061C25.0291 2.15656 25.7125 1.87345 26.4394 1.87345C27.1664 1.87345 27.8496 2.15656 28.3635 2.67061C29.4244 3.73163 29.4243 5.45831 28.3635 6.51946Z" fill="black"/>
<path d="M38.3416 11.515C37.8193 10.9923 37.1247 10.7046 36.3857 10.7046C35.9273 10.7046 35.4861 10.8154 35.0925 11.0242C34.6987 10.8154 34.2573 10.7046 33.799 10.7046C33.0601 10.7046 32.3654 10.9924 31.8433 11.5147C31.3209 12.037 31.0332 12.7316 31.0332 13.4704C31.0332 14.2092 31.3208 14.9038 31.8433 15.4262L34.4305 18.013C34.6061 18.1886 34.8444 18.2873 35.0929 18.2873C35.3412 18.2873 35.5796 18.1886 35.7551 18.0129L38.3416 15.426C39.4197 14.3476 39.4197 12.5929 38.3416 11.515ZM37.0165 14.1018L35.0926 16.0259L33.168 14.1016C32.9994 13.9331 32.9066 13.7089 32.9066 13.4705C32.9066 13.2321 32.9994 13.0079 33.1681 12.8392C33.3365 12.6708 33.5606 12.5779 33.7989 12.5779C34.0374 12.5779 34.2617 12.6709 34.4304 12.8396C34.6061 13.0152 34.8443 13.1139 35.0926 13.1139H35.093C35.3415 13.1138 35.5797 13.0149 35.7553 12.8392C35.9236 12.6708 36.1474 12.578 36.3856 12.578C36.6239 12.578 36.8479 12.6709 37.0165 12.8396C37.3645 13.1875 37.3642 13.7536 37.0165 14.1018Z" fill="black"/>
<path d="M53.5199 15.087C53.2877 15.087 47.7998 15.1202 44.9099 18.0102L39.1026 23.8175L11.356 16.8817C11.3493 16.88 11.3424 16.8793 11.3358 16.8777C11.318 16.8737 11.3002 16.8701 11.2822 16.8672C11.2687 16.8649 11.2551 16.8629 11.2417 16.8614C11.2256 16.8594 11.2095 16.858 11.1932 16.8569C11.1782 16.8558 11.1632 16.8551 11.1482 16.8547C11.1331 16.8545 11.1179 16.8546 11.1028 16.8551C11.0876 16.8556 11.0725 16.8562 11.0574 16.8572C11.0417 16.8585 11.0261 16.8603 11.0105 16.8622C10.9967 16.864 10.9829 16.8657 10.9695 16.8681C10.9519 16.8712 10.9346 16.8749 10.9171 16.8789C10.906 16.8816 10.895 16.884 10.884 16.887C10.8643 16.8922 10.8451 16.8985 10.8258 16.9051C10.8174 16.908 10.8088 16.9108 10.8003 16.914C10.7798 16.9218 10.7597 16.9303 10.7396 16.9395C10.7325 16.9427 10.7253 16.9459 10.7183 16.9494C10.6986 16.959 10.6793 16.9695 10.6603 16.9805C10.6528 16.9849 10.6452 16.9892 10.6379 16.9937C10.6207 17.0044 10.6039 17.0156 10.5873 17.0274C10.5778 17.034 10.5686 17.0408 10.5594 17.0477C10.5456 17.0584 10.5321 17.0694 10.5189 17.0808C10.5074 17.0907 10.4962 17.1009 10.4852 17.1113C10.4791 17.117 10.4726 17.1221 10.4667 17.128L7.81762 19.7768C7.81314 19.7813 7.80939 19.7863 7.80503 19.7908C7.79304 19.8032 7.78154 19.8159 7.77015 19.8291C7.75962 19.8414 7.74945 19.8537 7.73964 19.8664C7.7354 19.8719 7.73068 19.8768 7.72656 19.8824C7.72208 19.8885 7.71833 19.895 7.71397 19.9013C7.70367 19.916 7.69374 19.9309 7.6843 19.9461C7.67715 19.9576 7.67025 19.9692 7.66371 19.981C7.65524 19.9961 7.64712 20.0114 7.63961 20.0269C7.63332 20.0397 7.62726 20.0526 7.62157 20.0656C7.61527 20.0802 7.60934 20.0949 7.60377 20.1097C7.59844 20.124 7.59324 20.1385 7.58863 20.1531C7.58415 20.167 7.58004 20.1809 7.57628 20.195C7.57204 20.2106 7.56817 20.2262 7.56478 20.2419C7.56187 20.2555 7.55933 20.2691 7.55703 20.2826C7.55436 20.2987 7.55194 20.3148 7.55013 20.3311C7.54855 20.3449 7.54734 20.3588 7.54637 20.3726C7.54528 20.3885 7.54443 20.4042 7.54407 20.42C7.54383 20.4346 7.54395 20.4491 7.54431 20.4638C7.5448 20.4788 7.5454 20.4937 7.54649 20.5086C7.54758 20.5241 7.54928 20.5396 7.55109 20.555C7.55291 20.5689 7.55473 20.5827 7.55715 20.5964C7.55981 20.6126 7.56308 20.6287 7.56684 20.6448C7.56962 20.6578 7.57277 20.6706 7.57628 20.6836C7.58064 20.6998 7.58561 20.7159 7.59093 20.7319C7.59505 20.7446 7.59929 20.7571 7.60413 20.7697C7.60995 20.7851 7.61624 20.8004 7.6229 20.8156C7.62847 20.8285 7.63453 20.8414 7.6407 20.8541C7.64761 20.868 7.65499 20.8818 7.66262 20.8955C7.67013 20.9092 7.67812 20.9226 7.68636 20.9358C7.69399 20.948 7.70198 20.9599 7.71009 20.9719C7.7199 20.9859 7.73007 20.9998 7.74061 21.0134C7.74884 21.0241 7.75744 21.0346 7.76628 21.045C7.7779 21.0586 7.78977 21.0719 7.80224 21.0849C7.80745 21.0903 7.81205 21.0963 7.81738 21.1016C7.82222 21.1064 7.82767 21.1106 7.83252 21.1153C7.84426 21.1264 7.85625 21.1373 7.8686 21.148C7.88156 21.1591 7.89476 21.17 7.90808 21.1803C7.91317 21.1842 7.91777 21.1887 7.92297 21.1925L27.3606 35.5591L17.9411 44.9787L13.1919 43.3951C13.1826 43.392 13.1732 43.3902 13.1639 43.3874C13.1465 43.3822 13.1289 43.3768 13.1111 43.3727C13.0959 43.3691 13.0806 43.3664 13.0652 43.3635C13.0511 43.3608 13.0371 43.3582 13.023 43.3562C13.0052 43.3538 12.9875 43.3523 12.9698 43.3508C12.9576 43.3498 12.9456 43.3487 12.9334 43.3483C12.9147 43.3475 12.8962 43.3477 12.8775 43.348C12.8658 43.3483 12.8543 43.3484 12.8425 43.349C12.8241 43.3501 12.8058 43.3519 12.7876 43.3541C12.7755 43.3555 12.7635 43.3569 12.7515 43.3587C12.7337 43.3615 12.7161 43.365 12.6986 43.3688C12.6862 43.3715 12.6741 43.374 12.662 43.3771C12.6442 43.3817 12.6269 43.3871 12.6096 43.3927C12.5979 43.3965 12.5864 43.4 12.5749 43.4042C12.5564 43.411 12.5381 43.4187 12.5201 43.4267C12.5103 43.431 12.5007 43.435 12.491 43.4396C12.4704 43.4495 12.4506 43.4604 12.4306 43.4718C12.4251 43.4749 12.4193 43.4773 12.4139 43.4807L12.4016 43.488C12.4001 43.489 12.3985 43.4898 12.397 43.4908L8.00653 46.1251C8.00423 46.1264 8.00205 46.1277 7.99987 46.1291L7.99829 46.13C7.99587 46.1315 7.99394 46.1332 7.99151 46.1346C7.96766 46.1493 7.94417 46.1648 7.92152 46.1816C7.91426 46.1869 7.9076 46.193 7.90057 46.1986C7.88362 46.2119 7.86679 46.2252 7.8508 46.2397C7.8399 46.2495 7.8301 46.2601 7.81968 46.2703C7.80854 46.2814 7.79716 46.2922 7.7865 46.3039C7.77258 46.3193 7.75986 46.3354 7.74715 46.3515C7.74109 46.3593 7.73443 46.3665 7.72862 46.3745C7.71179 46.397 7.69641 46.4204 7.68175 46.4443C7.6803 46.4467 7.67861 46.4487 7.67715 46.4512C7.67703 46.4514 7.67691 46.4517 7.67679 46.4519C7.6447 46.5054 7.61818 46.5616 7.59747 46.62C7.58851 46.645 7.58125 46.6702 7.57471 46.6958C7.57374 46.6994 7.57241 46.7028 7.57156 46.7064C7.56575 46.7298 7.56139 46.7533 7.55739 46.7768C7.5563 46.7831 7.55473 46.7893 7.55388 46.7957C7.55085 46.8155 7.5494 46.8355 7.5477 46.8555C7.54686 46.866 7.5454 46.8766 7.54492 46.8871C7.54419 46.9022 7.54456 46.9173 7.54468 46.9324C7.54456 46.9481 7.54407 46.9638 7.54492 46.9795C7.5454 46.9896 7.54674 46.9995 7.54758 47.0095C7.54928 47.03 7.55085 47.0503 7.55376 47.0708C7.55473 47.0764 7.55606 47.0819 7.55703 47.0875C7.56102 47.1117 7.5655 47.1361 7.57156 47.1601C7.5718 47.1613 7.57229 47.1624 7.57253 47.1634C7.58367 47.2069 7.59868 47.2498 7.61624 47.2922C7.62145 47.3048 7.62605 47.3176 7.63174 47.3299C7.63332 47.3331 7.63526 47.3362 7.63671 47.3394C7.64894 47.3646 7.6619 47.3894 7.67618 47.4135C7.67655 47.414 7.67667 47.4146 7.67703 47.4151C7.67812 47.4169 7.67945 47.4183 7.68054 47.42C7.69871 47.4501 7.71905 47.4789 7.74085 47.507C7.74727 47.5152 7.75393 47.5233 7.76059 47.5313C7.77839 47.5528 7.79716 47.5733 7.81714 47.5933C7.8244 47.6007 7.83155 47.6085 7.83906 47.6156C7.86473 47.6397 7.89161 47.6627 7.92043 47.684C7.92963 47.6908 7.93944 47.6966 7.94889 47.703C7.96524 47.7143 7.9811 47.7259 7.99842 47.7362L15.8009 52.418L14.8827 53.3361C14.5169 53.7019 14.5169 54.295 14.8827 54.6607C15.0657 54.8436 15.3055 54.9351 15.5451 54.9351C15.7848 54.9351 16.0245 54.8437 16.2075 54.6607L17.1256 53.7426L21.8024 61.5368C21.8037 61.5391 21.8051 61.5413 21.8064 61.5435L21.8074 61.5451C21.8079 61.5459 21.8086 61.5466 21.8091 61.5476C21.828 61.5788 21.849 61.6087 21.8718 61.6378C21.8777 61.6456 21.8839 61.6529 21.8901 61.6605C21.9084 61.6826 21.9279 61.7039 21.9484 61.7245C21.9553 61.7314 21.9619 61.7386 21.9689 61.7452C21.9948 61.7694 22.0219 61.7928 22.0511 61.8144C22.0596 61.8207 22.0686 61.8259 22.0773 61.8319C22.0942 61.8437 22.1108 61.8557 22.1286 61.8664C22.1324 61.8687 22.1365 61.8702 22.1404 61.8724C22.1633 61.8857 22.1869 61.8969 22.2106 61.9082C22.2253 61.9151 22.2396 61.9229 22.2543 61.9289C22.2752 61.9374 22.2966 61.9439 22.3179 61.951C22.3359 61.9569 22.3539 61.9638 22.3722 61.9686C22.3906 61.9735 22.4094 61.9763 22.428 61.98C22.449 61.9841 22.47 61.9895 22.4912 61.9921C22.5165 61.9954 22.5423 61.996 22.5681 61.9972C22.582 61.9978 22.5959 62 22.6097 62C22.61 62 22.6103 61.9999 22.6106 61.9999C22.6108 61.9999 22.6112 62 22.6114 62C22.6254 62 22.6393 61.9978 22.6531 61.9972C22.6788 61.996 22.7046 61.9954 22.7299 61.9921C22.7512 61.9895 22.7722 61.9843 22.7934 61.9799C22.812 61.9763 22.8306 61.9735 22.8489 61.9688C22.8674 61.9639 22.8855 61.9569 22.9038 61.9507C22.9248 61.9438 22.9459 61.9374 22.9666 61.9289C22.9817 61.9227 22.9964 61.9149 23.0114 61.9077C23.0347 61.8967 23.0579 61.8856 23.0802 61.8725C23.0843 61.8702 23.0884 61.8686 23.0925 61.8663C23.1111 61.8552 23.1284 61.8427 23.1458 61.8305C23.1537 61.825 23.1619 61.8203 23.1696 61.8145C23.199 61.7927 23.2262 61.7693 23.2524 61.7447C23.2592 61.7383 23.2656 61.7314 23.2721 61.7248C23.2928 61.7039 23.3126 61.6825 23.3312 61.66C23.3373 61.6526 23.3434 61.6452 23.3493 61.6376C23.3718 61.6086 23.393 61.5788 23.4119 61.5476C23.4125 61.5466 23.4132 61.5458 23.4138 61.5447L23.4149 61.5428C23.4161 61.5407 23.4174 61.5386 23.4186 61.5366L26.063 57.1289C26.0688 57.1192 26.0734 57.1091 26.0787 57.0993C26.0867 57.0849 26.0948 57.0705 26.102 57.0556C26.109 57.0411 26.1153 57.0263 26.1215 57.0114C26.1269 56.9983 26.1327 56.9854 26.1376 56.9722C26.1435 56.9561 26.1487 56.9398 26.1537 56.9235C26.1577 56.9108 26.1617 56.8982 26.1652 56.8852C26.1694 56.8689 26.1729 56.8524 26.1764 56.8359C26.1792 56.8225 26.182 56.8089 26.1842 56.7953C26.1866 56.7796 26.1884 56.764 26.1901 56.7483C26.1917 56.7334 26.1933 56.7184 26.1942 56.7034C26.1951 56.6888 26.1953 56.6743 26.1955 56.6598C26.1957 56.6443 26.1958 56.628 26.1952 56.6118C26.1946 56.598 26.1934 56.5842 26.1923 56.5705C26.191 56.554 26.1895 56.5375 26.1873 56.5209C26.1853 56.5065 26.1825 56.4922 26.18 56.4779C26.177 56.4624 26.1744 56.447 26.1706 56.4315C26.1668 56.4154 26.162 56.3995 26.1572 56.3835C26.1542 56.3728 26.1519 56.362 26.1482 56.3513L24.5646 51.602L51.529 24.6375C51.5304 24.6361 51.5319 24.6349 51.5334 24.6335C54.4233 21.7436 54.4565 16.2559 54.4565 16.0236C54.4566 15.5063 54.0373 15.087 53.5199 15.087ZM9.91122 20.3325L11.4161 18.8278L37.5577 25.3622L28.7003 34.2196L9.91122 20.3325ZM50.2117 23.3055C50.2107 23.3066 50.2095 23.3074 50.2084 23.3085L22.8304 50.6867C22.8273 50.6898 22.8248 50.6932 22.8217 50.6964C22.8088 50.7096 22.7968 50.7232 22.7847 50.7372C22.7758 50.7475 22.7668 50.7576 22.7583 50.7682C22.749 50.7799 22.7405 50.7921 22.7318 50.8044C22.722 50.8179 22.7123 50.8314 22.7033 50.8453C22.6972 50.8549 22.6917 50.8649 22.6859 50.8747C22.676 50.8916 22.6663 50.9083 22.6574 50.9255C22.6532 50.9339 22.6496 50.9428 22.6453 50.9515C22.6366 50.9702 22.628 50.9888 22.6205 51.0078C22.6168 51.0175 22.6137 51.0274 22.6102 51.0372C22.6039 51.0554 22.5973 51.0736 22.5921 51.092C22.5884 51.1051 22.5856 51.1184 22.5824 51.1316C22.5787 51.147 22.5746 51.1623 22.5717 51.178C22.5687 51.1947 22.5668 51.2116 22.5646 51.2287C22.5629 51.2412 22.5609 51.2534 22.5597 51.266C22.5582 51.2846 22.5577 51.3033 22.5571 51.3221C22.5568 51.3334 22.5561 51.3447 22.5561 51.356C22.5562 51.3739 22.5575 51.3917 22.5586 51.4096C22.5595 51.4224 22.56 51.4353 22.5614 51.4481C22.563 51.4634 22.5655 51.4787 22.568 51.494C22.5704 51.5099 22.5728 51.5256 22.5762 51.5414C22.5787 51.5538 22.582 51.5662 22.5852 51.5785C22.5898 51.5971 22.5947 51.6155 22.6005 51.6338C22.6017 51.6376 22.6025 51.6416 22.6038 51.6456L24.2342 56.5355L22.6099 59.2431L18.4904 52.3776L22.389 48.479C22.7552 48.1129 22.7552 47.5198 22.3893 47.154C22.0234 46.7882 21.4304 46.7882 21.0646 47.154L17.1661 51.0525L10.3007 46.933L13.0082 45.3085L17.8981 46.9391C17.9011 46.9401 17.9043 46.9403 17.9074 46.9414C17.9491 46.9548 17.9915 46.9652 18.0342 46.9726C18.0447 46.9744 18.055 46.9756 18.0654 46.9771C18.1041 46.9824 18.1428 46.9859 18.1817 46.9864C18.1859 46.9865 18.1902 46.9875 18.1945 46.9875C18.1993 46.9875 18.204 46.9864 18.2087 46.9864C18.2458 46.9858 18.2827 46.9827 18.3196 46.9777C18.3312 46.9761 18.3427 46.9747 18.3543 46.9727C18.3941 46.9658 18.4336 46.9566 18.4724 46.9445C18.4803 46.942 18.4879 46.9391 18.4958 46.9363C18.5312 46.9243 18.5658 46.9101 18.5998 46.8938C18.6061 46.8907 18.6128 46.8881 18.6191 46.8848C18.6558 46.8662 18.6913 46.8447 18.7256 46.8209C18.7346 46.8147 18.7433 46.8079 18.7522 46.8014C18.7791 46.7814 18.8048 46.76 18.8299 46.7367C18.8375 46.7296 18.8458 46.723 18.8532 46.7156C18.8543 46.7145 18.8555 46.7137 18.8566 46.7126L46.2346 19.3346C47.9279 17.6411 50.9643 17.1554 52.5286 17.0161C52.3912 18.578 51.9083 21.6057 50.2117 23.3055Z" fill="black"/>
<path d="M52.6853 58.3483C52.6843 58.333 52.6829 58.3178 52.6812 58.3025C52.6795 58.2883 52.6774 58.2743 52.675 58.2601C52.6721 58.2423 52.6686 58.2248 52.6646 58.2072C52.663 58.2004 52.6623 58.1936 52.6606 58.1867L46.6559 34.165C46.5304 33.663 46.0216 33.358 45.52 33.4835C45.0181 33.6089 44.7129 34.1174 44.8384 34.6193L50.7144 58.1266L49.2096 59.6313L37.0953 43.2407C36.7878 42.8246 36.2012 42.7368 35.7853 43.0442C35.3692 43.3516 35.2813 43.9382 35.5888 44.3542L48.3499 61.6195C48.353 61.6239 48.3569 61.6276 48.3603 61.632C48.3748 61.6509 48.3903 61.6692 48.4065 61.6872C48.4151 61.6968 48.4234 61.7065 48.4322 61.7157C48.4352 61.7188 48.4378 61.7221 48.4408 61.7251C48.4543 61.7386 48.4685 61.7504 48.4827 61.7629C48.4917 61.7709 48.5003 61.7796 48.5096 61.7872C48.5358 61.8087 48.5628 61.8285 48.5905 61.8467C48.5981 61.8517 48.6062 61.8559 48.614 61.8606C48.6354 61.8738 48.6572 61.8865 48.6796 61.8979C48.6898 61.903 48.7001 61.9075 48.7104 61.9122C48.7312 61.9219 48.7523 61.931 48.7736 61.939C48.7845 61.9431 48.7954 61.9467 48.8064 61.9505C48.828 61.9576 48.8498 61.9639 48.8715 61.9695C48.8826 61.9723 48.8935 61.9752 48.9046 61.9776C48.9277 61.9826 48.9511 61.9864 48.9745 61.9897C48.9844 61.9912 48.9942 61.993 49.0041 61.9939C49.0365 61.9975 49.0689 61.9994 49.1014 61.9995C49.1024 61.9995 49.1032 61.9996 49.1042 61.9996C49.1053 61.9996 49.1064 61.9994 49.1073 61.9994C49.149 61.9993 49.1905 61.9954 49.2318 61.9897C49.2417 61.9884 49.2514 61.9872 49.2613 61.9855C49.3024 61.9786 49.3432 61.969 49.3833 61.9564C49.391 61.954 49.3988 61.9509 49.4064 61.9483C49.4457 61.9348 49.4843 61.9191 49.5218 61.9005C49.5253 61.8986 49.5287 61.8973 49.5324 61.8956C49.5726 61.8749 49.6113 61.8503 49.6489 61.8233C49.6525 61.8207 49.6565 61.819 49.6602 61.8163C49.6656 61.8123 49.6703 61.8078 49.6755 61.8038C49.6887 61.7936 49.7017 61.7829 49.7144 61.7719C49.7268 61.7612 49.7389 61.7503 49.7507 61.739C49.7557 61.7343 49.761 61.7302 49.7658 61.7254L52.4146 59.0765C52.4198 59.0712 52.4244 59.0654 52.4297 59.0601C52.4414 59.0477 52.4527 59.0352 52.4637 59.0223C52.4735 59.0103 52.4832 58.9984 52.4925 58.9863C52.5011 58.9752 52.5093 58.9639 52.5173 58.9524C52.5276 58.938 52.5372 58.9236 52.5465 58.9088C52.5528 58.8985 52.5589 58.8882 52.5648 58.8778C52.5741 58.8616 52.583 58.8454 52.5911 58.8288C52.5962 58.8184 52.601 58.8078 52.6057 58.7972C52.6131 58.7806 52.6205 58.7639 52.6268 58.7469C52.6314 58.7349 52.6354 58.7227 52.6395 58.7106C52.6448 58.6949 52.6499 58.6791 52.6543 58.6631C52.6583 58.6487 52.6616 58.6342 52.6649 58.6197C52.6681 58.6055 52.6712 58.5914 52.6737 58.5772C52.6766 58.5607 52.6787 58.5443 52.6808 58.5277C52.6824 58.5147 52.6838 58.5016 52.6849 58.4885C52.6863 58.4714 52.687 58.4542 52.6873 58.437C52.6877 58.4236 52.6879 58.4103 52.6877 58.3968C52.6873 58.3807 52.6865 58.3645 52.6853 58.3483Z" fill="black"/>
</svg>
