<svg width="62" height="62" viewBox="0 0 62 62" fill="none" xmlns="http://www.w3.org/2000/svg">
<g clip-path="url(#clip0)">
<path d="M16.9933 24.4136H14.2119C13.5431 24.4136 13.001 23.8715 13.001 23.2027C13.001 22.5338 13.5431 21.9917 14.2119 21.9917H14.3377C14.3529 21.9525 14.3699 21.9137 14.3893 21.8754C14.6935 21.2798 15.4224 21.0428 16.0184 21.3465L17.5429 22.1237C18.042 22.3782 18.3012 22.9411 18.1706 23.4855C18.0401 24.03 17.5529 24.4136 16.9933 24.4136Z" fill="black"/>
<path d="M29.4944 24.4136H26.713C26.1534 24.4136 25.6662 24.0296 25.5357 23.4856C25.4046 22.9411 25.6643 22.3782 26.1629 22.1237L27.6879 21.3466C28.2835 21.0424 29.0129 21.2794 29.3165 21.8754C29.3359 21.9137 29.3534 21.9525 29.3686 21.9918H29.4944C30.1632 21.9918 30.7053 22.5339 30.7053 23.2027C30.7053 23.8716 30.1632 24.4136 29.4944 24.4136Z" fill="black"/>
<path d="M21.9272 31.587C21.1723 31.587 20.4173 31.2994 19.8421 30.7247C19.3691 30.2521 19.3691 29.4854 19.8417 29.0124C20.3147 28.5393 21.0814 28.5393 21.5545 29.0119C21.7602 29.2176 22.0947 29.2176 22.3004 29.0119C22.7735 28.5393 23.5402 28.5393 24.0132 29.0124C24.4858 29.4854 24.4858 30.2521 24.0128 30.7247C23.438 31.2994 22.6826 31.587 21.9272 31.587Z" fill="black"/>
<path d="M39.583 15.22H37.4322C37.2694 6.7997 30.369 0 21.9104 0C13.4523 0 6.55183 6.7997 6.38911 15.22H4.23828C3.56943 15.22 3.02734 15.7621 3.02734 16.4309C3.02734 17.0998 3.56943 17.6418 4.23828 17.6418H5.55754C4.91092 18.5529 4.52399 19.6588 4.50743 20.8499C4.37404 30.5152 4.37451 30.5336 4.37451 30.5535C4.39343 33.4025 5.51402 35.8348 7.61566 37.5883C7.70837 37.6658 7.80345 37.7415 7.89948 37.8158C5.98752 38.2987 4.56845 40.0333 4.56845 42.0933V60.7716C4.56845 61.4404 5.11053 61.9825 5.77939 61.9825H38.0414C38.7103 61.9825 39.2523 61.4404 39.2523 60.7716V42.0928C39.2523 40.0371 37.8385 38.3049 35.9322 37.8186C36.0188 37.7514 36.1039 37.6829 36.1876 37.6133C38.2987 35.8589 39.4255 33.4214 39.4463 30.5672C39.4468 30.544 39.4468 30.5241 39.3138 20.8844C39.2973 19.6792 38.9037 18.5609 38.2472 17.6418H39.583C40.2514 17.6418 40.7939 17.0998 40.7939 16.4309C40.7939 15.7621 40.2514 15.22 39.583 15.22ZM32.3609 25.012C32.1206 30.2947 29.3454 33.3812 23.898 34.4375C23.2585 34.5614 22.8314 35.1697 22.9321 35.813L23.224 37.6819H20.5978L20.8896 35.813C20.9899 35.1697 20.5632 34.5614 19.9237 34.4375C14.2172 33.3311 11.4434 29.9972 11.4434 24.2443V17.6418H32.3609V25.012ZM18.3221 36.558L18.1811 37.4601C16.719 37.1015 14.4277 36.1881 12.9263 33.8831C14.3496 35.1006 16.1528 35.998 18.3221 36.558ZM16.0374 40.1085H19.2076L16.0374 42.4391V40.1085ZM27.7839 40.1085V42.4391L24.6137 40.1085H27.7839ZM25.6359 37.4293L25.4997 36.558C27.5796 36.0211 29.3231 35.1735 30.7181 34.0311C29.2295 36.1578 27.0569 37.0556 25.6359 37.4293ZM21.9104 2.42188C29.0336 2.42188 34.8471 8.13551 35.0098 15.22H8.81146C8.97418 8.13551 14.7876 2.42188 21.9104 2.42188ZM6.79639 30.5473C6.79922 30.3392 6.84605 26.9178 6.92931 20.8835C6.94823 19.5226 7.80676 18.3552 9.00446 17.875V28.1562C9.00446 32.9375 10.8852 35.7804 12.8705 37.4487C9.61418 36.7699 6.82855 34.5604 6.79639 30.5473ZM6.99033 59.5606V46.8235H9.16812V59.5606H6.99033ZM36.8305 59.5606H34.6532V46.8235H36.8305V59.5606ZM36.8305 42.0928V44.4017H33.4422C32.7734 44.4017 32.2313 44.9438 32.2313 45.6126V59.5606H11.59V45.6126C11.59 44.9438 11.0479 44.4017 10.3791 44.4017H6.99033V42.0928C6.99033 40.9964 7.88292 40.1038 8.97986 40.1038H13.6155V44.8321C13.6155 45.2886 13.8723 45.7063 14.2796 45.9125C14.6869 46.1187 15.1755 46.0785 15.5435 45.808L21.9104 41.1274L28.2773 45.808C28.4892 45.9636 28.7413 46.0431 28.9949 46.0431C29.1812 46.0431 29.3685 46 29.5412 45.9125C29.9489 45.7063 30.2053 45.2886 30.2053 44.8321V40.1038H34.8414C35.9384 40.1038 36.8305 40.9964 36.8305 42.0928ZM30.7843 37.4937C32.8169 35.8324 34.7828 32.9791 34.7828 28.1562L34.7998 17.8793C36.0079 18.3651 36.8735 19.5439 36.8924 20.9175C36.9752 26.9325 37.022 30.3453 37.0249 30.5563C36.9904 34.6461 34.1134 36.8603 30.7843 37.4937Z" fill="black"/>
<path d="M58.3886 20.2123L45.2371 13.0247C44.862 12.8194 44.4065 12.8275 44.039 13.046C43.6709 13.2641 43.4453 13.66 43.4453 14.0876V60.7891C43.4453 61.4579 43.9879 62 44.6562 62H48.6386C49.307 62 49.8496 61.4579 49.8496 60.7891V45.4745C49.8496 44.8057 49.307 44.2636 48.6386 44.2636C47.9698 44.2636 47.4277 44.8057 47.4277 45.4745V59.5782H45.8672V29.1813L47.4277 28.3284V33.8613C47.4277 34.5302 47.9698 35.0723 48.6386 35.0723C49.307 35.0723 49.8496 34.5302 49.8496 33.8613V27.0049L58.3886 22.338C58.7774 22.1257 59.0191 21.7179 59.0191 21.2752C59.0186 20.8324 58.7769 20.4247 58.3886 20.2123ZM45.8672 26.4212V16.1292L55.2827 21.2752L45.8672 26.4212Z" fill="black"/>
<path d="M48.6387 40.6231C48.5602 40.6231 48.4802 40.6146 48.4026 40.599C48.3251 40.5834 48.2489 40.5602 48.1751 40.5299C48.1023 40.4997 48.0323 40.4623 47.967 40.4188C47.9003 40.3753 47.8383 40.3242 47.7825 40.2684C47.7272 40.2126 47.6761 40.1511 47.6311 40.0844C47.5876 40.0191 47.5502 39.9486 47.52 39.8748C47.4897 39.8024 47.4665 39.7258 47.4509 39.6487C47.4353 39.5711 47.4277 39.4912 47.4277 39.4122C47.4277 39.3337 47.4353 39.2537 47.4509 39.1752C47.4665 39.0986 47.4897 39.0224 47.52 38.9486C47.5502 38.8758 47.5876 38.8058 47.6311 38.7405C47.6761 38.6738 47.7272 38.6118 47.7825 38.556C47.8383 38.5007 47.9003 38.4496 47.967 38.4047C48.0323 38.3611 48.1023 38.3247 48.1751 38.2944C48.2489 38.2642 48.3251 38.24 48.4026 38.2259C48.5592 38.1942 48.7186 38.1942 48.8752 38.2259C48.9528 38.24 49.0289 38.2642 49.1013 38.2944C49.1751 38.3247 49.2456 38.3611 49.3108 38.4047C49.3775 38.4496 49.4395 38.5007 49.4948 38.556C49.5507 38.6118 49.6017 38.6738 49.6453 38.7405C49.6888 38.8058 49.7262 38.8758 49.7564 38.9486C49.7867 39.0224 49.8108 39.0986 49.8255 39.1752C49.8411 39.2537 49.8496 39.3337 49.8496 39.4122C49.8496 39.731 49.72 40.0432 49.4948 40.2684C49.439 40.3242 49.3775 40.3753 49.3108 40.4188C49.2456 40.4623 49.1751 40.4997 49.1013 40.5299C49.0289 40.5602 48.9523 40.5834 48.8747 40.599C48.7976 40.6146 48.7177 40.6231 48.6387 40.6231Z" fill="black"/>
</g>
<defs>
<clipPath id="clip0">
<rect width="62" height="62" fill="white"/>
</clipPath>
</defs>
</svg>
