<svg width="62" height="62" viewBox="0 0 62 62" fill="none" xmlns="http://www.w3.org/2000/svg">
<path d="M49.6622 27.4235H49.1059L47.4044 10.1974C47.3779 8.90181 46.3188 7.85643 45.0209 7.85643H38.7708V2.39066C38.7708 1.07234 37.7013 0 36.3863 0H25.4027C24.0882 0 23.0187 1.07234 23.0187 2.39066V7.85643H16.7686C15.4707 7.85643 14.4116 8.90181 14.3846 10.1969L13.2267 21.9251C13.1775 22.4241 13.5417 22.8687 14.0412 22.9179C14.5412 22.9662 14.9849 22.6024 15.0341 22.1034L15.3605 18.7984C17.0307 24.1686 21.6588 28.239 27.3208 29.0795V31.0265C27.3208 33.4933 29.3208 35.5003 31.7791 35.5003H32.202C33.4517 35.5003 34.4691 34.4805 34.4691 33.227V29.0795C40.1308 28.2394 44.7588 24.1686 46.429 18.7989L49.5117 50.0131C49.84 53.3333 48.4105 56.573 45.7815 58.4679C44.2243 59.5904 42.3918 60.1836 40.4822 60.1836H21.3073C19.3977 60.1836 17.5652 59.5904 16.008 58.4679C13.379 56.573 11.9495 53.3333 12.2778 50.0131L14.6665 25.8261C14.7157 25.327 14.351 24.8824 13.852 24.8332C13.353 24.785 12.9083 25.1487 12.8586 25.6478L12.6832 27.424H12.4055C8.43636 27.424 5.20703 30.6656 5.20703 34.6503V49.4493C5.20703 51.1285 6.56886 52.4941 8.24242 52.4941H10.5214C10.9301 55.468 12.5072 58.1837 14.9456 59.9414C16.8141 61.2881 19.0141 62 21.3073 62H40.4822C42.7754 62 44.975 61.2881 46.8434 59.9414C49.2818 58.1837 50.8594 55.468 51.2681 52.4941H53.8248C55.4988 52.4941 56.8601 51.1281 56.8601 49.4493V34.6498C56.8601 30.6656 53.6313 27.4235 49.6622 27.4235ZM24.8351 2.39066C24.8351 2.07941 25.0948 1.81641 25.4027 1.81641H36.3863C36.6942 1.81641 36.9544 2.07941 36.9544 2.39066V7.85643H35.5637V4.2099C35.5637 3.66451 35.1205 3.22128 34.5756 3.22128H27.2135C26.6685 3.22128 26.2253 3.66451 26.2253 4.2099V7.85643H24.8351V2.39066ZM33.7473 7.85643H28.0417V5.03769H33.7473V7.85643ZM32.6523 33.227C32.6523 33.4749 32.446 33.6839 32.2015 33.6839H31.7786C30.3217 33.6839 29.1368 32.4919 29.1368 31.0265V29.2356C29.2555 29.2385 29.3747 29.2404 29.4939 29.2404H32.2951C32.4148 29.2404 32.5335 29.2385 32.6523 29.2356V33.227ZM45.2815 14.3756C45.2815 21.5703 39.4557 27.4235 32.2951 27.4235H29.4939C22.4629 27.4235 16.7199 21.7803 16.5142 14.7649H34.2317C34.7331 14.7649 35.1399 14.3586 35.1399 13.8567C35.1399 13.3553 34.7331 12.9485 34.2317 12.9485H16.508V9.75703C16.508 9.7523 16.5071 9.7471 16.5071 9.74237C16.5861 9.69933 16.6745 9.67236 16.7686 9.67236H45.0209C45.1192 9.67236 45.211 9.70122 45.2924 9.74805C45.2862 9.79156 45.2815 9.83556 45.2815 9.88097V14.3756ZM7.02344 49.4493V34.6498C7.02344 31.667 9.43774 29.2399 12.4055 29.2399H12.5039L12.0318 34.0198H9.54512C9.04372 34.0198 8.63692 34.4266 8.63692 34.928C8.63692 35.4294 9.04372 35.8362 9.54512 35.8362H11.8525L10.4699 49.8343C10.442 50.1163 10.4264 50.3977 10.4193 50.6777H8.24242C7.57025 50.6777 7.02344 50.1267 7.02344 49.4493ZM55.0437 49.4493C55.0437 50.1267 54.4969 50.6777 53.8248 50.6777H51.3702C51.3631 50.3972 51.3471 50.1163 51.3196 49.8343L49.937 35.8362H52.5225C53.0239 35.8362 53.4307 35.4294 53.4307 34.928C53.4307 34.4266 53.0239 34.0198 52.5225 34.0198H49.7577L49.2856 29.2399H49.6622C52.6299 29.2399 55.0442 31.667 55.0442 34.6498V49.4493H55.0437Z" fill="black"/>
<path d="M18.6152 49.4734V50.1016C18.6152 53.8721 21.671 56.9396 25.4268 56.9396H36.363C40.1193 56.9396 43.175 53.8721 43.175 50.1016V49.4734C43.175 48.2199 42.158 47.2001 40.9078 47.2001H30.9365C30.4346 47.2001 30.0283 47.6069 30.0283 48.1083C30.0283 48.6102 30.4346 49.0165 30.9365 49.0165H40.9078C41.1519 49.0165 41.3586 49.226 41.3586 49.4734V50.1016C41.3586 52.8707 39.1175 55.1232 36.363 55.1232H25.4268C22.6723 55.1232 20.4316 52.8707 20.4316 50.1016V49.4734C20.4316 49.2256 20.6379 49.0165 20.8824 49.0165H27.2299C27.7318 49.0165 28.1381 48.6102 28.1381 48.1083C28.1381 47.6069 27.7318 47.2001 27.2299 47.2001H20.8824C19.6322 47.2001 18.6152 48.2199 18.6152 49.4734Z" fill="black"/>
<path d="M25.2705 43.3913H36.5185C37.0199 43.3913 37.4267 42.985 37.4267 42.4831C37.4267 41.9817 37.0199 41.5749 36.5185 41.5749H25.2705C24.7686 41.5749 24.3623 41.9817 24.3623 42.4831C24.3623 42.985 24.7686 43.3913 25.2705 43.3913Z" fill="black"/>
<path d="M25.2705 39.249H36.5185C37.0199 39.249 37.4267 38.8427 37.4267 38.3408C37.4267 37.8394 37.0199 37.4326 36.5185 37.4326H25.2705C24.7686 37.4326 24.3623 37.8394 24.3623 38.3408C24.3623 38.8427 24.7686 39.249 25.2705 39.249Z" fill="black"/>
</svg>
