<svg width="192" height="17" viewBox="0 0 192 17" fill="none" xmlns="http://www.w3.org/2000/svg">
<path opacity="0.8" d="M172.085 3.784C172.853 4.104 173.461 3.944 173.909 3.304C173.781 3.24 173.621 3.24 173.429 3.304C173.237 3.304 173.077 3.304 172.949 3.304C173.269 2.984 173.141 2.824 172.565 2.824C171.925 2.824 171.573 2.952 171.509 3.208C171.445 3.208 171.381 3.176 171.317 3.112C171.253 2.984 171.157 2.952 171.029 3.016C170.581 3.144 170.357 3.4 170.357 3.784C170.101 3.72 169.781 3.688 169.397 3.688C169.077 3.688 168.821 3.688 168.629 3.688C168.565 3.56 168.597 3.496 168.725 3.496C168.853 3.432 168.885 3.336 168.821 3.208C168.629 3.144 168.181 3.112 167.477 3.112C166.773 3.048 166.261 2.952 165.941 2.824C165.557 3.08 165.301 3.336 165.173 3.592C165.109 3.528 165.077 3.432 165.077 3.304C165.077 3.112 165.045 2.952 164.981 2.824C164.789 3.016 164.597 3.144 164.405 3.208C164.277 3.208 164.021 3.176 163.637 3.112C163.317 3.048 162.997 3.016 162.677 3.016C163.189 2.696 163.957 2.568 164.981 2.632C166.005 2.632 166.773 2.6 167.285 2.536C167.285 2.6 167.349 2.632 167.477 2.632C167.605 2.632 167.669 2.664 167.669 2.728C168.373 2.664 169.429 2.632 170.837 2.632C172.245 2.632 173.333 2.6 174.101 2.536C174.101 2.6 174.133 2.632 174.197 2.632L174.389 2.728C175.605 2.536 177.301 2.472 179.477 2.536C181.653 2.6 183.317 2.6 184.469 2.536C174.805 2.216 162.997 2.216 149.045 2.536C146.229 2.536 144.245 2.6 143.093 2.728C142.901 2.792 142.581 2.792 142.133 2.728C141.749 2.664 141.461 2.632 141.269 2.632C140.629 2.632 139.637 2.728 138.293 2.92C136.949 3.048 135.957 3.112 135.317 3.112C135.189 3.112 134.997 3.08 134.741 3.016C134.549 2.888 134.389 2.824 134.261 2.824C131.445 2.952 127.541 3.208 122.549 3.592C117.557 3.912 114.165 4.104 112.373 4.168C112.117 3.976 111.765 3.944 111.317 4.072C110.869 4.136 110.581 4.104 110.453 3.976C109.301 4.168 107.413 4.328 104.789 4.456C102.165 4.584 100.437 4.712 99.6046 4.84C98.9006 4.904 97.7806 4.936 96.2446 4.936C94.7726 4.936 93.6206 4.968 92.7886 5.032C92.6606 5.032 92.4366 5.096 92.1166 5.224C91.8606 5.352 91.6366 5.416 91.4446 5.416C89.3966 5.608 86.6766 5.768 83.2846 5.896C79.8926 5.96 77.4286 6.056 75.8926 6.184C75.5086 6.184 74.3566 6.312 72.4366 6.568C70.5166 6.824 69.0446 6.92 68.0206 6.856C66.9966 7.048 65.4606 7.208 63.4126 7.336C61.4286 7.464 59.9246 7.656 58.9006 7.912C58.8366 7.912 58.7726 7.912 58.7086 7.912L58.6126 7.816C58.5486 7.88 58.5486 7.944 58.6126 8.008C58.7406 8.008 58.8366 7.976 58.9006 7.912C59.2206 8.104 59.7006 8.104 60.3406 7.912C60.9806 7.72 61.4286 7.752 61.6846 8.008C63.8606 7.624 66.9326 7.336 70.9006 7.144C74.8686 6.888 77.5566 6.664 78.9646 6.472V6.568C78.9006 6.632 78.8686 6.696 78.8686 6.76C79.0606 6.76 79.1246 6.664 79.0606 6.472C79.6366 6.408 80.3086 6.376 81.0766 6.376C81.8446 6.312 82.5486 6.28 83.1886 6.28C83.8286 6.216 84.4686 6.12 85.1086 5.992C85.6206 6.184 86.5166 6.184 87.7966 5.992C89.1406 5.736 90.0366 5.704 90.4846 5.896C91.1246 5.768 91.4766 5.768 91.5406 5.896C91.7326 5.64 91.9246 5.512 92.1166 5.512C92.3086 5.448 92.5326 5.448 92.7886 5.512C93.1086 5.512 93.3646 5.512 93.5566 5.512C93.4286 6.152 93.1406 6.376 92.6926 6.184V5.608C92.5006 5.608 92.4046 5.704 92.4046 5.896C92.4046 6.024 92.3726 6.12 92.3086 6.184C91.6686 6.44 90.4206 6.408 88.5646 6.088C88.6286 6.28 88.7566 6.44 88.9486 6.568C89.2046 6.632 89.3646 6.728 89.4286 6.856C90.1966 6.792 91.7326 6.664 94.0366 6.472C96.4046 6.28 98.1326 6.216 99.2206 6.28L99.4126 6.184C99.6046 6.184 99.6686 6.12 99.6046 5.992C101.333 6.056 103.765 5.992 106.901 5.8C110.101 5.608 112.053 5.512 112.757 5.512C112.757 5.576 112.789 5.672 112.853 5.8C112.917 5.928 112.917 6.056 112.853 6.184C112.661 6.248 112.277 6.216 111.701 6.088C111.125 5.96 110.741 6.088 110.549 6.472C110.549 6.344 110.549 6.248 110.549 6.184C110.613 6.12 110.645 6.056 110.645 5.992C109.877 6.376 109.333 6.472 109.013 6.28C109.077 6.344 109.109 6.312 109.109 6.184H109.397C109.397 6.12 109.333 6.088 109.205 6.088C109.141 6.088 109.109 6.12 109.109 6.184L109.013 6.28C108.885 6.216 108.789 6.248 108.725 6.376C108.725 6.504 108.661 6.568 108.533 6.568C108.661 6.312 108.725 6.184 108.725 6.184C108.469 6.12 108.277 6.184 108.149 6.376C108.085 6.504 108.021 6.568 107.957 6.568C107.637 6.12 106.901 6.056 105.749 6.376C104.661 6.632 103.957 6.664 103.637 6.472C103.573 6.472 103.541 6.568 103.541 6.76C103.477 6.696 103.317 6.696 103.061 6.76C102.805 6.76 102.613 6.76 102.485 6.76C102.485 6.696 102.517 6.632 102.581 6.568L102.677 6.472C102.421 6.472 102.165 6.664 101.909 7.048C101.525 6.856 101.205 6.792 100.949 6.856C101.013 6.664 101.173 6.6 101.429 6.664C101.685 6.728 101.845 6.696 101.909 6.568C101.461 6.376 101.077 6.44 100.757 6.76C100.437 7.016 100.085 7.112 99.7006 7.048C99.7646 6.856 99.7646 6.728 99.7006 6.664C99.6366 6.6 99.5406 6.6 99.4126 6.664C99.2846 6.664 99.2206 6.6 99.2206 6.472C99.0286 6.536 98.8686 6.728 98.7406 7.048C98.6126 7.048 98.3886 7.08 98.0686 7.144C97.7486 7.144 97.4606 7.144 97.2046 7.144C97.0126 7.08 96.8526 6.952 96.7246 6.76C96.4686 7.08 96.0846 7.208 95.5726 7.144C95.0606 7.08 94.7086 7.176 94.5166 7.432C94.2606 7.304 94.1326 7.112 94.1326 6.856C94.0046 6.984 93.7166 6.984 93.2686 6.856C93.2686 6.984 93.3006 7.08 93.3646 7.144C93.4926 7.208 93.5246 7.304 93.4606 7.432C92.9486 7.432 92.3086 7.528 91.5406 7.72C91.3486 7.592 91.3486 7.432 91.5406 7.24C91.4126 7.112 91.2526 7.048 91.0606 7.048C90.8686 7.048 90.7406 7.048 90.6766 7.048C90.6126 6.984 90.5806 7.048 90.5806 7.24C90.5806 7.432 90.5806 7.56 90.5806 7.624C90.1966 7.112 89.7486 7.048 89.2366 7.432C89.0446 7.432 88.9166 7.4 88.8526 7.336C88.7246 7.336 88.6606 7.432 88.6606 7.624C88.7246 7.816 88.6926 7.912 88.5646 7.912C88.5006 7.912 88.4366 7.912 88.3726 7.912L88.2766 7.816C88.3406 7.752 88.4046 7.688 88.4686 7.624C88.5326 7.56 88.5646 7.496 88.5646 7.432C88.5646 7.368 88.5006 7.336 88.3726 7.336C88.2446 7.336 88.1806 7.304 88.1806 7.24C87.9886 7.24 87.9566 7.4 88.0846 7.72C88.1486 7.848 88.2126 7.88 88.2766 7.816C86.9326 8.008 84.9806 8.168 82.4206 8.296C82.3566 8.168 82.3566 8.072 82.4206 8.008C82.5486 7.944 82.6126 7.88 82.6126 7.816C82.2926 7.752 82.0686 7.912 81.9406 8.296C81.8126 8.232 81.7486 8.136 81.7486 8.008C81.8126 7.88 81.8126 7.784 81.7486 7.72C81.6206 7.72 81.5246 7.848 81.4606 8.104C81.3966 8.232 81.3326 8.328 81.2686 8.392C81.2686 8.392 81.2046 8.392 81.0766 8.392C81.1406 8.328 81.1726 8.136 81.1726 7.816C80.9806 7.752 80.8846 7.848 80.8846 8.104C80.8206 8.296 80.7246 8.392 80.5966 8.392C80.7246 8.2 80.7246 8.104 80.5966 8.104C80.4686 8.04 80.2766 8.04 80.0206 8.104C79.8286 8.104 79.7006 8.072 79.6366 8.008C79.6366 8.264 79.7326 8.36 79.9246 8.296C80.1806 8.232 80.3086 8.232 80.3086 8.296C80.3726 8.424 80.3406 8.52 80.2126 8.584C80.0846 8.584 79.9246 8.552 79.7326 8.488C79.6046 8.424 79.5406 8.456 79.5406 8.584C79.4766 8.584 79.4446 8.456 79.4446 8.2C79.2526 8.2 79.0926 8.136 78.9646 8.008C78.7086 8.2 78.6446 8.392 78.7726 8.584C78.5166 8.52 77.9726 8.584 77.1406 8.776C76.3726 8.904 75.9566 8.808 75.8926 8.488V8.2C75.4446 8.52 75.1886 8.744 75.1246 8.872C74.6766 9 74.0366 9 73.2046 8.872C72.3726 8.68 71.8286 8.744 71.5726 9.064C71.3166 8.872 70.9326 8.84 70.4206 8.968C69.9086 9.096 69.6526 9.032 69.6526 8.776C69.4606 8.776 69.3646 8.872 69.3646 9.064C69.3646 9 69.1406 8.904 68.6926 8.776C68.5006 8.968 68.5966 9.064 68.9806 9.064C68.5326 8.936 67.7006 8.968 66.4846 9.16C65.2686 9.352 64.3726 9.352 63.7966 9.16C63.7326 9.224 63.6046 9.384 63.4126 9.64C63.2846 9.832 63.0926 9.928 62.8366 9.928C62.7726 9.864 62.7406 9.8 62.7406 9.736C62.6126 9.48 62.4526 9.384 62.2606 9.448C62.3246 9.64 62.2606 9.768 62.0686 9.832C61.9406 9.896 61.7486 9.928 61.4926 9.928C61.3006 9.864 61.1086 9.864 60.9166 9.928C60.7246 9.992 60.6286 10.088 60.6286 10.216C60.5006 10.216 60.4366 10.12 60.4366 9.928C60.4366 9.8 60.4046 9.736 60.3406 9.736C60.3406 9.672 60.2766 9.64 60.1486 9.64C60.0846 9.704 60.0526 9.8 60.0526 9.928C60.1166 10.056 60.1166 10.152 60.0526 10.216C60.0526 10.28 59.9566 10.312 59.7646 10.312V10.024C59.7006 10.088 59.5726 10.12 59.3806 10.12C59.2526 10.12 59.1246 10.152 58.9966 10.216C58.9326 10.28 58.9006 10.376 58.9006 10.504C58.7726 10.44 58.7086 10.28 58.7086 10.024C57.4926 10.216 56.7886 10.28 56.5966 10.216L56.7886 10.12C56.9806 10.12 57.0446 10.056 56.9806 9.928C56.7246 9.864 56.5966 9.96 56.5966 10.216C56.2766 10.536 55.7966 10.664 55.1566 10.6C54.5806 10.472 54.1966 10.536 54.0046 10.792C52.9166 10.344 52.1806 10.44 51.7966 11.08C51.7326 11.016 51.7006 10.888 51.7006 10.696C51.5086 10.632 51.4126 10.696 51.4126 10.888C51.3486 10.952 51.3166 11.016 51.3166 11.08C51.2526 11.016 51.2206 10.888 51.2206 10.696C51.1566 10.696 51.0926 10.728 51.0286 10.792C50.7726 10.728 50.6446 10.664 50.6446 10.6C50.5166 10.728 50.3886 10.824 50.2606 10.888C50.1326 10.888 50.0046 10.92 49.8766 10.984C49.8126 10.984 49.6846 10.984 49.4926 10.984C49.3646 10.984 49.2366 11.016 49.1086 11.08C48.9806 11.016 48.9486 10.92 49.0126 10.792C49.1406 10.6 49.1406 10.504 49.0126 10.504C48.8846 10.504 48.8206 10.6 48.8206 10.792C48.8846 10.92 48.8846 11.016 48.8206 11.08C48.6286 10.952 47.9886 11.048 46.9006 11.368L47.0926 11.272L47.1886 11.176C46.9966 11.176 46.6766 11.208 46.2286 11.272C45.7806 11.336 45.3646 11.336 44.9806 11.272C44.9806 11.208 45.0446 11.176 45.1726 11.176L45.3646 11.08C45.0446 10.76 44.6926 10.952 44.3086 11.656C44.1806 11.528 43.9566 11.464 43.6366 11.464C43.3806 11.464 43.1886 11.432 43.0606 11.368C42.8686 11.496 42.7726 11.656 42.7726 11.848C41.5566 11.464 40.3086 11.592 39.0286 12.232C38.9646 12.104 38.8686 11.976 38.7406 11.848C38.6126 12.04 38.2606 12.2 37.6846 12.328V11.944C37.5566 11.88 37.4926 11.976 37.4926 12.232C37.4926 12.36 37.4606 12.424 37.3966 12.424C37.3966 12.296 37.2686 12.2 37.0126 12.136C36.8206 12.072 36.7566 11.944 36.8206 11.752C36.7566 11.88 36.5646 12.008 36.2446 12.136C35.9246 12.2 35.7326 12.328 35.6686 12.52C35.6046 12.2 35.3486 12.136 34.9006 12.328C34.4526 12.456 34.1646 12.456 34.0366 12.328C33.8446 12.648 33.4606 12.776 32.8846 12.712C32.3086 12.584 31.9566 12.648 31.8286 12.904C30.9326 12.904 29.5566 13.032 27.7006 13.288C25.9086 13.544 24.5326 13.64 23.5726 13.576C23.6366 13.832 23.5086 13.992 23.1886 14.056C23.0606 14.056 22.9646 13.96 22.9006 13.768C22.7726 13.96 22.5486 14.056 22.2286 14.056C21.9086 14.056 21.6846 14.152 21.5566 14.344C21.0446 14.28 20.1166 14.376 18.7726 14.632C17.4926 14.888 16.5646 14.952 15.9886 14.824C15.9246 14.824 15.8606 14.888 15.7966 15.016L15.7006 15.208C14.9966 15.144 13.9406 15.24 12.5326 15.496C11.1246 15.752 10.0046 15.816 9.17263 15.688C7.95663 16.2 6.77263 16.328 5.62063 16.072C5.04463 16.136 4.59663 16.232 4.27663 16.36C4.02063 16.424 3.63663 16.328 3.12463 16.072C2.67663 15.816 2.35663 15.624 2.16463 15.496C1.97263 15.368 1.65263 15.144 1.20463 14.824C0.820625 14.44 0.564625 14.184 0.436625 14.056C0.436625 13.864 0.372625 13.288 0.244625 12.328C0.500625 11.944 0.884625 11.688 1.39663 11.56C1.97263 11.432 2.45263 11.496 2.83663 11.752C4.05263 11.432 5.17263 11.304 6.19663 11.368C7.54063 11.048 9.36463 10.888 11.6686 10.888C17.2366 10.056 20.7886 9.672 22.3246 9.736C23.8606 9.224 25.8766 8.968 28.3726 8.968C29.1406 8.84 29.8766 8.744 30.5806 8.68C31.3486 8.552 32.1806 8.456 33.0766 8.392C34.0366 8.328 34.8046 8.264 35.3806 8.2C35.5086 8.136 35.6046 8.168 35.6686 8.296C35.7326 8.36 35.7966 8.392 35.8606 8.392C36.0526 8.072 36.4366 7.944 37.0126 8.008C37.6526 8.072 38.0686 8.008 38.2606 7.816C38.5806 7.944 39.0926 7.944 39.7966 7.816C40.5646 7.624 41.0766 7.624 41.3326 7.816C41.5886 7.752 42.8366 7.56 45.0766 7.24C45.2046 7.176 45.3326 7.304 45.4606 7.624C45.6526 7.368 45.8446 7.208 46.0366 7.144C46.2926 7.08 46.6766 7.08 47.1886 7.144C47.7006 7.208 48.0526 7.24 48.2446 7.24C48.3086 7.24 48.3406 7.176 48.3406 7.048L48.4366 6.856C49.7166 6.856 51.2846 6.76 53.1406 6.568C54.6126 6.696 55.5726 6.568 56.0206 6.184C56.0846 6.184 56.2126 6.344 56.4046 6.664C56.5326 6.536 56.7566 6.472 57.0766 6.472C57.4606 6.408 57.6846 6.28 57.7486 6.088C58.1326 6.216 58.6126 6.216 59.1886 6.088C59.8286 5.96 60.3406 5.992 60.7246 6.184C60.8526 6.248 60.9486 6.216 61.0126 6.088C61.0766 5.96 61.1406 5.896 61.2046 5.896C61.3966 5.832 61.5246 5.864 61.5886 5.992C61.7166 6.056 61.8126 6.088 61.8766 6.088C63.6686 5.512 65.3966 5.352 67.0606 5.608C68.8526 5.288 70.0686 5.256 70.7086 5.512C70.7726 5.512 70.8046 5.48 70.8046 5.416C70.8046 5.288 70.8366 5.192 70.9006 5.128C71.6686 5.576 72.2446 5.544 72.6286 5.032C72.7566 5.16 72.9806 5.192 73.3006 5.128C73.6206 5.064 73.8766 5 74.0686 4.936C74.3246 4.872 74.4846 4.936 74.5486 5.128C74.6126 5.128 74.7086 5.096 74.8366 5.032C75.0286 4.904 75.1566 4.84 75.2206 4.84C75.2846 4.776 75.3806 4.84 75.5086 5.032C75.7006 4.712 76.3086 4.616 77.3326 4.744C78.3566 4.872 79.0286 4.904 79.3486 4.84C79.4766 4.84 79.4446 4.776 79.2526 4.648C79.1246 4.52 79.1566 4.456 79.3486 4.456C79.5406 4.392 79.6686 4.456 79.7326 4.648C79.8606 4.776 79.9566 4.84 80.0206 4.84C80.0846 4.648 80.3726 4.584 80.8846 4.648C81.0126 4.712 81.0766 4.616 81.0766 4.36C81.9086 4.808 82.5166 4.776 82.9006 4.264C84.3086 4.136 85.0766 4.04 85.2046 3.976C85.3966 4.104 85.4606 4.264 85.3966 4.456C85.5246 4.328 85.8126 4.264 86.2606 4.264C86.7086 4.264 86.9646 4.136 87.0286 3.88H87.4126C87.4766 3.88 87.5086 4.008 87.5086 4.264C88.0846 4.136 88.4366 3.976 88.5646 3.784C88.7566 3.784 89.0126 3.784 89.3326 3.784C89.6526 3.784 89.8126 3.816 89.8126 3.88L89.5246 4.168C89.7166 4.168 89.8126 4.072 89.8126 3.88C90.0046 4.072 90.2606 4.104 90.5806 3.976C90.9646 3.784 91.1886 3.688 91.2526 3.688C91.0606 3.816 91.0606 3.912 91.2526 3.976C91.5086 3.976 91.6686 3.976 91.7326 3.976C91.7966 3.976 91.8286 3.848 91.8286 3.592C91.9566 3.592 92.0846 3.592 92.2126 3.592C92.4046 3.528 92.5646 3.528 92.6926 3.592C92.8206 3.592 92.9166 3.688 92.9806 3.88C93.1726 3.88 93.2686 3.784 93.2686 3.592C93.7166 3.592 94.1966 3.592 94.7086 3.592C95.2846 3.528 95.9246 3.464 96.6286 3.4C97.3326 3.336 97.9086 3.304 98.3566 3.304V3.688C98.6766 3.688 98.9646 3.592 99.2206 3.4C99.4766 3.208 99.7646 3.144 100.085 3.208C100.213 3.4 100.245 3.528 100.181 3.592C100.629 3.464 100.981 3.464 101.237 3.592C101.365 3.528 101.429 3.368 101.429 3.112C103.157 3.112 104.469 3.016 105.365 2.824C105.557 2.888 105.557 3.016 105.365 3.208C105.685 3.016 105.845 2.888 105.845 2.824C105.973 2.824 106.101 2.952 106.229 3.208C106.357 2.888 106.741 2.728 107.381 2.728C108.021 2.728 108.405 2.76 108.533 2.824V2.92C108.533 3.048 108.501 3.112 108.437 3.112C108.501 3.112 108.533 3.016 108.533 2.824C109.429 2.632 110.261 2.568 111.029 2.632L110.837 2.728C110.709 2.856 110.709 2.952 110.837 3.016C111.157 2.696 111.701 2.536 112.469 2.536L112.373 2.632V2.728H111.893L112.181 2.824L112.373 2.728C112.501 2.728 112.661 2.632 112.853 2.44H114.005V2.728C114.133 2.792 114.229 2.76 114.293 2.632V2.44C114.421 2.44 114.485 2.536 114.485 2.728C114.613 2.792 114.677 2.792 114.677 2.728C114.741 2.6 114.773 2.44 114.773 2.248C114.901 2.312 114.933 2.472 114.869 2.728C115.125 2.792 115.317 2.76 115.445 2.632C115.445 2.568 115.413 2.536 115.349 2.536C115.221 2.536 115.157 2.536 115.157 2.536C115.157 2.472 115.157 2.376 115.157 2.248C115.605 2.312 116.245 2.312 117.077 2.248C117.909 2.184 118.517 2.152 118.901 2.152C119.029 2.28 119.029 2.344 118.901 2.344C118.645 2.344 118.517 2.376 118.517 2.44C118.709 2.568 119.061 2.504 119.573 2.248C120.085 1.992 120.501 1.96 120.821 2.152C120.757 2.152 120.725 2.216 120.725 2.344L120.629 2.44C120.757 2.44 120.821 2.344 120.821 2.152C121.077 2.088 121.397 2.056 121.781 2.056C122.229 2.056 122.517 2.024 122.645 1.96C122.837 1.96 122.837 2.056 122.645 2.248C123.093 2.248 123.317 2.216 123.317 2.152C123.317 2.088 123.253 2.088 123.125 2.152L122.933 1.96C123.189 1.896 123.477 1.96 123.797 2.152C124.053 1.704 124.341 1.64 124.661 1.96C124.725 2.024 124.661 2.056 124.469 2.056C124.277 2.056 124.149 2.056 124.085 2.056C124.085 2.312 124.341 2.376 124.853 2.248C125.109 2.184 125.205 2.056 125.141 1.864C126.037 1.864 126.517 1.96 126.581 2.152C126.581 1.96 126.805 1.832 127.253 1.768C127.765 1.64 128.309 1.608 128.885 1.672C129.461 1.736 129.781 1.832 129.845 1.96C130.805 1.64 131.349 1.48 131.477 1.48C131.477 1.544 131.445 1.64 131.381 1.768C131.317 1.896 131.349 1.96 131.477 1.96C131.669 1.96 131.733 1.928 131.669 1.864C131.669 1.736 131.701 1.64 131.765 1.576L132.341 1.864C132.469 1.608 132.693 1.48 133.013 1.48C133.333 1.48 133.557 1.608 133.685 1.864C133.941 1.608 134.421 1.48 135.125 1.48C135.829 1.48 136.277 1.448 136.469 1.384C136.533 1.384 136.565 1.448 136.565 1.576L136.661 1.864C136.725 1.8 136.885 1.768 137.141 1.768C137.397 1.768 137.525 1.672 137.525 1.48C137.653 1.608 138.357 1.672 139.637 1.672C139.637 1.608 139.605 1.576 139.541 1.576L139.349 1.48C139.541 1.288 140.373 1.224 141.845 1.288C143.381 1.288 144.181 1.288 144.245 1.288C144.245 1.352 144.213 1.384 144.149 1.384C144.149 1.384 144.149 1.416 144.149 1.48L144.437 1.384C144.693 1.256 144.917 1.192 145.109 1.192C145.301 1.128 145.493 1.16 145.685 1.288C145.621 1.224 145.525 1.256 145.397 1.384C145.461 1.448 145.621 1.48 145.877 1.48C145.877 1.416 145.845 1.384 145.781 1.384C145.717 1.384 145.685 1.352 145.685 1.288C145.877 1.224 146.069 1.192 146.261 1.192C146.517 1.192 146.741 1.16 146.933 1.096C146.933 1.288 146.965 1.416 147.029 1.48C147.093 1.544 147.189 1.576 147.317 1.576C147.445 1.576 147.541 1.576 147.605 1.576C144.981 1.96 142.645 1.992 140.597 1.672C139.573 1.928 137.877 2.088 135.509 2.152C133.141 2.152 131.573 2.248 130.805 2.44C130.485 2.44 129.461 2.44 127.733 2.44C126.005 2.44 124.693 2.504 123.797 2.632C123.733 2.568 123.573 2.536 123.317 2.536C123.125 2.536 122.997 2.504 122.933 2.44C122.805 2.376 122.677 2.472 122.549 2.728C122.037 2.664 120.981 2.696 119.381 2.824C117.845 2.952 116.853 2.92 116.405 2.728C116.213 2.856 115.861 2.952 115.349 3.016C114.837 3.08 114.549 3.144 114.485 3.208C111.797 3.272 104.789 3.656 93.4606 4.36C93.1406 4.232 92.6286 4.232 91.9246 4.36C91.2206 4.424 90.6766 4.392 90.2926 4.264C86.7086 4.712 82.2926 5.128 77.0446 5.512C76.6606 5.576 76.0846 5.576 75.3166 5.512C74.5486 5.448 73.9726 5.448 73.5886 5.512C73.1406 5.576 72.4686 5.672 71.5726 5.8C70.7406 5.928 70.1326 6.024 69.7486 6.088C69.3646 6.088 68.7246 6.056 67.8286 5.992C67.7006 5.928 67.6046 5.96 67.5406 6.088C67.4766 6.152 67.4126 6.184 67.3486 6.184C63.3806 6.44 60.1806 6.728 57.7486 7.048C58.1326 7.176 58.9006 7.176 60.0526 7.048C61.2046 6.92 62.0686 6.856 62.6446 6.856C67.3806 6.408 74.1326 5.928 82.9006 5.416C85.8446 5.096 89.9406 4.808 95.1886 4.552C100.501 4.296 104.437 4.04 106.997 3.784C109.173 3.592 112.309 3.464 116.405 3.4C120.501 3.272 123.413 3.144 125.141 3.016C129.365 2.696 134.581 2.44 140.789 2.248C143.157 2.184 156.085 2.056 179.573 1.864C177.909 1.48 176.437 1.384 175.157 1.576V1C175.029 1.064 174.965 1.16 174.965 1.288C175.029 1.416 175.029 1.512 174.965 1.576C174.773 1.512 174.485 1.512 174.101 1.576C173.781 1.64 173.557 1.608 173.429 1.48C173.173 1.608 173.013 1.672 172.949 1.672C171.477 1.544 168.341 1.512 163.541 1.576C158.805 1.576 155.733 1.576 154.325 1.576C151.701 1.832 149.557 1.8 147.893 1.48V1.096C148.085 1.032 148.245 1.096 148.373 1.288C148.565 1.416 148.693 1.48 148.757 1.48C148.885 1.48 148.885 1.416 148.757 1.288C148.629 1.16 148.597 1.064 148.661 1C149.301 1.256 149.813 1.256 150.197 1C150.197 1.064 150.293 1.096 150.485 1.096C150.485 1.16 150.421 1.224 150.293 1.288C150.229 1.288 150.229 1.352 150.293 1.48C150.613 1.48 150.773 1.32 150.773 1C151.093 1.128 151.221 1.256 151.157 1.384L151.445 1.096C152.021 1.032 153.269 1 155.189 1C155.189 1.064 155.157 1.128 155.093 1.192C155.029 1.192 154.997 1.224 154.997 1.288C155.573 0.967999 156.597 0.872 158.069 1V1.384C158.133 1.384 158.229 1.352 158.357 1.288C158.421 1.224 158.485 1.256 158.549 1.384C158.741 1.256 158.837 1.096 158.837 0.903998H162.485V1.384C162.677 1.256 162.837 1.224 162.965 1.288C162.965 1.224 162.901 1.16 162.773 1.096L162.581 1C162.709 0.872 162.901 0.839999 163.157 0.903998C163.477 0.903998 163.669 1.032 163.733 1.288C163.861 0.967999 164.405 0.839999 165.365 0.903998C166.325 0.903998 166.965 0.871999 167.285 0.808C167.349 0.936 167.317 1.032 167.189 1.096C167.125 1.16 167.093 1.224 167.093 1.288C167.349 1.096 168.053 0.936 169.205 0.808C169.269 0.936 169.237 1 169.109 1C168.917 1 168.821 1.032 168.821 1.096C168.949 1.224 169.077 1.288 169.205 1.288C169.397 1.224 169.461 1.064 169.397 0.808H170.165V1.288C170.293 1.288 170.389 1.192 170.453 1C170.453 0.807999 170.549 0.743999 170.741 0.808C170.613 0.936 170.645 1.064 170.837 1.192C170.901 1.192 170.965 1.224 171.029 1.288C171.093 1.224 171.125 1.128 171.125 1L171.221 0.808C171.989 0.871999 173.077 0.903998 174.485 0.903998C175.893 0.839999 177.077 0.839999 178.037 0.903998V1C177.973 1.128 177.941 1.224 177.941 1.288C178.133 1.288 178.261 1.192 178.325 1C178.325 0.935999 178.357 0.871999 178.421 0.808C182.197 0.999999 186.165 1.032 190.325 0.903998C190.453 0.967999 190.613 1.096 190.805 1.288C191.061 1.48 191.285 1.544 191.477 1.48C191.413 1.736 191.477 1.96 191.669 2.152C191.797 2.28 191.893 2.376 191.957 2.44C191.957 2.632 191.893 2.696 191.765 2.632C191.637 2.568 191.541 2.568 191.477 2.632C191.733 2.824 191.829 3.144 191.765 3.592C191.765 3.976 191.829 4.296 191.957 4.552C191.445 4.616 191.189 4.904 191.189 5.416C190.933 5.416 190.549 5.48 190.037 5.608C189.525 5.672 189.109 5.672 188.789 5.608C188.789 5.544 188.661 5.416 188.405 5.224C188.149 4.968 188.021 4.712 188.021 4.456C187.957 4.456 187.861 4.52 187.733 4.648C187.669 4.712 187.573 4.744 187.445 4.744C187.445 4.616 187.157 4.168 186.581 3.4C186.453 3.464 186.485 3.624 186.677 3.88C186.613 4.008 186.485 4.104 186.293 4.168C186.165 4.168 186.069 4.2 186.005 4.264C185.941 4.072 185.653 4.04 185.141 4.168C184.693 4.232 184.405 4.232 184.277 4.168C184.277 4.04 184.277 3.944 184.277 3.88C184.341 3.816 184.373 3.752 184.373 3.688H184.949C184.885 3.496 184.629 3.4 184.181 3.4C184.117 3.336 184.117 3.272 184.181 3.208C184.245 3.144 184.277 3.08 184.277 3.016C183.829 3.272 183.445 3.4 183.125 3.4C183.125 3.656 183.285 3.752 183.605 3.688C183.925 3.624 184.117 3.624 184.181 3.688C184.117 3.944 183.893 4.072 183.509 4.072C183.125 4.072 182.869 4.104 182.741 4.168C182.677 3.848 182.709 3.656 182.837 3.592C182.773 3.528 182.645 3.496 182.453 3.496C182.261 3.496 182.101 3.432 181.973 3.304C181.909 3.496 181.973 3.624 182.165 3.688C182.357 3.752 182.453 3.848 182.453 3.976C181.941 3.592 181.077 3.336 179.861 3.208C179.925 3.144 179.989 3.08 180.053 3.016C180.117 2.952 180.149 2.888 180.149 2.824H179.093C178.965 2.824 178.869 2.92 178.805 3.112C178.741 3.304 178.645 3.368 178.517 3.304C178.709 3.112 178.741 3.016 178.613 3.016C178.229 3.08 178.037 3.016 178.037 2.824C177.973 3.144 177.781 3.304 177.461 3.304C177.269 3.24 177.237 3.08 177.365 2.824C177.301 2.888 177.205 2.952 177.077 3.016L176.789 3.112C176.789 3.24 176.949 3.304 177.269 3.304C177.333 3.496 177.269 3.624 177.077 3.688L176.789 3.784H177.941C177.685 4.04 177.077 4.2 176.117 4.264C175.157 4.264 174.645 4.264 174.581 4.264C174.517 3.88 174.357 3.528 174.101 3.208C174.037 3.208 174.005 3.272 174.005 3.4C174.005 3.464 174.037 3.56 174.101 3.688C174.165 3.752 174.165 3.848 174.101 3.976C173.269 4.232 172.533 4.232 171.893 3.976L172.085 3.784ZM163.061 1.288C163.189 1.288 163.317 1.192 163.445 1C163.317 1 163.189 1.096 163.061 1.288ZM164.309 1.288C164.629 1.16 164.789 1.064 164.789 1C164.533 1 164.373 1.096 164.309 1.288ZM168.437 1C168.309 1 168.245 1.032 168.245 1.096C168.373 1.096 168.437 1.064 168.437 1ZM153.077 1.384C153.653 1.384 154.037 1.352 154.229 1.288C153.589 1.096 153.205 1.128 153.077 1.384ZM159.989 1.096L159.797 1.192C159.733 1.192 159.701 1.224 159.701 1.288L159.797 1.192C159.925 1.192 159.989 1.16 159.989 1.096ZM166.901 1.096L166.709 1.192C166.645 1.192 166.613 1.224 166.613 1.288L166.709 1.192C166.837 1.192 166.901 1.16 166.901 1.096ZM173.525 1.096L173.333 1.288L173.525 1.096ZM175.733 1.096L175.541 1.288L175.733 1.096ZM140.405 1.576C140.405 1.512 140.373 1.48 140.309 1.48C140.245 1.48 140.181 1.512 140.117 1.576H140.405ZM179.861 1.864C180.053 1.8 180.245 1.8 180.437 1.864C180.629 1.864 180.821 1.864 181.013 1.864C181.205 1.8 181.333 1.736 181.397 1.672C180.437 1.352 179.925 1.416 179.861 1.864ZM181.589 1.672C181.845 1.8 182.197 1.864 182.645 1.864C183.093 1.864 183.445 1.8 183.701 1.672H181.589ZM185.333 1.672C185.205 1.8 185.045 1.832 184.853 1.768C184.661 1.704 184.533 1.736 184.469 1.864C184.533 1.928 184.629 1.992 184.757 2.056C184.885 2.056 185.013 2.024 185.141 1.96C185.269 1.896 185.333 1.8 185.333 1.672ZM129.173 1.96C129.109 1.96 129.045 1.96 128.981 1.96H129.173ZM126.869 2.152H127.253C127.253 1.96 127.125 1.896 126.869 1.96V2.152ZM122.357 2.152C122.229 2.152 122.165 2.184 122.165 2.248C122.293 2.248 122.357 2.216 122.357 2.152ZM187.253 2.44H184.853C184.917 2.632 185.301 2.728 186.005 2.728C186.773 2.728 187.189 2.632 187.253 2.44ZM116.885 2.536C116.693 2.536 116.597 2.568 116.597 2.632C116.789 2.632 116.885 2.6 116.885 2.536ZM181.589 3.016C181.717 3.016 181.877 3.048 182.069 3.112C182.325 3.112 182.485 3.08 182.549 3.016C182.101 2.696 181.781 2.696 181.589 3.016ZM169.301 3.112C169.429 3.304 169.653 3.4 169.973 3.4C170.293 3.4 170.485 3.272 170.549 3.016C170.421 2.952 170.197 2.92 169.877 2.92C169.621 2.92 169.429 2.984 169.301 3.112ZM175.061 3.688C174.741 3.688 174.581 3.72 174.581 3.784C174.709 3.912 174.805 3.976 174.869 3.976C174.997 3.912 175.061 3.816 175.061 3.688C175.445 3.816 175.701 3.88 175.829 3.88C175.829 3.752 175.861 3.528 175.925 3.208C175.861 2.888 175.477 2.888 174.773 3.208C174.773 3.272 174.805 3.336 174.869 3.4C174.997 3.464 175.061 3.56 175.061 3.688ZM108.149 3.016C107.957 3.016 107.861 3.048 107.861 3.112C107.925 3.112 107.989 3.112 108.053 3.112C108.117 3.112 108.149 3.08 108.149 3.016ZM180.917 3.016C180.661 3.016 180.533 3.048 180.533 3.112C180.789 3.112 180.917 3.08 180.917 3.016ZM184.757 3.112C184.693 3.112 184.597 3.112 184.469 3.112H184.757ZM176.501 3.88C176.501 3.816 176.533 3.688 176.597 3.496C176.725 3.304 176.661 3.208 176.405 3.208C176.405 3.656 176.437 3.88 176.501 3.88ZM96.1486 3.784L95.7646 3.688C95.7646 3.56 95.8606 3.528 96.0526 3.592C96.2446 3.592 96.2766 3.656 96.1486 3.784ZM92.1166 3.976H92.3086V3.784H92.1166V3.976ZM92.1166 5.896C91.9246 5.896 91.8286 5.928 91.8286 5.992H92.0206C92.0846 5.992 92.1166 5.96 92.1166 5.896ZM87.5086 6.856C87.5726 6.984 87.7326 7.016 87.9886 6.952C88.3086 6.888 88.5326 6.856 88.6606 6.856C88.5326 6.536 88.4046 6.408 88.2766 6.472C88.2766 6.536 88.1486 6.6 87.8926 6.664C87.6366 6.664 87.5086 6.728 87.5086 6.856ZM100.373 6.568C100.309 6.568 100.213 6.536 100.085 6.472C100.021 6.408 99.9246 6.408 99.7966 6.472C99.7326 6.6 99.7966 6.696 99.9886 6.76C100.245 6.76 100.373 6.696 100.373 6.568ZM82.4206 6.76C82.5486 6.76 82.6766 6.696 82.8046 6.568C82.4846 6.568 82.3566 6.632 82.4206 6.76ZM85.3006 6.856L85.1086 7.048C84.9166 6.856 84.6606 6.76 84.3406 6.76C84.0846 6.76 83.8926 6.888 83.7646 7.144C83.9566 7.08 84.2126 7.08 84.5326 7.144C84.9166 7.144 85.2686 7.144 85.5886 7.144C85.9726 7.08 86.1966 6.984 86.2606 6.856C86.1966 6.984 86.0366 6.952 85.7806 6.76C85.5246 6.504 85.3326 6.472 85.2046 6.664C85.2686 6.664 85.3006 6.728 85.3006 6.856ZM95.8606 6.856C96.1806 6.984 96.3406 6.92 96.3406 6.664C96.2766 6.536 96.1806 6.504 96.0526 6.568C95.9246 6.632 95.8606 6.728 95.8606 6.856ZM78.0046 6.856H78.2926V6.664H78.0046V6.856ZM79.4446 7.432C79.5726 7.368 79.7966 7.368 80.1166 7.432C80.5006 7.496 80.7246 7.432 80.7886 7.24C80.7246 7.176 80.5326 7.144 80.2126 7.144H79.7326C79.8606 6.888 79.9246 6.76 79.9246 6.76C79.7966 6.76 79.7006 6.76 79.6366 6.76C79.5726 6.696 79.5086 6.664 79.4446 6.664C79.3806 6.728 79.3486 6.856 79.3486 7.048C79.3486 7.24 79.3806 7.368 79.4446 7.432ZM97.0126 6.856H97.3006V6.664H97.0126V6.856ZM97.8766 6.76C97.8766 6.696 97.8446 6.664 97.7806 6.664C97.7166 6.664 97.6526 6.696 97.5886 6.76H97.8766ZM76.5646 7.144C76.8846 7.4 77.4606 7.592 78.2926 7.72C78.2926 7.464 78.1326 7.336 77.8126 7.336C77.5566 7.336 77.3326 7.304 77.1406 7.24C77.2046 7.048 77.3006 6.984 77.4286 7.048C77.5566 7.112 77.6206 7.048 77.6206 6.856C77.3646 6.728 77.0126 6.824 76.5646 7.144ZM55.3486 7.24C53.6846 7.24 52.6926 7.368 52.3726 7.624C52.6286 7.56 53.0766 7.528 53.7166 7.528C54.3566 7.528 54.9006 7.432 55.3486 7.24C55.8606 7.432 56.1166 7.368 56.1166 7.048C55.7326 7.048 55.4766 7.112 55.3486 7.24ZM56.5006 7.24C56.5646 7.24 56.6606 7.24 56.7886 7.24C56.9806 7.24 57.0766 7.208 57.0766 7.144C56.8206 6.888 56.6286 6.92 56.5006 7.24ZM81.1726 7.144C81.1726 7.272 81.2046 7.336 81.2686 7.336C81.5246 7.336 81.6846 7.272 81.7486 7.144H81.1726ZM82.4206 7.336C82.7406 7.336 82.9006 7.272 82.9006 7.144C82.8366 7.016 82.7406 6.984 82.6126 7.048C82.4846 7.112 82.4206 7.208 82.4206 7.336ZM70.1326 7.432C70.1966 7.496 70.2926 7.528 70.4206 7.528C70.5486 7.528 70.6766 7.56 70.8046 7.624V7.336C70.8046 7.272 70.7726 7.24 70.7086 7.24C70.7086 7.368 70.6126 7.4 70.4206 7.336C70.2286 7.336 70.1326 7.368 70.1326 7.432ZM82.2286 7.24C82.0366 7.24 81.9406 7.272 81.9406 7.336C82.1326 7.336 82.2286 7.304 82.2286 7.24ZM71.4766 8.2C71.6686 8.136 72.0846 8.04 72.7246 7.912C72.2126 7.592 71.8286 7.592 71.5726 7.912C71.5086 7.848 71.4766 7.656 71.4766 7.336H70.9966C71.0606 7.464 71.1566 7.624 71.2846 7.816C71.4126 7.944 71.4766 8.072 71.4766 8.2ZM78.7726 7.624H79.0606C79.0606 7.432 78.9646 7.336 78.7726 7.336V7.624ZM49.3966 7.72C47.9246 7.72 47.2206 7.88 47.2846 8.2C47.6686 8.072 48.3086 8.008 49.2046 8.008C50.1006 7.944 50.8046 7.816 51.3166 7.624C50.8686 7.432 50.2286 7.464 49.3966 7.72ZM51.9886 7.432L51.7966 7.624L51.9886 7.432ZM73.0126 8.008C73.2046 8.008 73.4286 7.976 73.6846 7.912C74.0046 7.848 74.2606 7.816 74.4526 7.816C74.4526 7.624 74.3246 7.528 74.0686 7.528C73.8766 7.464 73.6526 7.496 73.3966 7.624C73.1406 7.688 73.0126 7.816 73.0126 8.008ZM65.6206 7.816C65.5566 7.816 65.4606 7.816 65.3326 7.816C65.2686 7.752 65.2046 7.72 65.1406 7.72C65.2046 7.976 65.3646 8.008 65.6206 7.816ZM66.3886 7.816L66.2926 7.72C66.1646 7.656 66.0366 7.656 65.9086 7.72C65.8446 7.848 65.9086 7.912 66.1006 7.912L66.3886 7.816ZM69.1726 8.2C69.2366 8.136 69.2686 8.168 69.2686 8.296H69.5566C69.6206 8.168 69.5566 8.104 69.3646 8.104C69.2366 8.04 69.1726 8.072 69.1726 8.2C69.1086 8.2 68.9806 8.136 68.7886 8.008C68.6606 7.816 68.5646 7.72 68.5006 7.72C68.4366 7.72 68.3406 7.784 68.2126 7.912C68.3406 7.912 68.4686 7.976 68.5966 8.104C68.7246 8.232 68.8206 8.328 68.8846 8.392C68.9486 8.456 69.0446 8.392 69.1726 8.2ZM76.6606 7.72C76.5326 7.72 76.4686 7.752 76.4686 7.816C76.5966 7.816 76.6606 7.784 76.6606 7.72ZM84.3406 7.912C84.4686 8.04 84.6286 8.104 84.8206 8.104C85.0126 8.04 85.1086 7.944 85.1086 7.816C84.6606 7.688 84.4046 7.72 84.3406 7.912ZM87.4126 7.72C87.2206 7.72 87.1246 7.752 87.1246 7.816C87.3166 7.816 87.4126 7.784 87.4126 7.72ZM53.8126 8.488C54.1326 8.488 54.5806 8.456 55.1566 8.392C55.7966 8.328 56.2766 8.296 56.5966 8.296L56.5006 8.392C56.5006 8.456 56.5006 8.52 56.5006 8.584C56.6286 8.328 56.9166 8.232 57.3646 8.296C57.8766 8.296 58.1966 8.136 58.3246 7.816C57.9406 7.944 57.2046 8.04 56.1166 8.104C55.0286 8.104 54.2606 8.232 53.8126 8.488ZM70.8046 8.008H70.9966V7.816H70.8046V8.008ZM45.6526 8.2C46.1006 8.392 46.3246 8.328 46.3246 8.008C46.2606 7.88 46.1326 7.848 45.9406 7.912C45.8126 7.976 45.7166 8.072 45.6526 8.2ZM47.0926 8.008C47.0286 8.008 46.9646 8.008 46.9006 8.008C46.8366 7.944 46.7726 7.912 46.7086 7.912C46.6446 8.04 46.6766 8.136 46.8046 8.2C46.9966 8.2 47.0926 8.136 47.0926 8.008ZM45.4606 8.2C45.3966 8.136 45.2686 8.104 45.0766 8.104C44.8846 8.104 44.7246 8.072 44.5966 8.008C44.5966 8.136 44.6606 8.232 44.7886 8.296C44.9166 8.296 45.0446 8.296 45.1726 8.296C45.3646 8.296 45.4606 8.264 45.4606 8.2ZM63.9886 8.776C64.6926 8.52 65.2686 8.456 65.7166 8.584C65.5886 8.392 65.2686 8.328 64.7566 8.392C64.3086 8.392 64.0206 8.264 63.8926 8.008C63.8926 8.072 63.9246 8.2 63.9886 8.392C64.0526 8.52 64.0526 8.648 63.9886 8.776ZM77.8126 8.392H78.1966C78.1966 8.136 78.0686 8.072 77.8126 8.2V8.392ZM41.5246 8.584C42.1646 8.584 42.5166 8.488 42.5806 8.296L41.5246 8.584ZM58.9966 8.296C58.5486 8.296 58.3246 8.328 58.3246 8.392C58.5166 8.584 58.7406 8.552 58.9966 8.296ZM66.2926 8.488C66.4206 8.488 66.5806 8.456 66.7726 8.392C66.9646 8.328 67.0606 8.36 67.0606 8.488C67.1246 8.296 67.0606 8.2 66.8686 8.2C66.4846 8.2 66.2926 8.296 66.2926 8.488ZM77.4286 8.296C77.3006 8.296 77.2366 8.328 77.2366 8.392C77.3646 8.392 77.4286 8.36 77.4286 8.296ZM40.9486 8.584C41.2046 8.584 41.3326 8.52 41.3326 8.392H41.0446C41.0446 8.456 41.0126 8.488 40.9486 8.488C40.9486 8.488 40.9486 8.52 40.9486 8.584ZM50.3566 8.584C50.5486 8.648 50.7406 8.712 50.9326 8.776C51.1886 8.776 51.3486 8.68 51.4126 8.488C51.3486 8.552 51.1566 8.552 50.8366 8.488C50.5806 8.36 50.4206 8.392 50.3566 8.584ZM53.7166 8.392C53.6526 8.392 53.5246 8.392 53.3326 8.392C53.1406 8.392 53.0446 8.424 53.0446 8.488C53.1726 8.616 53.3006 8.68 53.4286 8.68C53.6206 8.616 53.7166 8.52 53.7166 8.392ZM74.5486 8.776C74.6766 8.52 74.5486 8.392 74.1646 8.392C74.1006 8.52 74.1326 8.616 74.2606 8.68C74.4526 8.68 74.5486 8.712 74.5486 8.776ZM39.3166 8.872C39.6366 8.808 40.1166 8.776 40.7566 8.776C40.6926 8.584 40.4366 8.52 39.9886 8.584C39.6046 8.584 39.3806 8.68 39.3166 8.872ZM38.6446 8.872C38.7086 8.872 38.7726 8.872 38.8366 8.872C38.9646 8.872 39.0286 8.872 39.0286 8.872C39.0926 8.808 39.1246 8.712 39.1246 8.584C38.8046 8.712 38.6446 8.808 38.6446 8.872ZM49.0126 9.16C49.2046 9.48 49.3966 9.384 49.5886 8.872C49.5886 8.744 49.5566 8.648 49.4926 8.584C49.4926 8.776 49.3326 8.968 49.0126 9.16ZM60.0526 8.872L59.7646 8.584C59.7646 8.712 59.8606 8.808 60.0526 8.872ZM61.7806 8.872C62.1646 8.872 62.3566 8.776 62.3566 8.584C62.2926 8.584 62.1966 8.584 62.0686 8.584C61.9406 8.584 61.8446 8.616 61.7806 8.68C61.7806 8.68 61.7806 8.744 61.7806 8.872ZM52.2766 8.776C52.0846 8.776 51.9886 8.808 51.9886 8.872C52.0526 8.872 52.1166 8.872 52.1806 8.872C52.2446 8.872 52.2766 8.84 52.2766 8.776ZM60.3406 8.968C60.5326 8.968 60.6286 8.904 60.6286 8.776C60.3726 8.776 60.2766 8.84 60.3406 8.968ZM61.2046 8.872C61.1406 8.872 61.0766 8.872 61.0126 8.872H61.2046ZM49.5886 9.16C49.8446 9.16 49.9726 9.096 49.9726 8.968H49.6846C49.6846 9.032 49.6526 9.064 49.5886 9.064C49.5886 9.064 49.5886 9.096 49.5886 9.16ZM56.9806 9.352C57.3646 9.224 57.5566 9.096 57.5566 8.968C57.4286 9.032 57.3006 9.064 57.1726 9.064C57.1086 9 57.0446 9 56.9806 9.064C56.9806 9.064 56.9806 9.16 56.9806 9.352ZM57.7486 9.16C58.0046 9.416 58.2286 9.352 58.4206 8.968C58.3566 8.968 58.2286 9 58.0366 9.064C57.9086 9.064 57.8126 9.096 57.7486 9.16ZM56.1166 9.448H56.5006C56.5006 9.256 56.3726 9.16 56.1166 9.16V9.448ZM54.0046 9.544H54.1966V9.352H54.0046V9.544ZM61.3006 9.64C61.6846 9.576 61.8766 9.48 61.8766 9.352C61.6206 9.352 61.4286 9.448 61.3006 9.64ZM37.0126 9.928C37.5246 9.8 37.9406 9.736 38.2606 9.736C38.1966 9.544 37.9726 9.48 37.5886 9.544C37.2686 9.544 37.0766 9.672 37.0126 9.928ZM50.1646 9.736C50.2926 9.864 50.7086 9.8 51.4126 9.544C51.0286 9.48 50.6126 9.544 50.1646 9.736ZM48.5326 9.928C48.9806 9.928 49.2686 9.832 49.3966 9.64C48.9486 9.384 48.6606 9.48 48.5326 9.928ZM57.8446 9.64C57.7166 9.64 57.6526 9.672 57.6526 9.736C57.7806 9.736 57.8446 9.704 57.8446 9.64ZM57.1726 10.024H57.4606V9.736H57.1726V10.024ZM47.0926 10.024C46.9006 10.024 46.8046 10.056 46.8046 10.12C46.9966 10.12 47.0926 10.088 47.0926 10.024ZM45.4606 10.12C45.2686 10.12 45.1726 10.152 45.1726 10.216C45.3646 10.216 45.4606 10.184 45.4606 10.12ZM51.9886 10.312C52.2446 10.44 52.4046 10.504 52.4686 10.504V10.12C52.2766 10.12 52.1166 10.184 51.9886 10.312ZM46.1326 10.888H46.3246V10.696H46.1326V10.888ZM42.8686 11.272C43.2526 11.016 43.4446 10.888 43.4446 10.888C43.3166 10.888 43.1246 11.016 42.8686 11.272ZM147.125 1.288C147.125 1.096 147.253 1.032 147.509 1.096C147.637 1.16 147.669 1.256 147.605 1.384C147.541 1.384 147.477 1.352 147.413 1.288C147.349 1.224 147.253 1.224 147.125 1.288ZM136.949 1.384H137.141V1.576H136.949V1.384ZM150.965 4.264C151.029 3.752 151.349 3.592 151.925 3.784C152.565 3.976 152.949 4.04 153.077 3.976C153.077 3.848 153.013 3.752 152.885 3.688C152.693 3.56 152.757 3.464 153.077 3.4C152.565 2.952 151.861 3.016 150.965 3.592C150.837 3.336 150.773 3.176 150.773 3.112C150.645 3.112 150.517 3.176 150.389 3.304C150.389 3.432 150.485 3.528 150.677 3.592C150.869 3.656 150.933 3.784 150.869 3.976C150.485 3.976 150.133 3.912 149.813 3.784C149.749 3.784 149.653 3.912 149.525 4.168C149.461 4.36 149.333 4.424 149.141 4.36C149.141 4.488 149.269 4.584 149.525 4.648C149.717 4.648 149.813 4.712 149.813 4.84C149.429 4.712 148.981 4.712 148.469 4.84C148.789 3.944 149.365 3.528 150.197 3.592C150.005 3.208 149.525 3.24 148.757 3.688L148.661 3.592C148.661 3.464 148.629 3.368 148.565 3.304C148.309 3.368 147.957 3.368 147.509 3.304C147.125 3.24 146.805 3.272 146.549 3.4C146.549 3.336 146.517 3.272 146.453 3.208C146.389 3.08 146.357 2.952 146.357 2.824C149.877 2.952 155.061 2.888 161.909 2.632C161.973 2.696 162.069 2.76 162.197 2.824C162.389 2.888 162.485 2.952 162.485 3.016C162.549 3.08 162.549 3.176 162.485 3.304C162.037 3.048 160.949 3.016 159.221 3.208C159.221 3.272 159.221 3.368 159.221 3.496C159.285 3.56 159.349 3.624 159.413 3.688C159.349 3.752 159.221 3.784 159.029 3.784C158.837 3.784 158.709 3.752 158.645 3.688C158.645 3.816 158.677 3.912 158.741 3.976C158.869 3.976 158.997 4.008 159.125 4.072C159.253 4.072 159.349 4.104 159.413 4.168C158.325 4.808 157.429 4.872 156.725 4.36C156.661 4.232 156.693 4.136 156.821 4.072C157.013 3.944 157.109 3.848 157.109 3.784C156.917 3.336 156.565 3.112 156.053 3.112C155.605 3.048 155.157 3.08 154.709 3.208C154.261 3.336 153.845 3.304 153.461 3.112C153.525 3.432 153.429 3.816 153.173 4.264C153.237 4.392 153.333 4.456 153.461 4.456C153.653 4.392 153.813 4.36 153.941 4.36C153.941 4.168 153.845 4.104 153.653 4.168C153.717 3.912 153.845 3.752 154.037 3.688C154.229 3.624 154.453 3.56 154.709 3.496C155.029 3.432 155.285 3.368 155.477 3.304C155.477 3.432 155.541 3.56 155.669 3.688C155.669 3.752 155.573 3.816 155.381 3.88C155.253 3.944 155.189 4.072 155.189 4.264C154.997 4.136 154.677 4.104 154.229 4.168C154.165 4.232 154.165 4.296 154.229 4.36C154.293 4.424 154.325 4.488 154.325 4.552C153.813 4.68 153.429 4.744 153.173 4.744C152.917 4.68 152.597 4.584 152.213 4.456C151.829 4.328 151.573 4.264 151.445 4.264C151.381 4.264 151.349 4.424 151.349 4.744C151.285 4.744 151.221 4.68 151.157 4.552C151.157 4.36 151.093 4.264 150.965 4.264ZM157.685 3.88C158.133 4.008 158.389 3.976 158.453 3.784C158.261 3.784 158.197 3.72 158.261 3.592C158.581 3.592 158.773 3.496 158.837 3.304C158.645 3.176 158.357 3.112 157.973 3.112C157.653 3.112 157.397 3.08 157.205 3.016C157.205 3.144 157.301 3.24 157.493 3.304C157.685 3.368 157.813 3.432 157.877 3.496C157.941 3.56 157.877 3.688 157.685 3.88ZM158.261 4.264C158.197 4.264 158.101 4.264 157.973 4.264H158.261ZM144.437 3.592C144.309 3.592 144.181 3.496 144.053 3.304C144.053 3.368 143.989 3.432 143.861 3.496C143.733 3.624 143.733 3.72 143.861 3.784C143.733 3.848 143.573 3.784 143.381 3.592C143.253 3.336 143.125 3.208 142.997 3.208C142.805 3.4 142.485 3.496 142.037 3.496C141.589 3.432 141.269 3.464 141.077 3.592C141.205 3.72 141.461 3.816 141.845 3.88C142.229 3.88 142.517 3.976 142.709 4.168C143.093 3.784 143.285 3.816 143.285 4.264C143.285 4.2 143.573 4.168 144.149 4.168C144.277 4.104 144.341 4.008 144.341 3.88C144.341 3.752 144.373 3.656 144.437 3.592C144.757 3.784 145.013 3.848 145.205 3.784C145.269 3.976 145.205 4.04 145.013 3.976C144.821 3.976 144.725 4.04 144.725 4.168C145.621 4.488 146.101 4.328 146.165 3.688C146.293 3.624 146.453 3.624 146.645 3.688C146.901 3.688 147.061 3.72 147.125 3.784C147.253 3.784 147.381 3.72 147.509 3.592C147.765 3.592 147.797 3.688 147.605 3.88C147.605 4.008 147.669 4.008 147.797 3.88C147.989 3.752 148.085 3.784 148.085 3.976C148.021 4.104 147.861 4.232 147.605 4.36C147.349 4.488 147.189 4.648 147.125 4.84C146.165 4.776 144.565 4.808 142.325 4.936C142.453 4.744 142.357 4.552 142.037 4.36C141.781 4.168 141.653 4.008 141.653 3.88C141.397 4.264 141.077 4.488 140.693 4.552C140.693 4.616 140.757 4.68 140.885 4.744C141.077 4.744 141.141 4.808 141.077 4.936C140.885 4.936 140.405 4.936 139.637 4.936C138.869 4.872 138.261 4.904 137.813 5.032C137.941 4.904 137.909 4.776 137.717 4.648C137.589 4.52 137.525 4.424 137.525 4.36C137.397 4.424 137.333 4.68 137.333 5.128C137.269 5.128 137.205 5.064 137.141 4.936C137.141 4.808 137.077 4.776 136.949 4.84C136.949 4.712 136.949 4.552 136.949 4.36C137.013 4.168 137.013 4.008 136.949 3.88C137.269 3.88 137.461 3.816 137.525 3.688C137.013 3.624 136.213 3.656 135.125 3.784C134.037 3.848 133.365 3.816 133.109 3.688C134.197 3.048 135.509 2.952 137.045 3.4C137.813 3.272 138.229 3.24 138.293 3.304C138.357 3.368 138.389 3.496 138.389 3.688C138.389 3.624 138.293 3.624 138.101 3.688C137.973 3.688 137.845 3.688 137.717 3.688C137.781 3.752 137.845 3.848 137.909 3.976C137.973 4.04 138.037 4.104 138.101 4.168C138.229 4.232 138.325 4.296 138.389 4.36C138.453 4.36 138.485 4.2 138.485 3.88C138.549 3.944 138.837 3.976 139.349 3.976C139.349 4.232 139.381 4.392 139.445 4.456C139.509 4.328 139.637 4.264 139.829 4.264C140.085 4.2 140.277 4.232 140.405 4.36C140.533 4.36 140.597 4.264 140.597 4.072C140.661 3.816 140.789 3.72 140.981 3.784C140.789 3.528 140.373 3.464 139.733 3.592C139.093 3.72 138.741 3.592 138.677 3.208C141.493 3.08 143.413 3.048 144.437 3.112C144.309 3.24 144.309 3.336 144.437 3.4V3.592ZM141.365 3.88C141.237 3.88 141.173 3.912 141.173 3.976C141.301 3.976 141.365 3.944 141.365 3.88ZM146.261 4.168C146.389 4.104 146.453 4.136 146.453 4.264C146.517 4.392 146.613 4.456 146.741 4.456C146.741 4.264 146.837 4.168 147.029 4.168C147.221 4.232 147.317 4.136 147.317 3.88C147.253 3.944 147.061 3.976 146.741 3.976C146.485 3.976 146.325 4.04 146.261 4.168ZM138.101 4.264C137.909 4.264 137.813 4.296 137.813 4.36C138.005 4.36 138.101 4.328 138.101 4.264ZM142.997 4.36C142.869 4.36 142.805 4.392 142.805 4.456C142.933 4.456 142.997 4.424 142.997 4.36ZM145.685 3.016C145.621 3.272 145.397 3.4 145.013 3.4C145.013 3.08 145.237 2.952 145.685 3.016ZM145.973 3.016C146.165 2.952 146.261 3.016 146.261 3.208C146.197 3.208 146.165 3.24 146.165 3.304C146.101 3.304 146.069 3.24 146.069 3.112L145.973 3.016ZM166.517 3.112C166.773 3.112 166.805 3.24 166.613 3.496C166.421 3.752 166.357 3.976 166.421 4.168C166.357 3.976 166.261 3.848 166.133 3.784C166.069 3.72 165.941 3.688 165.749 3.688C165.621 3.688 165.525 3.656 165.461 3.592C165.525 3.464 165.621 3.4 165.749 3.4C165.877 3.336 165.973 3.336 166.037 3.4C166.165 3.4 166.261 3.4 166.325 3.4C166.453 3.336 166.517 3.24 166.517 3.112ZM132.725 3.304V3.784C132.661 3.784 132.309 3.784 131.669 3.784C131.093 3.72 130.805 3.784 130.805 3.976C130.485 3.784 129.973 3.848 129.269 4.168C129.077 3.912 128.597 3.784 127.829 3.784C128.341 3.656 129.141 3.592 130.229 3.592C131.381 3.528 132.213 3.432 132.725 3.304ZM159.989 3.304C160.181 3.432 160.469 3.496 160.853 3.496C161.301 3.496 161.653 3.592 161.909 3.784C161.973 3.784 162.005 3.656 162.005 3.4C162.325 3.464 162.709 3.464 163.157 3.4C163.157 3.528 163.125 3.624 163.061 3.688C162.997 3.752 162.901 3.816 162.773 3.88C162.709 3.88 162.645 3.912 162.581 3.976C162.453 3.912 162.165 3.976 161.717 4.168C161.333 4.36 161.077 4.264 160.949 3.88C160.821 3.944 160.597 4.008 160.277 4.072C159.957 4.136 159.733 4.232 159.605 4.36C159.605 4.232 159.573 4.136 159.509 4.072C159.509 3.944 159.541 3.848 159.605 3.784C159.669 3.656 159.733 3.656 159.797 3.784C159.925 3.848 160.053 3.88 160.181 3.88C160.245 3.752 160.213 3.656 160.085 3.592C160.021 3.528 159.989 3.432 159.989 3.304ZM163.541 3.304C163.733 3.368 163.925 3.4 164.117 3.4C164.309 3.336 164.501 3.336 164.693 3.4C164.693 3.528 164.629 3.656 164.501 3.784C164.437 3.848 164.341 3.944 164.213 4.072C164.149 4.136 164.085 4.2 164.021 4.264C164.021 4.2 163.701 4.168 163.061 4.168C163.061 4.04 163.125 3.912 163.253 3.784C163.445 3.592 163.541 3.432 163.541 3.304ZM163.733 3.688C163.605 3.688 163.541 3.72 163.541 3.784C163.669 3.784 163.733 3.752 163.733 3.688ZM167.861 3.4C167.925 3.336 167.989 3.304 168.053 3.304C168.117 3.304 168.149 3.336 168.149 3.4H167.861ZM156.245 3.976L156.053 3.88C155.861 3.816 155.765 3.72 155.765 3.592C156.149 3.656 156.469 3.656 156.725 3.592C156.725 3.656 156.629 3.72 156.437 3.784C156.309 3.848 156.245 3.912 156.245 3.976ZM168.629 3.688C168.629 3.752 168.661 3.784 168.725 3.784C168.853 3.912 168.885 4.04 168.821 4.168H167.669C167.605 3.976 167.733 3.88 168.053 3.88C168.245 3.816 168.341 3.72 168.341 3.592C168.405 3.592 168.501 3.624 168.629 3.688ZM171.893 3.688L171.701 3.88L171.797 3.976C171.733 4.168 171.605 4.232 171.413 4.168C171.285 4.104 171.189 4.136 171.125 4.264C170.997 4.264 170.965 4.136 171.029 3.88C171.029 3.752 171.029 3.656 171.029 3.592C171.093 3.592 171.157 3.656 171.221 3.784C171.413 3.976 171.509 3.912 171.509 3.592C171.509 3.656 171.573 3.656 171.701 3.592C171.829 3.528 171.893 3.56 171.893 3.688ZM179.381 3.688C179.509 3.304 179.765 3.304 180.149 3.688C180.085 3.816 179.893 3.88 179.573 3.88C179.573 3.752 179.509 3.688 179.381 3.688ZM181.013 3.88C181.013 3.816 181.045 3.752 181.109 3.688V3.592C181.429 3.72 181.589 3.912 181.589 4.168C181.461 4.232 181.333 4.2 181.205 4.072C181.141 3.944 181.077 3.88 181.013 3.88ZM127.733 3.976H127.253C127.253 4.232 127.349 4.424 127.541 4.552C127.733 4.68 127.925 4.744 128.117 4.744C128.373 4.68 128.565 4.552 128.693 4.36C128.757 4.36 128.885 4.424 129.077 4.552C129.269 4.616 129.397 4.68 129.461 4.744C129.525 4.744 129.621 4.648 129.749 4.456C129.877 4.456 129.941 4.552 129.941 4.744C129.941 4.936 129.973 5.032 130.037 5.032C130.293 4.648 130.517 4.392 130.709 4.264C130.773 4.264 130.837 4.328 130.901 4.456C131.029 4.52 131.125 4.552 131.189 4.552C131.253 4.552 131.285 4.488 131.285 4.36C131.285 4.232 131.317 4.168 131.381 4.168C131.509 4.488 131.701 4.68 131.957 4.744L132.053 4.456C132.117 4.264 132.245 4.2 132.437 4.264C132.309 4.52 132.277 4.808 132.341 5.128C132.277 5.128 132.181 5.16 132.053 5.224C131.989 5.352 131.893 5.384 131.765 5.32C131.701 5.192 131.733 5.096 131.861 5.032C131.925 5.032 131.957 5 131.957 4.936C131.957 4.808 131.893 4.808 131.765 4.936C131.637 5 131.541 4.968 131.477 4.84C131.413 4.84 131.381 5 131.381 5.32C131.253 5.384 131.157 5.32 131.093 5.128C131.093 4.936 131.061 4.84 130.997 4.84C130.869 4.904 130.805 5.032 130.805 5.224C130.869 5.352 130.837 5.416 130.709 5.416C130.645 5.416 130.549 5.288 130.421 5.032C129.973 5.288 129.717 5.288 129.653 5.032C129.589 5.032 129.557 5.16 129.557 5.416C129.365 5.288 129.077 5.288 128.693 5.416C128.693 5.032 128.501 4.872 128.117 4.936C128.117 5.064 128.181 5.16 128.309 5.224C128.437 5.224 128.469 5.288 128.405 5.416C128.277 5.48 128.085 5.512 127.829 5.512C127.829 5.384 127.733 5.256 127.541 5.128C127.413 4.936 127.349 4.808 127.349 4.744C127.285 4.744 127.253 4.776 127.253 4.84C127.125 4.968 126.997 5 126.869 4.936C126.805 4.808 126.837 4.712 126.965 4.648C127.093 4.584 127.157 4.52 127.157 4.456C127.029 4.264 126.837 4.136 126.581 4.072C126.325 4.008 125.941 4.008 125.429 4.072C124.981 4.136 124.725 4.168 124.661 4.168C124.661 4.232 124.725 4.296 124.853 4.36C124.981 4.36 125.013 4.424 124.949 4.552C124.821 4.424 124.661 4.392 124.469 4.456C124.341 4.52 124.309 4.648 124.373 4.84C124.373 4.904 124.437 4.936 124.565 4.936C124.693 4.872 124.789 4.872 124.853 4.936C124.533 5.128 124.437 5.32 124.565 5.512C124.501 5.448 124.405 5.448 124.277 5.512C124.149 5.576 124.053 5.608 123.989 5.608C123.989 5.544 124.021 5.48 124.085 5.416V5.32C123.957 5.32 123.765 5.384 123.509 5.512C123.317 5.64 123.125 5.704 122.933 5.704C122.869 5.576 122.773 5.512 122.645 5.512L122.549 5.416C122.485 5.288 122.517 5.224 122.645 5.224C122.773 5.16 122.805 5.064 122.741 4.936C123.573 4.936 124.021 4.968 124.085 5.032C124.277 5.032 124.309 4.936 124.181 4.744C124.117 4.488 124.085 4.328 124.085 4.264C124.021 4.264 123.893 4.328 123.701 4.456C123.573 4.52 123.445 4.584 123.317 4.648C123.253 4.648 123.093 4.616 122.837 4.552C122.645 4.232 122.357 4.136 121.973 4.264C121.589 4.392 121.205 4.616 120.821 4.936C121.013 5 121.237 5.032 121.493 5.032C121.813 5.032 122.101 5.032 122.357 5.032C122.293 5.16 122.261 5.352 122.261 5.608C122.069 5.8 121.685 5.864 121.109 5.8C120.533 5.672 120.245 5.736 120.245 5.992C120.053 5.8 119.797 5.768 119.477 5.896C119.605 5.64 119.573 5.512 119.381 5.512C119.253 5.448 119.189 5.512 119.189 5.704C119.125 5.768 119.093 5.832 119.093 5.896C119.029 5.832 118.997 5.768 118.997 5.704L118.901 5.512C118.069 5.512 117.653 5.704 117.653 6.088C117.333 5.448 117.077 5.416 116.885 5.992C116.693 5.608 116.181 5.672 115.349 6.184C115.093 6.056 114.933 5.896 114.869 5.704C114.869 5.768 114.837 5.832 114.773 5.896C114.709 5.96 114.677 6.024 114.677 6.088C114.613 5.96 114.453 5.928 114.197 5.992C113.941 5.992 113.749 5.896 113.621 5.704C113.493 5.768 113.461 5.864 113.525 5.992C113.653 6.12 113.653 6.184 113.525 6.184C113.397 6.184 113.301 6.152 113.237 6.088C113.237 6.024 113.237 5.928 113.237 5.8C113.237 5.672 113.205 5.576 113.141 5.512C113.973 5.512 114.741 5.384 115.445 5.128C115.765 5.256 116.853 5.256 118.709 5.128C118.837 5.128 118.901 5.096 118.901 5.032C118.901 4.904 118.901 4.808 118.901 4.744C118.965 4.616 119.093 4.552 119.285 4.552C119.349 4.68 119.317 4.776 119.189 4.84C119.125 4.904 119.093 4.968 119.093 5.032C119.093 5.096 119.157 5.128 119.285 5.128C119.477 5.128 119.605 5.128 119.669 5.128C119.797 5.128 119.861 5.064 119.861 4.936C119.861 4.808 119.861 4.712 119.861 4.648C119.925 4.52 120.053 4.456 120.245 4.456C120.309 4.712 120.213 4.904 119.957 5.032C120.149 5.16 120.437 4.936 120.821 4.36C120.757 4.296 120.661 4.264 120.533 4.264C120.405 4.328 120.309 4.36 120.245 4.36C120.245 4.296 120.245 4.168 120.245 3.976C120.373 4.04 120.597 4.04 120.917 3.976C121.237 3.912 121.397 3.976 121.397 4.168C121.525 4.104 123.285 3.976 126.677 3.784C126.805 3.784 126.933 3.784 127.061 3.784C127.253 3.72 127.413 3.688 127.541 3.688C127.669 3.688 127.733 3.784 127.733 3.976ZM123.509 5.416C123.573 5.288 123.509 5.16 123.317 5.032C123.317 5.288 123.381 5.416 123.509 5.416ZM115.349 5.896C115.285 5.896 115.221 5.896 115.157 5.896H115.349ZM171.893 3.688C172.021 3.688 172.085 3.72 172.085 3.784C171.957 3.784 171.893 3.752 171.893 3.688ZM181.013 3.88C181.013 4.072 180.853 4.168 180.533 4.168C180.533 4.04 180.565 3.944 180.629 3.88C180.693 3.816 180.725 3.752 180.725 3.688L180.821 3.784C180.885 3.848 180.949 3.88 181.013 3.88ZM90.3886 3.88C90.3886 3.816 90.4526 3.784 90.5806 3.784C90.5806 3.848 90.5166 3.88 90.3886 3.88ZM165.173 3.784C165.237 3.912 165.205 4.008 165.077 4.072C165.013 4.072 164.949 4.04 164.885 3.976H164.693C164.693 3.848 164.853 3.784 165.173 3.784ZM169.973 4.168C169.909 4.168 169.813 4.168 169.685 4.168C169.557 4.168 169.461 4.168 169.397 4.168C169.397 4.104 169.397 4.008 169.397 3.88C169.525 3.752 169.653 3.72 169.781 3.784C169.909 3.848 169.973 3.976 169.973 4.168ZM178.133 3.784H178.421C178.421 3.912 178.293 3.976 178.037 3.976C178.037 3.912 178.037 3.88 178.037 3.88C178.101 3.88 178.133 3.848 178.133 3.784ZM148.085 3.976C148.213 3.912 148.277 3.912 148.277 3.976C148.341 4.168 148.277 4.36 148.085 4.552C147.957 4.552 147.925 4.488 147.989 4.36C148.053 4.168 148.085 4.04 148.085 3.976ZM119.957 4.168C119.765 4.296 119.381 4.424 118.805 4.552C118.293 4.616 117.909 4.776 117.653 5.032C117.653 4.776 117.781 4.68 118.037 4.744C118.037 4.68 117.973 4.648 117.845 4.648C117.781 4.584 117.749 4.52 117.749 4.456C117.557 4.648 117.333 4.776 117.077 4.84C116.885 4.904 116.661 4.936 116.405 4.936C116.213 4.872 115.957 4.872 115.637 4.936C115.573 4.744 115.637 4.648 115.829 4.648C115.893 4.648 115.925 4.616 115.925 4.552C115.733 4.424 115.477 4.424 115.157 4.552C114.837 4.616 114.613 4.584 114.485 4.456C115.189 4.264 117.013 4.168 119.957 4.168ZM132.917 3.976C133.301 3.976 133.493 4.104 133.493 4.36C133.045 4.36 132.821 4.296 132.821 4.168C132.885 4.104 132.917 4.04 132.917 3.976ZM134.165 3.976C134.293 4.04 134.357 4.136 134.357 4.264C134.421 4.328 134.389 4.392 134.261 4.456H135.317C135.253 4.584 135.253 4.712 135.317 4.84C135.381 4.968 135.413 5.064 135.413 5.128C134.197 5.128 133.461 5.192 133.205 5.32C133.013 5 132.821 4.808 132.629 4.744C132.693 4.68 132.853 4.648 133.109 4.648C133.429 4.584 133.621 4.648 133.685 4.84C133.749 4.776 133.813 4.648 133.877 4.456C133.941 4.2 134.037 4.04 134.165 3.976ZM136.181 4.168C136.181 4.232 136.085 4.264 135.893 4.264C135.701 4.264 135.573 4.264 135.509 4.264C135.573 4.008 135.797 3.976 136.181 4.168ZM156.245 3.976H156.629C156.629 4.104 156.533 4.2 156.341 4.264C156.149 4.328 156.053 4.392 156.053 4.456C155.925 4.392 155.925 4.328 156.053 4.264C156.181 4.136 156.245 4.04 156.245 3.976ZM111.125 4.264C111.189 4.264 111.221 4.36 111.221 4.552C111.349 4.552 111.765 4.52 112.469 4.456C113.237 4.328 113.845 4.296 114.293 4.36C114.229 4.424 114.101 4.552 113.909 4.744C113.717 4.872 113.557 4.968 113.429 5.032C113.429 4.968 113.429 4.904 113.429 4.84C113.493 4.776 113.525 4.68 113.525 4.552C113.333 4.616 112.981 4.776 112.469 5.032C111.957 5.224 111.637 5.32 111.509 5.32C111.381 5.32 111.061 5.256 110.549 5.128C110.485 5.064 110.453 5.032 110.453 5.032C110.517 4.968 110.581 4.936 110.645 4.936C110.773 4.936 110.837 4.904 110.837 4.84C110.837 4.776 110.773 4.744 110.645 4.744C110.581 4.744 110.485 4.776 110.357 4.84C110.293 4.84 110.197 4.808 110.069 4.744C109.941 4.744 109.877 4.872 109.877 5.128C109.749 5.128 109.749 4.936 109.877 4.552C110.581 4.552 110.997 4.456 111.125 4.264ZM150.965 4.264C150.965 4.456 150.933 4.616 150.869 4.744C150.805 4.744 150.741 4.712 150.677 4.648C150.613 4.584 150.549 4.552 150.485 4.552C150.549 4.552 150.613 4.52 150.677 4.456C150.741 4.328 150.837 4.264 150.965 4.264ZM102.197 5.32H102.389C102.261 5.064 102.197 5.064 102.197 5.32H101.813C101.749 5.128 101.813 5.032 102.005 5.032C102.325 5.032 102.517 5.128 102.581 5.32C102.773 5.128 103.125 5.032 103.637 5.032C104.213 5.032 104.661 4.968 104.981 4.84C105.109 4.776 105.173 4.84 105.173 5.032C105.237 5.224 105.301 5.32 105.365 5.32C105.493 5.32 105.525 5.256 105.461 5.128C105.397 5 105.365 4.904 105.365 4.84C105.493 4.84 106.133 4.808 107.285 4.744C108.501 4.68 109.237 4.68 109.493 4.744C109.429 4.808 109.429 5 109.493 5.32C109.301 5.32 109.013 5.32 108.629 5.32C108.245 5.32 107.893 5.352 107.573 5.416C107.573 5.224 107.605 5.096 107.669 5.032C107.477 5.032 107.381 5 107.381 4.936C107.253 5 107.157 5.128 107.093 5.32C107.093 5.512 107.061 5.608 106.997 5.608C105.525 5.544 103.893 5.544 102.101 5.608C102.101 5.544 102.133 5.48 102.197 5.416V5.32ZM106.133 5.128H106.421V4.936H106.133V5.128ZM147.509 4.744C147.509 4.68 147.541 4.616 147.605 4.552C147.733 4.488 147.829 4.488 147.893 4.552L147.509 4.744ZM141.845 4.744H142.133C142.133 4.872 142.005 4.936 141.749 4.936C141.749 4.872 141.749 4.84 141.749 4.84C141.813 4.84 141.845 4.808 141.845 4.744ZM101.429 4.936C101.365 5.128 101.365 5.288 101.429 5.416C101.493 5.544 101.493 5.608 101.429 5.608C101.301 5.672 101.237 5.576 101.237 5.32C101.109 5.256 101.013 5.256 100.949 5.32C100.885 5.384 100.821 5.416 100.757 5.416C100.821 5.48 100.853 5.64 100.853 5.896C100.789 5.832 100.693 5.8 100.565 5.8C100.309 5.736 100.181 5.608 100.181 5.416C99.9246 5.608 99.4126 5.736 98.6446 5.8C97.9406 5.864 97.4926 5.96 97.3006 6.088C97.1726 6.088 97.0766 5.992 97.0126 5.8C96.9486 5.544 96.8206 5.448 96.6286 5.512C96.4366 5.576 96.4046 5.64 96.5326 5.704C96.6606 5.832 96.7246 5.928 96.7246 5.992C96.5326 6.056 96.3726 6.024 96.2446 5.896C96.1166 5.768 95.9886 5.704 95.8606 5.704V5.8C95.9246 5.928 95.9246 6.024 95.8606 6.088C95.7966 6.152 95.6366 6.152 95.3806 6.088C95.1246 6.024 94.9966 6.088 94.9966 6.28C94.6126 6.024 94.2606 5.992 93.9406 6.184C93.8126 6.12 93.7486 5.992 93.7486 5.8C93.7486 5.608 93.8126 5.48 93.9406 5.416C94.5806 5.544 95.7966 5.416 97.5886 5.032C97.5886 5.16 97.7166 5.224 97.9726 5.224C98.2286 5.224 98.3886 5.32 98.4526 5.512C98.7726 5.256 99.2846 5.128 99.9886 5.128C100.757 5.064 101.237 5 101.429 4.936ZM97.7806 5.608C97.8446 5.736 97.9086 5.8 97.9726 5.8C98.1006 5.736 98.1646 5.64 98.1646 5.512C98.1006 5.384 98.0046 5.352 97.8766 5.416C97.8126 5.416 97.7806 5.48 97.7806 5.608ZM136.181 5.032C136.245 4.968 136.309 4.936 136.373 4.936C136.437 4.936 136.469 4.968 136.469 5.032H136.181ZM126.101 5.128C126.357 5.32 126.837 5.32 127.541 5.128C127.541 5.448 127.317 5.608 126.869 5.608C126.421 5.608 126.165 5.448 126.101 5.128ZM118.613 5.704L118.037 5.992C118.037 5.8 118.101 5.704 118.229 5.704C118.421 5.64 118.549 5.64 118.613 5.704ZM89.2366 7.432C89.2366 7.496 89.3006 7.56 89.4286 7.624C89.5566 7.624 89.5886 7.688 89.5246 7.816C89.4606 7.752 89.3646 7.784 89.2366 7.912C89.1726 7.912 89.0766 7.912 88.9486 7.912C88.9486 7.848 88.9806 7.784 89.0446 7.72C89.1086 7.592 89.1726 7.496 89.2366 7.432ZM90.0046 7.432C90.2606 7.496 90.2926 7.624 90.1006 7.816H89.9086V7.624C89.9726 7.624 90.0046 7.56 90.0046 7.432ZM75.8926 8.488C75.8926 8.744 75.7966 8.872 75.6046 8.872V8.584C75.7326 8.584 75.7646 8.552 75.7006 8.488H75.8926ZM72.0526 8.968C72.2446 8.968 72.3086 9.096 72.2446 9.352L72.0526 9.448C71.8606 9.576 71.7326 9.576 71.6686 9.448C71.6686 9.384 71.7326 9.32 71.8606 9.256C72.0526 9.192 72.1166 9.096 72.0526 8.968ZM69.6526 9.352H69.8446V9.544H69.6526V9.352ZM64.5646 9.448C64.7566 9.448 64.7566 9.544 64.5646 9.736C64.5006 9.864 64.4366 9.928 64.3726 9.928C64.3086 9.8 64.3086 9.704 64.3726 9.64C64.5006 9.576 64.5646 9.512 64.5646 9.448ZM66.1966 9.544C66.1966 9.48 66.2606 9.448 66.3886 9.448C66.3886 9.512 66.3246 9.544 66.1966 9.544ZM65.2366 9.928C65.2366 9.864 65.3006 9.832 65.4286 9.832L65.5246 9.736C65.5246 9.8 65.4606 9.832 65.3326 9.832L65.2366 9.928Z" fill="#FF6F61"/>
</svg>
