<svg width="111" height="14" viewBox="0 0 111 14" fill="none" xmlns="http://www.w3.org/2000/svg">
<path opacity="0.8" d="M75.72 1.472C75.656 1.376 75.544 1.344 75.384 1.376C75.224 1.408 75.144 1.456 75.144 1.52C75.112 1.52 75.064 1.52 75 1.52C74.936 1.52 74.888 1.52 74.856 1.52C74.856 1.488 74.856 1.44 74.856 1.376C74.984 1.408 75.096 1.408 75.192 1.376C74.168 1.088 73.576 1.104 73.416 1.424C73.416 1.328 73.416 1.28 73.416 1.28C73.416 1.248 73.384 1.232 73.32 1.232C73.256 1.232 73.192 1.216 73.128 1.184C73.096 1.216 73.08 1.296 73.08 1.424C72.984 1.424 72.952 1.408 72.984 1.376C73.016 1.28 73 1.216 72.936 1.184C72.84 1.184 72.744 1.232 72.648 1.328C72.584 1.424 72.504 1.44 72.408 1.376C72.408 1.344 72.44 1.328 72.504 1.328C72.568 1.328 72.6 1.328 72.6 1.328C72.6 1.296 72.6 1.248 72.6 1.184C72.536 1.152 72.408 1.152 72.216 1.184C72.056 1.216 71.912 1.2 71.784 1.136C71.752 1.136 71.736 1.184 71.736 1.28C71.736 1.344 71.736 1.392 71.736 1.424C71.672 1.392 71.64 1.344 71.64 1.28C71.672 1.216 71.672 1.168 71.64 1.136C71.512 1.168 71.368 1.168 71.208 1.136C71.08 1.104 70.936 1.104 70.776 1.136C70.744 1.136 70.696 1.184 70.632 1.28C70.568 1.344 70.52 1.376 70.488 1.376C70.456 1.376 70.392 1.36 70.296 1.328C70.296 1.264 70.312 1.232 70.344 1.232C70.408 1.232 70.456 1.264 70.488 1.328C70.52 1.328 70.536 1.296 70.536 1.232C70.568 1.136 70.6 1.088 70.632 1.088C70.568 1.024 70.408 1.024 70.152 1.088C69.896 1.152 69.736 1.104 69.672 0.943999C69.64 1.008 69.56 1.04 69.432 1.04C69.336 1.04 69.256 1.056 69.192 1.088C69.128 1.088 69.112 1.136 69.144 1.232C69.048 1.392 68.984 1.36 68.952 1.136C68.952 1.104 68.952 1.072 68.952 1.04C68.728 1.072 68.376 1.088 67.896 1.088C67.416 1.088 67.048 1.104 66.792 1.136C66.792 1.2 66.84 1.232 66.936 1.232C67 1.232 67.032 1.28 67.032 1.376H66.6V1.136C66.504 1.104 66.424 1.152 66.36 1.28C66.36 1.312 66.344 1.344 66.312 1.376C66.28 1.376 66.264 1.344 66.264 1.28C66.264 1.152 66.2 1.104 66.072 1.136C66.04 1.136 66.024 1.168 66.024 1.232C66.056 1.296 66.056 1.344 66.024 1.376C65.992 1.344 65.912 1.344 65.784 1.376C65.656 1.376 65.56 1.376 65.496 1.376C65.496 1.28 65.576 1.232 65.736 1.232C65.896 1.232 65.976 1.2 65.976 1.136C65.912 1.104 65.704 1.12 65.352 1.184C65 1.216 64.824 1.2 64.824 1.136C64.728 1.168 64.696 1.232 64.728 1.328C64.76 1.392 64.728 1.424 64.632 1.424H64.488V1.136C64.36 1.2 64.184 1.216 63.96 1.184C63.736 1.12 63.576 1.12 63.48 1.184C63.48 1.248 63.48 1.296 63.48 1.328C63.512 1.328 63.576 1.328 63.672 1.328C63.736 1.328 63.768 1.344 63.768 1.376C63.736 1.408 63.608 1.424 63.384 1.424V1.136C63.288 1.136 63.16 1.152 63 1.184C62.872 1.184 62.808 1.168 62.808 1.136C62.776 1.136 62.76 1.184 62.76 1.28C62.76 1.408 62.712 1.456 62.616 1.424C62.584 1.392 62.584 1.36 62.616 1.328C62.68 1.264 62.712 1.216 62.712 1.184C62.552 1.184 62.344 1.2 62.088 1.232C61.864 1.232 61.64 1.232 61.416 1.232C61.352 1.232 61.336 1.264 61.368 1.328C61.432 1.392 61.448 1.44 61.416 1.472C61.192 1.536 61.064 1.552 61.032 1.52C61.032 1.456 61.064 1.424 61.128 1.424C61.192 1.424 61.24 1.408 61.272 1.376C61.272 1.312 61.256 1.28 61.224 1.28C61.192 1.248 61.128 1.232 61.032 1.232C60.968 1.232 60.92 1.232 60.888 1.232C60.856 1.296 60.856 1.36 60.888 1.424C60.952 1.456 60.984 1.488 60.984 1.52C60.92 1.552 60.824 1.568 60.696 1.568C60.568 1.568 60.472 1.584 60.408 1.616C60.376 1.584 60.36 1.536 60.36 1.472C60.328 1.408 60.264 1.376 60.168 1.376C60.136 1.376 60.152 1.408 60.216 1.472C60.28 1.504 60.296 1.552 60.264 1.616C60.168 1.648 59.704 1.664 58.872 1.664C58.968 1.568 59.08 1.504 59.208 1.472C59.368 1.44 59.528 1.44 59.688 1.472L59.976 1.52V1.376C59.304 1.376 56.424 1.568 51.336 1.952C51.24 2.016 51.112 2.08 50.952 2.144C50.824 2.208 50.712 2.272 50.616 2.336C50.616 2.272 50.584 2.24 50.52 2.24C50.488 2.24 50.488 2.256 50.52 2.288C50.552 2.32 50.584 2.336 50.616 2.336C50.616 2.368 50.584 2.416 50.52 2.48C49.784 2.512 49 2.608 48.168 2.768V2.576C47.976 2.672 47.848 2.688 47.784 2.624C47.688 2.752 47.544 2.832 47.352 2.864C47.192 2.896 47.064 2.832 46.968 2.672C46.456 2.768 45.688 2.896 44.664 3.056C43.672 3.216 42.936 3.36 42.456 3.488C42.392 3.52 42.344 3.504 42.312 3.44C42.248 3.408 42.2 3.392 42.168 3.392C42.136 3.392 42.104 3.408 42.072 3.44L42.024 3.488C41.736 3.52 41.112 3.632 40.152 3.824C39.192 3.984 38.424 4.048 37.848 4.016C37.56 4.112 37.4 4.192 37.368 4.256C37.304 4.288 37.256 4.272 37.224 4.208L37.128 4.112C37.096 4.112 37.064 4.16 37.032 4.256C37.032 4.32 37.016 4.352 36.984 4.352C36.76 4.288 36.392 4.32 35.88 4.448C35.4 4.576 35.032 4.624 34.776 4.592C33.816 4.848 33.208 4.944 32.952 4.88C30.968 5.264 29.72 5.472 29.208 5.504C29.24 5.408 29.384 5.36 29.64 5.36C29.896 5.36 30.04 5.312 30.072 5.216C29.656 5.152 29.032 5.232 28.2 5.456C27.4 5.648 26.76 5.744 26.28 5.744C25.416 6 24.808 6.128 24.456 6.128C24.392 6.192 24.36 6.272 24.36 6.368C24.36 6.432 24.344 6.496 24.312 6.56C24.152 6.496 24.136 6.4 24.264 6.272C23.976 6.304 23.8 6.352 23.736 6.416H22.824C22.824 6.544 22.84 6.64 22.872 6.704C22.904 6.736 22.968 6.736 23.064 6.704C21.016 7.28 19.384 7.648 18.168 7.808C18.168 7.776 18.184 7.744 18.216 7.712C18.248 7.648 18.248 7.584 18.216 7.52C18.024 7.52 17.848 7.568 17.688 7.664C17.72 7.696 17.784 7.696 17.88 7.664C18.008 7.632 18.072 7.664 18.072 7.76C17.944 8.016 17.704 8.08 17.352 7.952C17.224 8.112 16.984 8.208 16.632 8.24C16.28 8.272 16.056 8.336 15.96 8.432L15.816 8.384C15.752 8.352 15.704 8.32 15.672 8.288C15.672 8.192 15.72 8.144 15.816 8.144C15.944 8.112 16.024 8.144 16.056 8.24C16.088 8.144 16.136 8.096 16.2 8.096C16.296 8.064 16.36 8.032 16.392 8C16.328 7.936 16.248 7.92 16.152 7.952C16.088 7.952 15.992 7.984 15.864 8.048C15.736 8.08 15.64 8.096 15.576 8.096C15.544 8.16 15.544 8.224 15.576 8.288C15.608 8.32 15.624 8.352 15.624 8.384C15.56 8.416 15.384 8.48 15.096 8.576C14.84 8.64 14.68 8.72 14.616 8.816C14.616 8.88 14.648 8.896 14.712 8.864C14.776 8.8 14.84 8.784 14.904 8.816C14.904 8.88 14.888 8.96 14.856 9.056C14.824 9.12 14.84 9.168 14.904 9.2C14.968 9.232 15.016 9.216 15.048 9.152C15.112 9.12 15.16 9.104 15.192 9.104C15.192 9.072 15.16 9.04 15.096 9.008C15.032 8.944 15.016 8.88 15.048 8.816C15.08 8.784 15.16 8.784 15.288 8.816C15.416 8.816 15.48 8.768 15.48 8.672C15.544 8.736 15.512 8.8 15.384 8.864C15.352 8.896 15.32 8.928 15.288 8.96C15.256 8.96 15.24 8.976 15.24 9.008C15.592 9.04 16.12 8.96 16.824 8.768C17.56 8.576 18.12 8.464 18.504 8.432C18.536 8.336 18.488 8.272 18.36 8.24C18.232 8.208 18.168 8.16 18.168 8.096C18.36 8.064 18.968 7.952 19.992 7.76C21.016 7.536 21.768 7.36 22.248 7.232V7.184C22.216 7.152 22.2 7.12 22.2 7.088C22.232 7.152 22.44 7.184 22.824 7.184C22.728 7.344 22.536 7.456 22.248 7.52C21.992 7.552 21.816 7.6 21.72 7.664C21.784 7.728 21.864 7.728 21.96 7.664C22.088 7.6 22.184 7.6 22.248 7.664C22.248 7.728 22.232 7.776 22.2 7.808C22.488 7.872 22.904 7.824 23.448 7.664C23.384 7.6 23.32 7.584 23.256 7.616C23.224 7.616 23.144 7.632 23.016 7.664C22.888 7.696 22.776 7.696 22.68 7.664C22.808 7.536 22.952 7.456 23.112 7.424C23.304 7.36 23.512 7.328 23.736 7.328C23.992 7.296 24.152 7.264 24.216 7.232C24.184 7.36 24.072 7.424 23.88 7.424C23.688 7.424 23.576 7.472 23.544 7.568C23.992 7.632 24.408 7.568 24.792 7.376C24.856 7.472 24.856 7.6 24.792 7.76C24.696 7.76 23.896 7.92 22.392 8.24C22.392 8.208 22.392 8.176 22.392 8.144C22.424 8.08 22.44 8.032 22.44 8C22.184 8.064 22.04 8.112 22.008 8.144C21.976 8.176 21.96 8.224 21.96 8.288C21.416 8.384 21.08 8.48 20.952 8.576C20.952 8.544 20.936 8.512 20.904 8.48C20.872 8.416 20.856 8.368 20.856 8.336C20.824 8.336 20.76 8.352 20.664 8.384C20.568 8.416 20.488 8.432 20.424 8.432C20.392 8.432 20.344 8.416 20.28 8.384C20.248 8.448 20.296 8.608 20.424 8.864C20.36 8.896 20.264 8.928 20.136 8.96C20.04 8.96 19.976 8.96 19.944 8.96C19.912 8.896 19.944 8.848 20.04 8.816C20.136 8.784 20.184 8.752 20.184 8.72C19.64 8.72 19.32 8.784 19.224 8.912C19.128 8.88 19.064 8.816 19.032 8.72C18.904 8.912 18.84 9.072 18.84 9.2C18.776 9.232 18.712 9.248 18.648 9.248C18.616 9.216 18.584 9.216 18.552 9.248C18.52 9.216 18.568 9.168 18.696 9.104C18.632 9.04 18.376 9.04 17.928 9.104C17.928 9.136 17.944 9.184 17.976 9.248C18.008 9.28 18.008 9.328 17.976 9.392C17.912 9.392 17.832 9.408 17.736 9.44C17.64 9.472 17.528 9.488 17.4 9.488C17.4 9.392 17.448 9.328 17.544 9.296C17.576 9.296 17.608 9.28 17.64 9.248C17.64 9.184 17.56 9.152 17.4 9.152C17.368 9.152 17.352 9.2 17.352 9.296C17.288 9.424 17.24 9.504 17.208 9.536C17.176 9.536 17.192 9.456 17.256 9.296C17.192 9.328 17.112 9.36 17.016 9.392C16.92 9.392 16.824 9.392 16.728 9.392C16.664 9.392 16.584 9.424 16.488 9.488C16.424 9.552 16.392 9.648 16.392 9.776C16.296 9.744 16.28 9.68 16.344 9.584C16.376 9.52 16.392 9.472 16.392 9.44C16.168 9.408 16.056 9.488 16.056 9.68C15.608 9.68 15.352 9.776 15.288 9.968C15 9.744 14.68 9.776 14.328 10.064C14.232 10.064 14.184 10 14.184 9.872C14.12 9.936 14.024 10.064 13.896 10.256C13.832 10.192 13.72 10.16 13.56 10.16C13.432 10.16 13.336 10.144 13.272 10.112C13.24 10.144 13.192 10.208 13.128 10.304C13.096 10.368 13.048 10.432 12.984 10.496C12.952 10.528 12.888 10.544 12.792 10.544C12.728 10.576 12.696 10.528 12.696 10.4C12.696 10.336 12.68 10.304 12.648 10.304C12.456 10.432 12.248 10.48 12.024 10.448C11.896 10.704 11.656 10.816 11.304 10.784C10.952 10.72 10.712 10.8 10.584 11.024C10.52 11.056 10.472 11.04 10.44 10.976C10.44 10.912 10.424 10.88 10.392 10.88C10.328 10.912 10.296 10.96 10.296 11.024C10.328 11.088 10.296 11.12 10.2 11.12L10.152 11.168L10.008 11.024C10.008 11.088 9.944 11.136 9.816 11.168C9.72 11.2 9.688 11.248 9.72 11.312C9.688 11.312 9.624 11.296 9.528 11.264C9.464 11.232 9.4 11.232 9.336 11.264C9.208 11.424 8.952 11.536 8.568 11.6C8.216 11.632 7.96 11.712 7.8 11.84C7.128 11.872 6.328 12.032 5.4 12.32C4.472 12.608 3.8 12.784 3.384 12.848C3.32 12.88 3.224 12.912 3.096 12.944C2.968 12.976 2.872 13.008 2.808 13.04C2.744 13.072 2.664 13.12 2.568 13.184C2.472 13.216 2.392 13.28 2.328 13.376C2.264 13.44 2.2 13.52 2.136 13.616H1.56C0.856 12.72 0.616 11.824 0.84 10.928C2.728 10.576 4.248 10.208 5.4 9.824C7.448 9.44 10.744 8.688 15.288 7.568C17.592 7.152 19.224 6.816 20.184 6.56C20.216 6.56 20.264 6.56 20.328 6.56C20.456 6.528 20.52 6.544 20.52 6.608C22.504 6.064 24.968 5.568 27.912 5.12C28.232 4.864 28.536 4.8 28.824 4.928C29.08 4.832 29.496 4.752 30.072 4.688C30.68 4.592 31.128 4.48 31.416 4.352C31.896 4.32 32.536 4.224 33.336 4.064C34.136 3.872 34.84 3.76 35.448 3.728C36.856 3.44 37.896 3.28 38.568 3.248C39.272 3.088 39.88 3.024 40.392 3.056C40.712 2.896 41.176 2.8 41.784 2.768C42.392 2.704 42.792 2.624 42.984 2.528C43.112 2.592 43.192 2.624 43.224 2.624C43.32 2.592 43.432 2.544 43.56 2.48C43.976 2.512 44.536 2.448 45.24 2.288C45.976 2.128 46.52 2.048 46.872 2.048C46.904 2.048 46.968 2.096 47.064 2.192C47.128 2.096 47.224 2.032 47.352 2C47.48 1.968 47.576 1.984 47.64 2.048C48.056 1.952 48.664 1.872 49.464 1.808C50.264 1.712 50.808 1.648 51.096 1.616C51.224 1.616 51.304 1.648 51.336 1.712C51.4 1.712 51.448 1.68 51.48 1.616C51.512 1.552 51.544 1.52 51.576 1.52C52.024 1.52 52.744 1.472 53.736 1.376C54.728 1.248 55.432 1.2 55.848 1.232C58.28 0.911999 61.576 0.719999 65.736 0.655999C66.184 0.592 66.952 0.56 68.04 0.56C69.16 0.56 69.832 0.56 70.056 0.56C70.152 0.623999 70.2 0.687999 70.2 0.751999C70.232 0.751999 70.264 0.719999 70.296 0.655999C70.328 0.592 70.36 0.56 70.392 0.56C73.08 0.623999 75.368 0.719999 77.256 0.847999C77.448 0.911999 77.768 0.991999 78.216 1.088C78.664 1.184 79.016 1.28 79.272 1.376C79.336 1.696 79.432 1.888 79.56 1.952C79.56 2.016 79.544 2.08 79.512 2.144C79.48 2.176 79.464 2.224 79.464 2.288C79.592 2.416 79.656 2.56 79.656 2.72C79.688 2.88 79.672 3.072 79.608 3.296C79.576 3.488 79.56 3.632 79.56 3.728C79.304 4.272 78.92 4.72 78.408 5.072C77.896 5.424 77.272 5.76 76.536 6.08C75.8 6.4 75.256 6.688 74.904 6.944C75.288 7.168 75.928 7.312 76.824 7.376C77.752 7.408 78.328 7.456 78.552 7.52C79.224 7.456 80.248 7.456 81.624 7.52C83.032 7.584 84.184 7.568 85.08 7.472C85.976 7.472 88.312 7.472 92.088 7.472C95.896 7.472 98.792 7.536 100.776 7.664C105.576 7.888 108.504 8.096 109.56 8.288C109.56 8.448 109.432 8.496 109.176 8.432C108.952 8.336 108.792 8.32 108.696 8.384C106.296 7.968 104.136 7.84 102.216 8C100.84 7.776 99.768 7.76 99 7.952C97.784 7.76 96.296 7.76 94.536 7.952C94.44 7.856 94.344 7.808 94.248 7.808C94.152 7.808 94.04 7.84 93.912 7.904C93.784 7.936 93.688 7.952 93.624 7.952C93.496 7.952 93.304 7.936 93.048 7.904C92.792 7.84 92.584 7.808 92.424 7.808C91.656 7.872 90.376 7.92 88.584 7.952C86.792 7.952 85.88 7.952 85.848 7.952H82.152C82.088 7.952 82.04 7.984 82.008 8.048C81.976 8.112 81.928 8.144 81.864 8.144C81.48 8.016 80.728 8.016 79.608 8.144C79.608 8.208 79.64 8.272 79.704 8.336C79.704 8.4 79.736 8.416 79.8 8.384C79.896 8.352 79.96 8.336 79.992 8.336C79.992 8.464 79.944 8.544 79.848 8.576C79.784 8.576 79.688 8.576 79.56 8.576C79.432 8.544 79.336 8.528 79.272 8.528C79.048 8.528 78.584 8.576 77.88 8.672C77.208 8.736 76.696 8.736 76.344 8.672C76.376 8.704 76.424 8.736 76.488 8.768C76.584 8.8 76.648 8.832 76.68 8.864C76.744 8.864 76.792 8.896 76.824 8.96C76.888 9.024 76.92 9.088 76.92 9.152C76.472 9.184 75.864 9.152 75.096 9.056C74.36 8.96 73.848 8.912 73.56 8.912C73.176 8.464 73.16 7.776 73.512 6.848C73.448 6.848 73.384 6.896 73.32 6.992C73.32 7.088 73.272 7.12 73.176 7.088C73.336 6.192 73.704 5.488 74.28 4.976C74.856 4.432 75.592 3.952 76.488 3.536C77.384 3.088 78.04 2.688 78.456 2.336C78.296 2.336 77.96 2.288 77.448 2.192C76.936 2.064 76.552 2.016 76.296 2.048C76.232 2.08 76.216 2.112 76.248 2.144C76.28 2.176 76.28 2.208 76.248 2.24C75.992 2.016 75.576 1.904 75 1.904C74.424 1.904 74.04 1.872 73.848 1.808C73.816 1.808 73.784 1.824 73.752 1.856C73.72 1.888 73.672 1.92 73.608 1.952C73.576 1.984 73.544 2 73.512 2C73.128 1.744 72.92 1.744 72.888 2C72.856 2 72.84 1.968 72.84 1.904L72.792 1.808C72.472 1.872 71.928 1.872 71.16 1.808C70.424 1.744 69.944 1.792 69.72 1.952C69.688 1.792 69.544 1.728 69.288 1.76C69.032 1.792 68.792 1.856 68.568 1.952C68.472 1.952 68.44 1.936 68.472 1.904C68.504 1.84 68.52 1.792 68.52 1.76C68.264 1.76 67.976 1.824 67.656 1.952V1.76C67.4 1.824 67 1.84 66.456 1.808C65.944 1.776 65.56 1.824 65.304 1.952C65.304 1.92 65.256 1.888 65.16 1.856C65.064 1.824 65.032 1.776 65.064 1.712C65.736 1.616 66.104 1.536 66.168 1.472C66.2 1.6 66.312 1.68 66.504 1.712C66.696 1.712 66.84 1.648 66.936 1.52C67.32 1.52 68.808 1.536 71.4 1.568C73.992 1.568 75.944 1.632 77.256 1.76C77.288 1.76 77.272 1.712 77.208 1.616C77.176 1.584 77.176 1.536 77.208 1.472C77.016 1.504 76.76 1.504 76.44 1.472C76.152 1.408 75.944 1.376 75.816 1.376C75.816 1.472 75.784 1.504 75.72 1.472ZM60.504 1.328C60.504 1.392 60.536 1.44 60.6 1.472C60.728 1.504 60.792 1.456 60.792 1.328C60.792 1.296 60.792 1.264 60.792 1.232C60.76 1.232 60.712 1.248 60.648 1.28C60.616 1.344 60.568 1.36 60.504 1.328ZM77.736 1.808V1.76C77.672 1.792 77.608 1.792 77.544 1.76C77.512 1.728 77.48 1.712 77.448 1.712C77.48 1.84 77.576 1.872 77.736 1.808V1.904H78.024C78.024 1.872 78.024 1.84 78.024 1.808C78.056 1.744 78.072 1.696 78.072 1.664C78.008 1.696 77.944 1.696 77.88 1.664C77.848 1.632 77.8 1.616 77.736 1.616C77.736 1.648 77.752 1.696 77.784 1.76C77.816 1.792 77.8 1.808 77.736 1.808ZM78.888 1.904C78.664 1.68 78.488 1.632 78.36 1.76C78.616 1.888 78.792 1.936 78.888 1.904ZM78.36 2C78.392 2 78.408 2.016 78.408 2.048C78.408 2.048 78.424 2.048 78.456 2.048L78.552 1.952C78.52 1.952 78.488 1.936 78.456 1.904H78.408V1.952L78.36 2ZM48.504 2.384C48.6 2.416 48.696 2.4 48.792 2.336C48.824 2.304 48.808 2.272 48.744 2.24C48.744 2.272 48.696 2.288 48.6 2.288C48.536 2.288 48.504 2.32 48.504 2.384ZM47.784 2.48H48.216C48.248 2.384 48.2 2.336 48.072 2.336C47.912 2.304 47.816 2.352 47.784 2.48ZM47.304 2.528C47.464 2.56 47.576 2.544 47.64 2.48C47.672 2.416 47.64 2.368 47.544 2.336C47.544 2.4 47.496 2.448 47.4 2.48C47.336 2.48 47.304 2.496 47.304 2.528ZM48.408 2.336C48.376 2.368 48.36 2.384 48.36 2.384H48.312C48.376 2.384 48.408 2.368 48.408 2.336ZM45.24 2.768C45.208 2.768 45.192 2.736 45.192 2.672H45.048C45.016 2.736 45.048 2.784 45.144 2.816L45.24 2.768C45.656 2.832 46.008 2.768 46.296 2.576C45.72 2.64 45.368 2.704 45.24 2.768ZM41.544 3.152V3.056C41.512 2.96 41.48 2.912 41.448 2.912C41.352 3.168 41.08 3.312 40.632 3.344C40.184 3.344 39.896 3.408 39.768 3.536C43.128 3.056 44.856 2.8 44.952 2.768C44.6 2.8 44.056 2.864 43.32 2.96C42.584 3.056 41.992 3.12 41.544 3.152ZM38.04 3.92C38.136 3.888 38.392 3.84 38.808 3.776C39.224 3.712 39.512 3.6 39.672 3.44C39.544 3.472 39.352 3.52 39.096 3.584C38.84 3.616 38.6 3.664 38.376 3.728C38.184 3.76 38.072 3.824 38.04 3.92ZM34.392 4.304C34.328 4.304 34.296 4.32 34.296 4.352C34.168 4.224 34.072 4.24 34.008 4.4C34.2 4.4 34.296 4.384 34.296 4.352C34.36 4.352 34.392 4.336 34.392 4.304C34.52 4.432 34.616 4.416 34.68 4.256C34.552 4.224 34.456 4.24 34.392 4.304ZM33.144 4.592C33.592 4.592 33.848 4.512 33.912 4.352C33.848 4.384 33.72 4.416 33.528 4.448C33.336 4.48 33.208 4.528 33.144 4.592ZM31.08 4.976C31.336 5.008 31.656 4.976 32.04 4.88C32.424 4.752 32.728 4.688 32.952 4.688C32.696 4.592 32.072 4.688 31.08 4.976ZM30.168 5.216H30.264V5.12H30.168V5.216ZM21.72 6.896C21.784 6.896 21.928 6.864 22.152 6.8C22.408 6.736 22.552 6.736 22.584 6.8C22.68 6.576 22.712 6.448 22.68 6.416C22.616 6.544 22.44 6.64 22.152 6.704C21.896 6.736 21.752 6.8 21.72 6.896ZM21.096 6.944C20.84 6.912 20.568 6.96 20.28 7.088C20.216 7.12 20.104 7.12 19.944 7.088C19.784 7.088 19.704 7.152 19.704 7.28C19.864 7.248 20.056 7.216 20.28 7.184C20.504 7.152 20.696 7.12 20.856 7.088C21.048 7.056 21.208 7.008 21.336 6.944C21.464 7.04 21.576 7.024 21.672 6.896C21.704 6.864 21.672 6.832 21.576 6.8C21.544 6.832 21.464 6.848 21.336 6.848C21.208 6.848 21.128 6.88 21.096 6.944ZM19.32 7.376C19.48 7.376 19.576 7.328 19.608 7.232C19.416 7.232 19.32 7.28 19.32 7.376ZM18.792 7.376C18.792 7.504 18.872 7.536 19.032 7.472C19.128 7.408 19.16 7.344 19.128 7.28C19.096 7.28 19.048 7.296 18.984 7.328C18.92 7.36 18.856 7.376 18.792 7.376ZM18.36 7.568C18.488 7.536 18.552 7.488 18.552 7.424C18.552 7.456 18.52 7.472 18.456 7.472C18.424 7.472 18.392 7.488 18.36 7.52C18.36 7.52 18.36 7.536 18.36 7.568ZM20.664 7.952C21.272 7.76 21.592 7.664 21.624 7.664C21.176 7.504 20.856 7.6 20.664 7.952ZM16.92 7.76V7.856H17.016C17.016 7.824 17.032 7.808 17.064 7.808V7.712H16.968C16.968 7.744 16.952 7.76 16.92 7.76ZM21.624 8.048C21.848 8.048 22.008 7.968 22.104 7.808C21.784 7.904 21.624 7.984 21.624 8.048ZM18.552 8.24C18.552 8.272 18.568 8.32 18.6 8.384C18.664 8.416 18.68 8.464 18.648 8.528C17.656 8.752 17.08 8.864 16.92 8.864C16.984 9.056 17.24 9.072 17.688 8.912C18.168 8.752 18.488 8.72 18.648 8.816C18.808 8.56 19 8.512 19.224 8.672C19.32 8.48 19.496 8.416 19.752 8.48C20.008 8.512 20.184 8.432 20.28 8.24H20.136C20.04 8.24 19.992 8.208 19.992 8.144C20.12 8.08 20.264 8.048 20.424 8.048C20.232 7.952 20.056 7.92 19.896 7.952C19.768 7.952 19.56 8 19.272 8.096C18.984 8.192 18.744 8.24 18.552 8.24ZM20.76 8.144C21.144 8.144 21.368 8.128 21.432 8.096C21.4 7.968 21.304 7.936 21.144 8C21.016 8.032 20.888 8.08 20.76 8.144ZM78.648 8.096C78.616 8.064 78.52 8.048 78.36 8.048C78.328 8.144 78.36 8.192 78.456 8.192C78.584 8.192 78.648 8.16 78.648 8.096ZM79.464 8.384C79.56 8.288 79.592 8.192 79.56 8.096C79.432 8.064 79.272 8.064 79.08 8.096C78.92 8.096 78.792 8.08 78.696 8.048C78.728 8.176 78.776 8.256 78.84 8.288C78.936 8.32 79.048 8.336 79.176 8.336C79.304 8.336 79.4 8.352 79.464 8.384ZM14.184 8.912H14.472C14.472 8.848 14.44 8.8 14.376 8.768C14.344 8.736 14.328 8.704 14.328 8.672C14.296 8.704 14.264 8.752 14.232 8.816C14.2 8.848 14.184 8.88 14.184 8.912ZM12.408 9.248V9.296C12.504 9.264 12.664 9.248 12.888 9.248C13.144 9.216 13.368 9.184 13.56 9.152C13.784 9.088 13.96 9.008 14.088 8.912C13.832 8.88 13.272 8.992 12.408 9.248ZM16.68 9.008H16.776V8.912H16.68V9.008ZM15.624 9.248C15.912 9.376 16.168 9.296 16.392 9.008C16.264 9.072 16.12 9.12 15.96 9.152C15.8 9.184 15.688 9.216 15.624 9.248ZM15.336 9.248C15.144 9.312 15.032 9.312 15 9.248C14.968 9.376 15.016 9.44 15.144 9.44C15.24 9.408 15.304 9.344 15.336 9.248ZM14.904 9.44C14.872 9.44 14.824 9.44 14.76 9.44H14.904ZM13.56 9.776C13.656 9.776 13.736 9.744 13.8 9.68C13.64 9.616 13.56 9.648 13.56 9.776ZM13.272 9.776C13.336 9.776 13.4 9.744 13.464 9.68C13.4 9.68 13.336 9.712 13.272 9.776ZM11.256 10.16C11.288 10.16 11.352 10.16 11.448 10.16C11.544 10.128 11.608 10.112 11.64 10.112C11.64 10.048 11.608 10.016 11.544 10.016C11.48 9.984 11.416 10 11.352 10.064C11.288 10.096 11.256 10.128 11.256 10.16ZM69.768 1.184C69.832 1.248 69.896 1.264 69.96 1.232V1.28C69.928 1.312 69.912 1.344 69.912 1.376H69.768V1.184ZM67.8 1.232H67.944V1.376H67.8V1.232ZM69.528 1.328C69.592 1.296 69.64 1.296 69.672 1.328H69.528ZM62.472 1.52C62.376 1.488 62.216 1.488 61.992 1.52C61.768 1.552 61.64 1.504 61.608 1.376C61.704 1.408 61.8 1.408 61.896 1.376C62.024 1.344 62.136 1.344 62.232 1.376C62.36 1.376 62.44 1.424 62.472 1.52ZM63 1.328H63.288C63.288 1.424 63.16 1.472 62.904 1.472C62.968 1.408 63 1.36 63 1.328ZM64.152 1.328C64.184 1.392 64.104 1.424 63.912 1.424C63.912 1.296 63.992 1.264 64.152 1.328ZM72.072 1.376C72.072 1.344 72.12 1.328 72.216 1.328C72.216 1.36 72.168 1.376 72.072 1.376ZM73.8 1.424C73.8 1.392 73.848 1.376 73.944 1.376C73.944 1.408 73.896 1.424 73.8 1.424ZM76.248 1.472C76.28 1.504 76.344 1.536 76.44 1.568C76.568 1.568 76.632 1.6 76.632 1.664C76.376 1.568 76.248 1.504 76.248 1.472ZM58.488 1.712C57.688 1.84 57.144 1.872 56.856 1.808C56.824 1.744 56.824 1.712 56.856 1.712C56.92 1.68 57 1.664 57.096 1.664C57.192 1.664 57.288 1.68 57.384 1.712C57.48 1.712 57.56 1.712 57.624 1.712C58.168 1.584 58.456 1.584 58.488 1.712ZM58.68 1.52C58.744 1.584 58.776 1.648 58.776 1.712C58.712 1.712 58.68 1.648 58.68 1.52ZM64.872 1.712C64.776 1.84 64.552 1.904 64.2 1.904C63.88 1.904 63.672 1.936 63.576 2C63.48 1.936 63.432 1.856 63.432 1.76C63.688 1.76 63.944 1.76 64.2 1.76C64.456 1.728 64.68 1.712 64.872 1.712ZM56.52 1.76C56.232 1.92 55.864 1.968 55.416 1.904C55.544 1.84 55.752 1.808 56.04 1.808L56.52 1.76ZM63.336 1.904C63.304 1.904 63.24 1.92 63.144 1.952C63.048 1.984 62.968 2 62.904 2C62.84 1.968 62.808 1.888 62.808 1.76C62.872 1.76 62.952 1.76 63.048 1.76C63.208 1.728 63.304 1.776 63.336 1.904ZM62.712 1.808C62.264 2.096 61.592 2.144 60.696 1.952C61.048 1.856 61.72 1.808 62.712 1.808ZM59.112 1.808C59.144 1.808 59.16 1.84 59.16 1.904H60.12C60.088 2 60.008 2.064 59.88 2.096C59.752 2.128 59.56 2.144 59.304 2.144C59.08 2.112 58.92 2.096 58.824 2.096C58.824 2.032 58.84 2 58.872 2C58.936 2 59 2 59.064 2C59.128 1.968 59.144 1.904 59.112 1.808ZM60.6 1.904C60.6 1.968 60.536 2 60.408 2C60.408 1.872 60.472 1.84 60.6 1.904ZM68.232 1.952L68.28 1.904L68.328 1.952H68.232ZM53.4 2.048C53.272 2.112 53.032 2.176 52.68 2.24C52.36 2.304 52.184 2.336 52.152 2.336C52.152 2.304 52.136 2.256 52.104 2.192C52.072 2.128 52.072 2.064 52.104 2C52.232 2.096 52.44 2.112 52.728 2.048C53.048 1.984 53.272 1.984 53.4 2.048ZM53.976 2C53.976 2.064 53.912 2.112 53.784 2.144C53.656 2.144 53.592 2.096 53.592 2C53.624 1.936 53.688 1.904 53.784 1.904C53.88 1.904 53.944 1.936 53.976 2ZM58.728 2.048C58.152 2.304 57.512 2.368 56.808 2.24C57.192 2.112 57.832 2.048 58.728 2.048ZM51.816 2.096C51.816 2.224 51.736 2.288 51.576 2.288C51.64 2.16 51.72 2.096 51.816 2.096ZM51.096 2.192H51.336C51.368 2.256 51.352 2.304 51.288 2.336C51.16 2.368 51.096 2.32 51.096 2.192ZM51.912 2.24C51.912 2.208 51.96 2.192 52.056 2.192C52.056 2.224 52.008 2.24 51.912 2.24ZM56.424 2.24L55.704 2.384C55.736 2.128 55.976 2.08 56.424 2.24ZM61.704 2.192C61.832 2.16 61.896 2.192 61.896 2.288H61.704V2.192ZM68.952 2.384C68.888 2.384 68.776 2.416 68.616 2.48C68.488 2.512 68.392 2.528 68.328 2.528C68.296 2.496 68.28 2.4 68.28 2.24C68.664 2.24 68.888 2.288 68.952 2.384ZM70.536 2.192C70.568 2.288 70.552 2.352 70.488 2.384C70.424 2.416 70.392 2.464 70.392 2.528C70.36 2.496 70.312 2.48 70.248 2.48C70.248 2.288 70.344 2.192 70.536 2.192ZM61.272 2.24C61.24 2.304 61.16 2.336 61.032 2.336C61 2.272 61.08 2.24 61.272 2.24ZM61.992 2.288C61.992 2.256 62.04 2.24 62.136 2.24C62.136 2.272 62.088 2.288 61.992 2.288ZM67.32 2.24C67.352 2.272 67.4 2.288 67.464 2.288C67.464 2.352 67.448 2.4 67.416 2.432C67.384 2.432 67.352 2.4 67.32 2.336V2.24ZM67.608 2.24H67.8C67.832 2.336 67.8 2.368 67.704 2.336C67.672 2.336 67.64 2.336 67.608 2.336V2.24ZM68.04 2.24C68.136 2.336 68.136 2.432 68.04 2.528C68.04 2.56 68.008 2.576 67.944 2.576C67.944 2.512 67.96 2.464 67.992 2.432C68.024 2.368 68.04 2.304 68.04 2.24ZM55.128 2.336C54.968 2.4 54.744 2.448 54.456 2.48C54.168 2.48 53.976 2.496 53.88 2.528C54.008 2.4 54.424 2.336 55.128 2.336ZM55.32 2.288H55.608C55.64 2.416 55.528 2.48 55.272 2.48V2.384C55.304 2.352 55.32 2.32 55.32 2.288ZM63.192 2.864C62.584 2.768 62.232 2.8 62.136 2.96C62.136 2.896 62.152 2.848 62.184 2.816C62.152 2.816 61.832 2.848 61.224 2.912C60.648 2.944 60.344 2.912 60.312 2.816C60.312 2.784 60.36 2.752 60.456 2.72C60.584 2.656 60.632 2.576 60.6 2.48C60.792 2.544 61.128 2.56 61.608 2.528C62.088 2.464 62.408 2.448 62.568 2.48C62.472 2.544 62.456 2.576 62.52 2.576C62.712 2.608 62.808 2.624 62.808 2.624C62.872 2.592 62.904 2.56 62.904 2.528C62.904 2.432 62.936 2.368 63 2.336C63.064 2.336 63.112 2.384 63.144 2.48C63.208 2.544 63.256 2.576 63.288 2.576C63.352 2.608 63.384 2.528 63.384 2.336C63.48 2.432 63.688 2.432 64.008 2.336C64.008 2.368 63.992 2.416 63.96 2.48C63.96 2.512 63.96 2.544 63.96 2.576C64.184 2.448 64.584 2.352 65.16 2.288C65.16 2.416 65.032 2.448 64.776 2.384C64.744 2.48 64.744 2.544 64.776 2.576C64.84 2.576 64.92 2.576 65.016 2.576C64.568 2.832 64.088 2.848 63.576 2.624C63.352 2.688 63.224 2.768 63.192 2.864ZM63.864 2.528C63.832 2.528 63.816 2.528 63.816 2.528C63.816 2.496 63.8 2.48 63.768 2.48H63.672C63.64 2.544 63.656 2.592 63.72 2.624C63.816 2.624 63.864 2.592 63.864 2.528ZM65.304 2.288H65.784C65.816 2.352 65.8 2.4 65.736 2.432C65.704 2.464 65.688 2.496 65.688 2.528C65.752 2.528 65.848 2.528 65.976 2.528C66.104 2.496 66.168 2.496 66.168 2.528C65.688 2.688 65.352 2.736 65.16 2.672C65.16 2.608 65.176 2.544 65.208 2.48C65.272 2.416 65.304 2.352 65.304 2.288ZM66.024 2.336C66.024 2.304 66.072 2.288 66.168 2.288C66.168 2.32 66.12 2.336 66.024 2.336ZM71.448 2.288C71.48 2.288 71.512 2.304 71.544 2.336C71.576 2.336 71.608 2.336 71.64 2.336C71.64 2.4 71.592 2.432 71.496 2.432C71.432 2.4 71.416 2.352 71.448 2.288ZM53.688 2.336C53.72 2.336 53.736 2.368 53.736 2.432C53.768 2.464 53.8 2.48 53.832 2.48C53.736 2.576 53.576 2.624 53.352 2.624C53.16 2.592 53.016 2.592 52.92 2.624C52.888 2.56 52.904 2.512 52.968 2.48C53.064 2.448 53.16 2.448 53.256 2.48C53.352 2.48 53.448 2.48 53.544 2.48C53.64 2.448 53.688 2.4 53.688 2.336ZM66.936 2.336C67.032 2.368 67.08 2.432 67.08 2.528C66.984 2.496 66.936 2.432 66.936 2.336ZM70.104 2.384V2.528C70.04 2.528 69.992 2.512 69.96 2.48C69.992 2.448 70.04 2.416 70.104 2.384ZM72.984 2.384H73.032C73.096 2.384 73.128 2.368 73.128 2.336C73.128 2.368 73.08 2.384 72.984 2.384ZM60.456 2.384C60.456 2.48 60.44 2.56 60.408 2.624C60.376 2.656 60.328 2.656 60.264 2.624C60.296 2.624 60.312 2.592 60.312 2.528C60.344 2.4 60.392 2.352 60.456 2.384ZM67.176 2.528C67.176 2.496 67.224 2.48 67.32 2.48C67.32 2.512 67.272 2.528 67.176 2.528ZM52.776 2.576C51.944 2.864 51.448 2.88 51.288 2.624C51.448 2.656 51.688 2.64 52.008 2.576C52.328 2.512 52.584 2.512 52.776 2.576ZM57.144 2.528C57.144 2.56 57.112 2.576 57.048 2.576C57.016 2.576 57 2.592 57 2.624C56.872 2.592 56.872 2.56 57 2.528C57.064 2.528 57.112 2.528 57.144 2.528ZM59.688 2.96C59.656 2.928 59.56 2.944 59.4 3.008C59.272 3.04 59.192 3.008 59.16 2.912C59.096 2.944 59.064 2.992 59.064 3.056C59.096 3.12 59.096 3.152 59.064 3.152C58.872 3.088 58.76 3.072 58.728 3.104C58.728 3.072 58.728 3.056 58.728 3.056L58.776 2.96H58.632C58.536 2.96 58.488 2.992 58.488 3.056C58.456 3.056 58.392 3.04 58.296 3.008C58.232 2.976 58.184 2.992 58.152 3.056C58.056 3.024 58.056 2.96 58.152 2.864L58.2 2.816C58.104 2.784 57.992 2.784 57.864 2.816C57.896 2.848 57.912 2.944 57.912 3.104C57.752 3.008 57.72 2.928 57.816 2.864C57.624 2.896 57.576 3.024 57.672 3.248C57.608 3.28 57.528 3.264 57.432 3.2C57.496 3.168 57.512 3.12 57.48 3.056C57.448 2.992 57.432 2.944 57.432 2.912C57.528 2.944 57.576 2.944 57.576 2.912C57.608 2.848 57.624 2.768 57.624 2.672C58.104 2.672 58.376 2.656 58.44 2.624C58.44 2.72 58.472 2.768 58.536 2.768C58.6 2.832 58.648 2.864 58.68 2.864C58.68 2.8 58.632 2.768 58.536 2.768C58.728 2.64 58.968 2.592 59.256 2.624C59.576 2.624 59.832 2.592 60.024 2.528C60.088 2.592 60.04 2.672 59.88 2.768C59.752 2.864 59.688 2.928 59.688 2.96ZM59.304 2.816H59.4V2.672H59.304V2.816ZM59.544 2.816C59.672 2.816 59.736 2.768 59.736 2.672C59.704 2.672 59.672 2.672 59.64 2.672C59.576 2.672 59.528 2.688 59.496 2.72C59.496 2.72 59.512 2.752 59.544 2.816ZM55.992 2.624C55.96 2.624 55.656 2.672 55.08 2.768C55.336 2.608 55.64 2.56 55.992 2.624ZM50.232 2.624L50.328 2.672C50.328 2.704 50.36 2.736 50.424 2.768H50.52C50.52 2.8 50.504 2.832 50.472 2.864C50.44 2.864 50.392 2.864 50.328 2.864C50.264 2.864 50.2 2.864 50.136 2.864C50.104 2.864 50.088 2.88 50.088 2.912C49.992 2.848 49.992 2.8 50.088 2.768C50.216 2.736 50.264 2.688 50.232 2.624ZM54.12 2.672C54.152 2.672 54.184 2.688 54.216 2.72L54.264 2.768H54.12C54.088 2.736 54.088 2.704 54.12 2.672ZM56.376 2.864C56.44 2.864 56.472 2.848 56.472 2.816C56.536 2.816 56.568 2.864 56.568 2.96C56.632 2.992 56.68 2.992 56.712 2.96C56.776 2.896 56.808 2.896 56.808 2.96C56.84 2.96 56.872 2.928 56.904 2.864C56.936 2.768 56.984 2.736 57.048 2.768C57.112 2.928 57.224 2.992 57.384 2.96C57.384 3.024 57.192 3.088 56.808 3.152C56.808 3.184 56.824 3.216 56.856 3.248C56.856 3.344 56.808 3.36 56.712 3.296C56.616 3.2 56.568 3.216 56.568 3.344C56.344 3.152 56.024 3.12 55.608 3.248C55.544 3.184 55.528 3.088 55.56 2.96C55.528 2.96 55.48 2.976 55.416 3.008C55.384 3.04 55.352 3.056 55.32 3.056C55.448 3.184 55.368 3.264 55.08 3.296C54.92 3.296 54.776 3.28 54.648 3.248C54.712 3.216 54.712 3.168 54.648 3.104C54.584 3.04 54.552 2.976 54.552 2.912C55.032 2.944 55.4 2.928 55.656 2.864C55.688 2.928 55.928 2.992 56.376 3.056V2.864ZM60.024 2.768H60.072C60.136 2.8 60.184 2.816 60.216 2.816C60.184 2.912 60.088 2.96 59.928 2.96C59.896 2.896 59.912 2.848 59.976 2.816C60.008 2.816 60.024 2.8 60.024 2.768ZM49.944 2.96C49.816 2.96 49.656 2.992 49.464 3.056C49.272 3.088 49.08 3.104 48.888 3.104C49.016 2.944 49.208 2.848 49.464 2.816C49.72 2.784 49.88 2.832 49.944 2.96ZM52.248 2.864C52.344 2.896 52.376 2.944 52.344 3.008C52.312 3.072 52.248 3.088 52.152 3.056C52.152 3.024 52.168 2.992 52.2 2.96C52.232 2.928 52.248 2.896 52.248 2.864ZM53.064 2.864C53.032 2.96 52.92 3.024 52.728 3.056C52.568 3.056 52.472 3.008 52.44 2.912C52.504 2.88 52.6 2.864 52.728 2.864C52.856 2.864 52.968 2.864 53.064 2.864ZM55.896 2.864H55.992V2.96H55.896V2.864ZM48.888 2.912C48.824 2.976 48.792 3.04 48.792 3.104H48.504C48.504 3.04 48.552 3.008 48.648 3.008C48.776 2.976 48.856 2.944 48.888 2.912ZM48.408 2.96C48.408 3.12 48.248 3.2 47.928 3.2C47.928 3.104 47.944 3.056 47.976 3.056C48.04 3.024 48.104 3.008 48.168 3.008C48.264 3.008 48.344 2.992 48.408 2.96ZM51.96 2.96C51.928 3.024 51.768 3.088 51.48 3.152C51.48 3.024 51.64 2.96 51.96 2.96ZM53.976 2.96C54.136 2.96 54.136 3.04 53.976 3.2C54.136 3.264 54.328 3.264 54.552 3.2C54.168 3.488 53.848 3.6 53.592 3.536C53.624 3.504 53.688 3.488 53.784 3.488C53.88 3.456 53.944 3.44 53.976 3.44C53.976 3.408 53.96 3.36 53.928 3.296C53.928 3.232 53.928 3.168 53.928 3.104C53.928 3.04 53.944 2.992 53.976 2.96ZM54.408 2.96C54.408 3.056 54.328 3.104 54.168 3.104C54.168 3.008 54.248 2.96 54.408 2.96ZM59.688 2.96C59.816 3.024 59.88 3.056 59.88 3.056C59.88 3.12 59.832 3.136 59.736 3.104C59.672 3.072 59.656 3.024 59.688 2.96ZM47.784 3.104C47.336 3.232 47.096 3.28 47.064 3.248C47.096 3.152 47.336 3.104 47.784 3.104ZM53.832 3.104C53.8 3.136 53.784 3.232 53.784 3.392C53.752 3.392 53.688 3.392 53.592 3.392C53.528 3.392 53.464 3.408 53.4 3.44C53.368 3.472 53.368 3.536 53.4 3.632H53.112L53.208 3.536C53.272 3.504 53.288 3.456 53.256 3.392C53.288 3.392 53.4 3.344 53.592 3.248C53.592 3.184 53.56 3.152 53.496 3.152C53.496 3.088 53.528 3.056 53.592 3.056C53.688 3.024 53.768 3.04 53.832 3.104ZM58.488 3.056C58.584 3.056 58.616 3.104 58.584 3.2C58.52 3.2 58.488 3.152 58.488 3.056ZM51.192 3.152C51.192 3.12 51.224 3.104 51.288 3.104C51.288 3.136 51.256 3.152 51.192 3.152ZM53.304 3.248C53.112 3.184 53.032 3.248 53.064 3.44H52.776C52.808 3.312 52.888 3.216 53.016 3.152C53.144 3.088 53.24 3.12 53.304 3.248ZM46.92 3.152C46.92 3.216 46.936 3.248 46.968 3.248C46.616 3.376 46.2 3.44 45.72 3.44C45.752 3.408 46.152 3.312 46.92 3.152ZM52.728 3.2C52.728 3.264 52.648 3.376 52.488 3.536C52.456 3.536 52.424 3.504 52.392 3.44C52.36 3.376 52.312 3.344 52.248 3.344C52.216 3.408 52.152 3.488 52.056 3.584C51.96 3.648 51.912 3.712 51.912 3.776C51.816 3.808 51.784 3.792 51.816 3.728C51.848 3.632 51.864 3.568 51.864 3.536C51.352 3.632 51.096 3.76 51.096 3.92C50.904 3.728 50.696 3.664 50.472 3.728C50.504 3.664 50.504 3.6 50.472 3.536C50.44 3.472 50.424 3.424 50.424 3.392C50.808 3.392 51.224 3.36 51.672 3.296C52.152 3.232 52.504 3.2 52.728 3.2ZM57.288 3.152C57.448 3.216 57.432 3.28 57.24 3.344C57.144 3.344 57.08 3.312 57.048 3.248C57.08 3.184 57.16 3.152 57.288 3.152ZM49.656 3.248C49.368 3.44 49.144 3.488 48.984 3.392C49.016 3.296 49.112 3.248 49.272 3.248C49.464 3.216 49.592 3.216 49.656 3.248ZM49.752 3.248C49.752 3.216 49.768 3.2 49.8 3.2C49.832 3.2 49.848 3.216 49.848 3.248H49.752ZM45.528 3.344H45.624V3.44H45.528V3.344ZM45.048 3.392C44.952 3.52 44.744 3.616 44.424 3.68C44.104 3.712 43.896 3.664 43.8 3.536C44.024 3.568 44.264 3.552 44.52 3.488C44.776 3.424 44.952 3.392 45.048 3.392ZM50.232 3.392C50.264 3.392 50.296 3.408 50.328 3.44C50.264 3.472 50.216 3.504 50.184 3.536V3.44C50.216 3.44 50.232 3.424 50.232 3.392ZM47.736 3.488C47.384 3.712 47.144 3.712 47.016 3.488C47.08 3.52 47.192 3.52 47.352 3.488C47.512 3.424 47.64 3.424 47.736 3.488ZM49.848 3.728C49.752 3.792 49.544 3.824 49.224 3.824C49.32 3.728 49.32 3.664 49.224 3.632C49.192 3.632 49.144 3.648 49.08 3.68C49.112 3.584 49.224 3.536 49.416 3.536C49.64 3.536 49.784 3.504 49.848 3.44C49.784 3.568 49.784 3.664 49.848 3.728ZM48.744 3.536H48.888V3.68H48.744V3.536ZM43.128 3.632C43.192 3.6 43.24 3.6 43.272 3.632C43.336 3.632 43.352 3.68 43.32 3.776C43.32 3.744 43.288 3.728 43.224 3.728C43.128 3.728 43.096 3.696 43.128 3.632ZM45.816 3.632C45.88 3.632 45.928 3.632 45.96 3.632C46.024 3.6 46.104 3.6 46.2 3.632C46.232 3.696 46.2 3.744 46.104 3.776C45.944 3.776 45.848 3.728 45.816 3.632ZM48.6 3.776C48.536 3.84 48.504 3.904 48.504 3.968C48.408 3.936 48.344 3.936 48.312 3.968C48.312 4 48.312 4.032 48.312 4.064V4.112H48.216C48.216 4.048 48.216 4 48.216 3.968C48.184 4 47.992 4.016 47.64 4.016C47.64 3.888 47.624 3.808 47.592 3.776C48.008 3.616 48.344 3.616 48.6 3.776ZM50.328 3.632C50.264 3.696 50.232 3.744 50.232 3.776C50.2 3.776 50.168 3.776 50.136 3.776C50.104 3.744 50.072 3.728 50.04 3.728C50.072 3.664 50.168 3.632 50.328 3.632ZM51.384 3.68C51.576 3.712 51.592 3.76 51.432 3.824C51.4 3.856 51.352 3.856 51.288 3.824L51.336 3.776C51.368 3.744 51.384 3.712 51.384 3.68ZM42.6 3.728C42.6 3.824 42.52 3.904 42.36 3.968C42.2 4 42.04 4.016 41.88 4.016C41.72 4.016 41.608 4 41.544 3.968C41.64 3.872 41.816 3.824 42.072 3.824C42.328 3.792 42.504 3.76 42.6 3.728ZM44.904 3.824C44.776 3.888 44.536 3.952 44.184 4.016C44.248 3.888 44.488 3.824 44.904 3.824ZM44.904 3.824L45.048 3.824C45.08 3.856 45.08 3.888 45.048 3.92L45 3.872C44.968 3.84 44.936 3.824 44.904 3.824ZM46.728 4.016H46.584C46.584 4.08 46.616 4.112 46.68 4.112C46.68 4.144 46.664 4.176 46.632 4.208L46.584 4.256C46.488 4.256 46.44 4.144 46.44 3.92C46.536 3.92 46.632 3.904 46.728 3.872C46.856 3.808 46.968 3.776 47.064 3.776C47.096 3.872 47.048 3.936 46.92 3.968C46.792 3.968 46.728 3.984 46.728 4.016ZM47.448 3.776C47.416 3.872 47.336 3.92 47.208 3.92C47.176 3.824 47.224 3.776 47.352 3.776C47.384 3.776 47.416 3.776 47.448 3.776ZM41.448 3.92C41.192 4.176 40.888 4.24 40.536 4.112C40.6 4.016 40.664 3.968 40.728 3.968C40.824 3.936 40.92 3.936 41.016 3.968C41.144 3.968 41.288 3.952 41.448 3.92ZM43.848 3.92C43.752 4.08 43.512 4.128 43.128 4.064C43.192 4.032 43.304 4.016 43.464 4.016C43.656 3.984 43.784 3.952 43.848 3.92ZM43.512 4.352C43.8 4.256 44.28 4.176 44.952 4.112C45.624 4.016 46.072 3.952 46.296 3.92V4.208C46.072 4.048 45.896 4.064 45.768 4.256C45.64 4.16 45.48 4.16 45.288 4.256C45.128 4.32 45 4.32 44.904 4.256L44.856 4.304C44.824 4.304 44.792 4.304 44.76 4.304C44.76 4.368 44.792 4.416 44.856 4.448C44.92 4.48 44.936 4.528 44.904 4.592C44.808 4.624 44.744 4.592 44.712 4.496C44.712 4.432 44.696 4.4 44.664 4.4C44.632 4.4 44.616 4.48 44.616 4.64C44.552 4.576 44.424 4.576 44.232 4.64C44.072 4.704 43.96 4.672 43.896 4.544C43.8 4.704 43.672 4.752 43.512 4.688C43.48 4.656 43.496 4.592 43.56 4.496C43.656 4.432 43.64 4.384 43.512 4.352ZM46.728 4.016C46.792 4.016 46.808 4.048 46.776 4.112C46.776 4.144 46.744 4.144 46.68 4.112L46.728 4.064V4.016ZM40.008 4.112C39.976 4.176 39.912 4.224 39.816 4.256C39.752 4.288 39.72 4.32 39.72 4.352L39.672 4.304C39.64 4.272 39.608 4.256 39.576 4.256C39.608 4.192 39.672 4.144 39.768 4.112C39.864 4.048 39.944 4.048 40.008 4.112ZM40.152 4.112C40.184 4.08 40.248 4.064 40.344 4.064C40.344 4.096 40.28 4.112 40.152 4.112ZM42.6 4.064C42.568 4.16 42.424 4.208 42.168 4.208C42.232 4.144 42.296 4.112 42.36 4.112C42.456 4.112 42.536 4.096 42.6 4.064ZM48.408 4.112H48.456C48.488 4.112 48.504 4.096 48.504 4.064C48.504 4.096 48.472 4.112 48.408 4.112ZM39.528 4.112C39.528 4.208 39.496 4.272 39.432 4.304C39.4 4.336 39.32 4.352 39.192 4.352C39.096 4.352 39.032 4.368 39 4.4C39 4.304 39.016 4.24 39.048 4.208C39.112 4.176 39.192 4.16 39.288 4.16C39.384 4.16 39.464 4.144 39.528 4.112ZM41.976 4.208C41.976 4.272 41.848 4.304 41.592 4.304C41.624 4.24 41.672 4.224 41.736 4.256C41.8 4.256 41.88 4.24 41.976 4.208ZM38.856 4.304C38.792 4.432 38.664 4.496 38.472 4.496C38.28 4.464 38.136 4.48 38.04 4.544C38.136 4.384 38.408 4.304 38.856 4.304ZM41.304 4.352C41.304 4.32 41.352 4.304 41.448 4.304C41.448 4.336 41.4 4.352 41.304 4.352ZM43.128 4.64H42.984C43.048 4.672 43.096 4.672 43.128 4.64C43.16 4.672 43.192 4.656 43.224 4.592C43.224 4.528 43.256 4.496 43.32 4.496C43.32 4.464 43.288 4.448 43.224 4.448C43.192 4.416 43.192 4.368 43.224 4.304C43.256 4.304 43.304 4.32 43.368 4.352C43.432 4.384 43.48 4.384 43.512 4.352C43.512 4.448 43.496 4.528 43.464 4.592C43.432 4.624 43.368 4.624 43.272 4.592C43.272 4.624 43.304 4.656 43.368 4.688C43.432 4.72 43.448 4.768 43.416 4.832C43.32 4.832 43.208 4.848 43.08 4.88C42.952 4.88 42.824 4.88 42.696 4.88C42.696 4.848 42.696 4.816 42.696 4.784L42.744 4.688C42.616 4.72 42.52 4.736 42.456 4.736C42.424 4.704 42.376 4.672 42.312 4.64C42.248 4.576 42.2 4.544 42.168 4.544C42.232 4.704 42.152 4.784 41.928 4.784C41.704 4.816 41.48 4.768 41.256 4.64C41.224 4.672 41.208 4.752 41.208 4.88C41.144 4.88 41.08 4.848 41.016 4.784C40.952 4.72 40.904 4.688 40.872 4.688C41.16 4.56 41.544 4.48 42.024 4.448C42.504 4.416 42.872 4.368 43.128 4.304C43.16 4.368 43.128 4.416 43.032 4.448C42.968 4.448 42.936 4.464 42.936 4.496C42.936 4.528 42.984 4.544 43.08 4.544C43.144 4.544 43.16 4.576 43.128 4.64ZM40.968 4.352C40.904 4.448 40.824 4.496 40.728 4.496C40.696 4.4 40.744 4.352 40.872 4.352C40.904 4.352 40.936 4.352 40.968 4.352ZM37.848 4.496C37.848 4.56 37.784 4.592 37.656 4.592C37.624 4.528 37.64 4.48 37.704 4.448C37.768 4.416 37.816 4.432 37.848 4.496ZM37.416 4.496C37.224 4.72 36.792 4.832 36.12 4.832C36.216 4.672 36.44 4.592 36.792 4.592C37.144 4.56 37.352 4.528 37.416 4.496ZM40.056 4.496C40.056 4.56 39.992 4.592 39.864 4.592C39.864 4.464 39.928 4.432 40.056 4.496ZM39.384 4.592C39.32 4.656 39.08 4.72 38.664 4.784C38.76 4.56 39 4.496 39.384 4.592ZM39.816 4.544C39.816 4.608 39.688 4.64 39.432 4.64C39.4 4.576 39.496 4.544 39.72 4.544C39.752 4.544 39.784 4.544 39.816 4.544ZM40.536 4.88C40.472 5.104 40.392 5.2 40.296 5.168C40.296 5.136 40.328 5.12 40.392 5.12C40.392 5.088 40.376 5.04 40.344 4.976C40.312 4.912 40.312 4.848 40.344 4.784C40.248 4.784 40.184 4.8 40.152 4.832C40.28 5.056 40.216 5.216 39.96 5.312C39.704 5.376 39.464 5.392 39.24 5.36C39.368 5.232 39.512 5.184 39.672 5.216C39.64 5.152 39.56 5.056 39.432 4.928C39.592 4.768 39.704 4.752 39.768 4.88C39.864 4.816 39.992 4.768 40.152 4.736C40.312 4.672 40.408 4.64 40.44 4.64C40.472 4.672 40.472 4.72 40.44 4.784C40.44 4.848 40.472 4.88 40.536 4.88ZM40.104 4.88C40.04 4.88 40.008 4.896 40.008 4.928C40.072 4.928 40.104 4.912 40.104 4.88ZM39.72 5.168C39.848 5.232 39.976 5.2 40.104 5.072L39.72 5.168ZM40.536 4.88C40.536 4.848 40.568 4.768 40.632 4.64C40.76 4.64 40.792 4.736 40.728 4.928C40.632 4.928 40.568 4.912 40.536 4.88ZM35.976 4.688C35.976 4.816 35.896 4.88 35.736 4.88C35.736 4.752 35.816 4.688 35.976 4.688ZM35.688 4.784C35.464 4.976 35.08 5.072 34.536 5.072C34.632 4.976 34.744 4.912 34.872 4.88C35 4.848 35.144 4.832 35.304 4.832C35.496 4.832 35.624 4.816 35.688 4.784ZM38.088 4.832C38.088 4.8 38.136 4.784 38.232 4.784C38.232 4.816 38.184 4.832 38.088 4.832ZM41.256 4.832C41.256 4.8 41.304 4.784 41.4 4.784C41.4 4.816 41.352 4.832 41.256 4.832ZM40.92 4.832C40.92 4.864 40.952 4.912 41.016 4.976C41.08 5.008 41.112 5.056 41.112 5.12C41.048 5.088 40.984 5.088 40.92 5.12C40.856 5.152 40.792 5.168 40.728 5.168C40.728 5.136 40.76 5.088 40.824 5.024C40.888 4.96 40.92 4.896 40.92 4.832ZM39.432 4.928C39.432 5.056 39.416 5.136 39.384 5.168C39.32 5.168 39.24 5.136 39.144 5.072C39.048 4.976 38.952 4.944 38.856 4.976C38.856 4.912 38.936 4.88 39.096 4.88C39.256 4.88 39.368 4.896 39.432 4.928ZM38.568 4.928C38.664 4.96 38.68 5.008 38.616 5.072C38.584 5.136 38.504 5.152 38.376 5.12C38.344 5.056 38.36 5.024 38.424 5.024C38.52 4.992 38.568 4.96 38.568 4.928ZM41.16 4.928C41.224 4.928 41.256 4.976 41.256 5.072C41.224 5.04 41.208 5.056 41.208 5.12C41.176 5.12 41.16 5.056 41.16 4.928ZM34.2 5.072C34.136 5.168 34.04 5.232 33.912 5.264C33.816 5.264 33.72 5.264 33.624 5.264C33.528 5.232 33.4 5.232 33.24 5.264C33.368 5.136 33.688 5.072 34.2 5.072ZM34.344 5.072C34.344 5.04 34.36 5.024 34.392 5.024L34.488 4.976C34.488 5.008 34.456 5.024 34.392 5.024L34.344 5.072ZM36.264 5.168H35.832C36.12 5.04 36.264 5.04 36.264 5.168ZM37.512 5.264H37.56H37.512H37.224C37.256 5.072 37.416 5.008 37.704 5.072C38.024 5.104 38.2 5.104 38.232 5.072C38.264 5.072 38.28 5.104 38.28 5.168C38.312 5.2 38.36 5.2 38.424 5.168C38.424 5.392 38.36 5.52 38.232 5.552C38.2 5.552 38.168 5.552 38.136 5.552L38.28 5.264C38.216 5.296 38.152 5.36 38.088 5.456C38.056 5.52 38.024 5.552 37.992 5.552C37.928 5.584 37.88 5.568 37.848 5.504C37.816 5.408 37.784 5.36 37.752 5.36C37.72 5.392 37.624 5.408 37.464 5.408C37.464 5.376 37.48 5.328 37.512 5.264ZM35.352 5.168C35.352 5.232 35.272 5.296 35.112 5.36C35.08 5.296 35.128 5.248 35.256 5.216C35.288 5.184 35.32 5.168 35.352 5.168ZM37.128 5.168C37.128 5.264 37.064 5.328 36.936 5.36C36.808 5.392 36.728 5.344 36.696 5.216C36.76 5.248 36.904 5.232 37.128 5.168ZM31.32 5.552C31.32 5.52 31.352 5.504 31.416 5.504C31.48 5.472 31.544 5.456 31.608 5.456C31.896 5.456 32.008 5.392 31.944 5.264C32.2 5.328 32.44 5.36 32.664 5.36C32.056 5.584 31.608 5.648 31.32 5.552ZM34.824 5.408H34.488C34.52 5.312 34.584 5.264 34.68 5.264C34.776 5.264 34.824 5.312 34.824 5.408ZM36.504 5.216C36.568 5.248 36.584 5.28 36.552 5.312C36.552 5.344 36.52 5.392 36.456 5.456C36.424 5.52 36.408 5.584 36.408 5.648L36.264 5.36C36.392 5.36 36.472 5.312 36.504 5.216ZM34.296 5.36C34.424 5.424 34.408 5.472 34.248 5.504C34.152 5.536 34.088 5.52 34.056 5.456C34.088 5.392 34.168 5.36 34.296 5.36ZM36.024 5.36C36.088 5.328 36.136 5.344 36.168 5.408C36.2 5.472 36.232 5.504 36.264 5.504C36.232 5.568 36.152 5.584 36.024 5.552C35.896 5.52 35.832 5.552 35.832 5.648C35.736 5.584 35.768 5.504 35.928 5.408L36.024 5.36ZM37.08 5.408C37.08 5.376 37.096 5.36 37.128 5.36C37.192 5.328 37.24 5.328 37.272 5.36C37.336 5.392 37.304 5.424 37.176 5.456C37.144 5.424 37.112 5.408 37.08 5.408ZM35.736 5.456C35.672 5.52 35.656 5.616 35.688 5.744C35.592 5.744 35.416 5.776 35.16 5.84C34.936 5.872 34.76 5.888 34.632 5.888C34.504 5.888 34.376 5.84 34.248 5.744C34.184 5.744 34.152 5.792 34.152 5.888C34.152 5.984 34.136 6.032 34.104 6.032C34.072 5.968 34.024 5.92 33.96 5.888C33.896 5.856 33.832 5.792 33.768 5.696C33.864 5.696 33.976 5.68 34.104 5.648C34.264 5.616 34.392 5.6 34.488 5.6C34.584 5.6 34.68 5.632 34.776 5.696C34.872 5.632 35.192 5.552 35.736 5.456ZM29.16 5.456C28.872 5.712 28.28 5.84 27.384 5.84C27.576 5.776 27.896 5.712 28.344 5.648C28.792 5.552 29.064 5.488 29.16 5.456ZM33.912 5.456C33.88 5.52 33.816 5.568 33.72 5.6C33.656 5.632 33.56 5.648 33.432 5.648C33.336 5.648 33.256 5.664 33.192 5.696C33.192 5.6 33.224 5.536 33.288 5.504C33.384 5.472 33.496 5.456 33.624 5.456C33.784 5.456 33.88 5.456 33.912 5.456ZM30.6 5.504C30.632 5.504 30.68 5.536 30.744 5.6C30.776 5.632 30.824 5.648 30.888 5.648C30.792 5.744 30.632 5.808 30.408 5.84C30.216 5.872 30.072 5.92 29.976 5.984C29.944 5.824 30.04 5.728 30.264 5.696C30.488 5.664 30.6 5.6 30.6 5.504ZM31.32 5.552L31.032 5.696C31 5.632 31 5.6 31.032 5.6C31.064 5.568 31.112 5.552 31.176 5.552C31.24 5.552 31.288 5.552 31.32 5.552ZM33.096 5.552C33.032 5.84 32.888 5.904 32.664 5.744C32.76 5.616 32.904 5.552 33.096 5.552ZM37.464 5.552C37.464 5.584 37.416 5.616 37.32 5.648C37.224 5.648 37.176 5.68 37.176 5.744C37.048 5.68 37.08 5.616 37.272 5.552C37.336 5.552 37.4 5.552 37.464 5.552ZM32.328 5.744C32.328 5.872 32.248 5.904 32.088 5.84C32.088 5.776 32.12 5.744 32.184 5.744C32.248 5.712 32.296 5.712 32.328 5.744ZM31.944 5.792C31.88 5.888 31.736 5.952 31.512 5.984C31.32 5.984 31.176 6 31.08 6.032C31.112 5.936 31.224 5.872 31.416 5.84C31.64 5.776 31.816 5.76 31.944 5.792ZM33.528 5.792C33.528 5.856 33.496 5.92 33.432 5.984C33.4 6.048 33.384 6.096 33.384 6.128C33.224 6.128 33.016 6.16 32.76 6.224C32.76 6.256 32.776 6.304 32.808 6.368C32.84 6.4 32.84 6.448 32.808 6.512C32.712 6.48 32.664 6.384 32.664 6.224C32.6 6.224 32.52 6.24 32.424 6.272C32.36 6.304 32.296 6.304 32.232 6.272V5.984C32.456 6.112 32.584 6.064 32.616 5.84C32.68 5.84 32.728 5.888 32.76 5.984C32.792 6.048 32.824 6.08 32.856 6.08C32.984 6.016 33.064 5.92 33.096 5.792C33.192 5.856 33.272 5.872 33.336 5.84C33.432 5.808 33.496 5.792 33.528 5.792ZM27.048 5.84C26.856 6.096 26.568 6.176 26.184 6.08C26.216 6.016 26.28 5.984 26.376 5.984C26.472 5.952 26.584 5.936 26.712 5.936C26.84 5.904 26.952 5.872 27.048 5.84ZM29.688 5.84C29.688 5.904 29.672 5.952 29.64 5.984C29.608 5.984 29.56 5.984 29.496 5.984C29.432 5.984 29.384 5.984 29.352 5.984C29.352 5.952 29.464 5.904 29.688 5.84ZM35.352 5.84C35.416 5.872 35.432 5.936 35.4 6.032H35.256V5.936C35.32 5.936 35.352 5.904 35.352 5.84ZM28.776 6.56C28.648 6.528 28.552 6.576 28.488 6.704C28.616 6.736 28.712 6.688 28.776 6.56C28.808 6.56 28.84 6.576 28.872 6.608L28.92 6.656C28.888 6.688 28.824 6.768 28.728 6.896C28.664 6.992 28.568 7.024 28.44 6.992C28.44 6.96 28.44 6.928 28.44 6.896C28.472 6.864 28.472 6.848 28.44 6.848C28.44 6.816 28.408 6.8 28.344 6.8C28.408 6.704 28.408 6.64 28.344 6.608C28.28 6.576 28.184 6.576 28.056 6.608C28.088 6.48 28.184 6.416 28.344 6.416C28.504 6.416 28.6 6.368 28.632 6.272C28.632 6.24 28.568 6.224 28.44 6.224C28.312 6.224 28.248 6.176 28.248 6.08C28.376 6.08 28.536 6.064 28.728 6.032C28.92 5.968 29.08 5.936 29.208 5.936C29.24 6.032 29.224 6.096 29.16 6.128C29.096 6.128 29.016 6.128 28.92 6.128C28.856 6.128 28.824 6.16 28.824 6.224C28.824 6.256 28.84 6.304 28.872 6.368C28.936 6.432 28.936 6.48 28.872 6.512C28.808 6.512 28.776 6.528 28.776 6.56ZM30.84 5.984H30.936V6.08H30.84V5.984ZM33.624 6.032C33.624 6 33.656 5.984 33.72 5.984C33.72 6.016 33.688 6.032 33.624 6.032ZM34.92 5.984C34.952 6.048 34.936 6.08 34.872 6.08C34.808 6.08 34.776 6.096 34.776 6.128C34.616 6.096 34.616 6.048 34.776 5.984C34.84 5.984 34.888 5.984 34.92 5.984ZM26.136 6.032C26.04 6.192 25.768 6.304 25.32 6.368C24.872 6.432 24.616 6.48 24.552 6.512C24.648 6.352 24.776 6.256 24.936 6.224C25.096 6.16 25.288 6.128 25.512 6.128C25.768 6.128 25.976 6.096 26.136 6.032ZM30.504 6.08C30.376 6.208 30.136 6.272 29.784 6.272C29.944 6.048 30.184 5.984 30.504 6.08ZM32.088 6.032C32.088 6.128 31.976 6.176 31.752 6.176C31.56 6.176 31.464 6.256 31.464 6.416C31.432 6.416 31.432 6.384 31.464 6.32C31.496 6.224 31.496 6.144 31.464 6.08C31.752 6.08 31.96 6.064 32.088 6.032ZM34.536 6.032C34.536 6.16 34.488 6.192 34.392 6.128V6.032H34.536ZM31.224 6.08C31.48 6.336 31.336 6.512 30.792 6.608C30.632 6.608 30.488 6.608 30.36 6.608C30.456 6.576 30.456 6.544 30.36 6.512C30.296 6.448 30.264 6.384 30.264 6.32C30.328 6.352 30.408 6.352 30.504 6.32C30.6 6.288 30.664 6.272 30.696 6.272C30.76 6.272 30.808 6.304 30.84 6.368C30.904 6.304 31.032 6.208 31.224 6.08ZM27.624 6.224C27.56 6.352 27.384 6.432 27.096 6.464C26.84 6.496 26.664 6.56 26.568 6.656C26.248 6.624 25.864 6.672 25.416 6.8C24.968 6.896 24.632 6.944 24.408 6.944C24.664 6.816 24.952 6.72 25.272 6.656C25.624 6.56 26.024 6.48 26.472 6.416C26.952 6.352 27.336 6.288 27.624 6.224ZM29.208 6.272H29.352V6.368H29.208V6.272ZM29.976 6.416C30.008 6.48 29.992 6.544 29.928 6.608V6.656C29.896 6.656 29.88 6.64 29.88 6.608C29.88 6.544 29.864 6.512 29.832 6.512C29.832 6.512 29.8 6.512 29.736 6.512C29.672 6.512 29.656 6.544 29.688 6.608C29.752 6.672 29.768 6.736 29.736 6.8C29.704 6.832 29.608 6.848 29.448 6.848C29.512 6.784 29.528 6.72 29.496 6.656C29.496 6.624 29.464 6.608 29.4 6.608H29.352V6.512C29.736 6.448 29.944 6.416 29.976 6.416ZM27.912 6.512C27.944 6.512 27.96 6.528 27.96 6.56C27.992 6.592 27.992 6.624 27.96 6.656H27.864V6.56L27.912 6.512ZM29.112 6.512C29.176 6.512 29.208 6.624 29.208 6.848C29.176 6.848 29.144 6.864 29.112 6.896C29.08 6.896 29.048 6.896 29.016 6.896C28.984 6.832 29.016 6.8 29.112 6.8C29.112 6.704 29.08 6.656 29.016 6.656C29.016 6.624 29.032 6.608 29.064 6.608L29.112 6.512ZM23.064 6.704L23.112 6.656C23.112 6.56 23.16 6.528 23.256 6.56C23.224 6.56 23.192 6.592 23.16 6.656C23.16 6.72 23.128 6.736 23.064 6.704ZM27.672 6.56C27.544 6.688 27.368 6.784 27.144 6.848C26.952 6.88 26.696 6.928 26.376 6.992C26.088 7.024 25.848 7.056 25.656 7.088C25.848 6.896 26.184 6.784 26.664 6.752C27.176 6.688 27.512 6.624 27.672 6.56ZM28.344 6.8C28.344 6.832 28.328 6.88 28.296 6.944C28.264 6.976 28.264 7.024 28.296 7.088C28.2 7.12 28.04 7.136 27.816 7.136C27.624 7.104 27.496 7.12 27.432 7.184C27.432 7.12 27.4 7.056 27.336 6.992C27.304 7.024 27.272 7.072 27.24 7.136L27.144 7.232C27.112 7.104 27.032 7.104 26.904 7.232C26.808 7.328 26.76 7.312 26.76 7.184C26.664 7.376 26.472 7.456 26.184 7.424C25.928 7.392 25.768 7.44 25.704 7.568C25.672 7.568 25.656 7.504 25.656 7.376H25.368C25.72 7.088 26.088 7.04 26.472 7.232L26.616 6.944C26.808 7.008 27.096 6.992 27.48 6.896C27.896 6.8 28.184 6.768 28.344 6.8ZM30.024 6.896C30.024 6.864 30.072 6.848 30.168 6.848C30.168 6.88 30.12 6.896 30.024 6.896ZM24.216 6.896C24.216 6.992 24.184 7.056 24.12 7.088C24.088 7.088 24.04 7.088 23.976 7.088C23.912 7.056 23.832 7.056 23.736 7.088C23.896 6.928 24.056 6.864 24.216 6.896ZM23.64 6.992C23.64 7.088 23.592 7.152 23.496 7.184C23.432 7.184 23.384 7.2 23.352 7.232C23.288 7.136 23.384 7.056 23.64 6.992ZM25.032 7.136C24.936 7.2 24.808 7.248 24.648 7.28C24.488 7.312 24.36 7.344 24.264 7.376C24.36 7.12 24.616 7.04 25.032 7.136ZM23.064 7.232L23.16 7.184C23.16 7.216 23.128 7.232 23.064 7.232ZM28.152 7.184C28.152 7.248 28.12 7.28 28.056 7.28C28.024 7.312 28.008 7.344 28.008 7.376C27.944 7.344 27.928 7.296 27.96 7.232C28.024 7.168 28.088 7.152 28.152 7.184ZM28.248 7.232C28.248 7.2 28.312 7.184 28.44 7.184C28.408 7.216 28.344 7.232 28.248 7.232ZM25.368 7.376C25.336 7.408 25.352 7.488 25.416 7.616C25.48 7.712 25.48 7.792 25.416 7.856C25.256 7.888 25.144 7.888 25.08 7.856C25.08 7.792 25.16 7.76 25.32 7.76C25.352 7.696 25.336 7.648 25.272 7.616C25.208 7.552 25.176 7.488 25.176 7.424C25.144 7.424 25.112 7.44 25.08 7.472C25.048 7.472 25.016 7.472 24.984 7.472C24.984 7.408 25.032 7.36 25.128 7.328C25.224 7.296 25.304 7.312 25.368 7.376ZM27.432 7.376C27.432 7.44 27.352 7.472 27.192 7.472C27.256 7.344 27.336 7.312 27.432 7.376ZM26.616 7.52C26.616 7.552 26.6 7.584 26.568 7.616C26.536 7.616 26.52 7.632 26.52 7.664C26.488 7.664 26.472 7.616 26.472 7.52H26.616ZM22.392 7.664L22.488 7.568L22.392 7.664ZM24.312 7.856C24.408 7.92 24.456 7.984 24.456 8.048C24.264 8.08 24.216 8.016 24.312 7.856ZM96.408 8.048C96.408 8.016 96.44 8 96.504 8C96.504 8.032 96.472 8.048 96.408 8.048ZM18.072 8.336C18.008 8.368 17.848 8.4 17.592 8.432C17.368 8.432 17.192 8.464 17.064 8.528C17.128 8.4 17.288 8.304 17.544 8.24C17.8 8.176 17.976 8.208 18.072 8.336ZM19.896 8.144C19.736 8.272 19.368 8.4 18.792 8.528C18.888 8.336 19.256 8.208 19.896 8.144ZM109.848 8.432H109.656C109.624 8.336 109.656 8.288 109.752 8.288C109.848 8.288 109.88 8.336 109.848 8.432ZM109.992 8.288C110.152 8.288 110.232 8.336 110.232 8.432C110.104 8.56 110.008 8.56 109.944 8.432C109.976 8.4 109.992 8.352 109.992 8.288ZM80.616 8.528C80.52 8.496 80.424 8.512 80.328 8.576C80.264 8.608 80.2 8.624 80.136 8.624C80.136 8.592 80.12 8.576 80.088 8.576C80.024 8.512 80.008 8.448 80.04 8.384C80.424 8.288 80.616 8.336 80.616 8.528ZM80.76 8.336C80.792 8.336 80.824 8.352 80.856 8.384C80.92 8.448 80.968 8.448 81 8.384C81.128 8.512 81.192 8.608 81.192 8.672C80.968 8.576 80.856 8.56 80.856 8.624C80.792 8.624 80.744 8.592 80.712 8.528C80.712 8.464 80.728 8.4 80.76 8.336ZM90.936 8.624C90.872 8.624 90.84 8.592 90.84 8.528C90.776 8.528 90.696 8.56 90.6 8.624C90.536 8.656 90.472 8.672 90.408 8.672C90.152 8.608 89.448 8.624 88.296 8.72C87.176 8.784 86.44 8.72 86.088 8.528C86.504 8.464 87.192 8.432 88.152 8.432C89.112 8.432 89.768 8.416 90.12 8.384C90.152 8.384 90.248 8.384 90.408 8.384C90.6 8.352 90.744 8.352 90.84 8.384C90.936 8.416 90.968 8.496 90.936 8.624ZM96.216 8.672C95.832 8.672 95.08 8.672 93.96 8.672C92.84 8.64 92.072 8.64 91.656 8.672C91.624 8.608 91.576 8.576 91.512 8.576C91.448 8.544 91.368 8.544 91.272 8.576C91.208 8.576 91.128 8.56 91.032 8.528C91.128 8.4 91.208 8.368 91.272 8.432C91.592 8.4 92.184 8.4 93.048 8.432C93.912 8.464 94.424 8.432 94.584 8.336C94.648 8.4 94.92 8.432 95.4 8.432C95.88 8.4 96.152 8.48 96.216 8.672ZM110.616 8.576C110.584 8.544 110.536 8.528 110.472 8.528C110.408 8.528 110.36 8.528 110.328 8.528C110.296 8.496 110.28 8.448 110.28 8.384C110.344 8.32 110.408 8.32 110.472 8.384C110.568 8.416 110.616 8.48 110.616 8.576ZM81.624 8.432C81.56 8.528 81.432 8.608 81.24 8.672C81.24 8.576 81.224 8.528 81.192 8.528C81.224 8.464 81.256 8.432 81.288 8.432C81.352 8.432 81.4 8.448 81.432 8.48C81.496 8.48 81.56 8.464 81.624 8.432ZM84.648 8.576C84.648 8.672 84.584 8.736 84.456 8.768C84.36 8.768 84.232 8.752 84.072 8.72C83.912 8.656 83.816 8.624 83.784 8.624C83.688 8.72 83.448 8.736 83.064 8.672C82.712 8.608 82.52 8.624 82.488 8.72C82.072 8.656 81.832 8.56 81.768 8.432C82.088 8.464 82.568 8.48 83.208 8.48C83.88 8.48 84.36 8.512 84.648 8.576ZM96.552 8.384L96.84 8.672C96.808 8.672 96.744 8.672 96.648 8.672C96.584 8.64 96.536 8.656 96.504 8.72C96.44 8.752 96.424 8.704 96.456 8.576C96.456 8.512 96.456 8.464 96.456 8.432C96.52 8.496 96.552 8.48 96.552 8.384ZM110.712 8.384C110.84 8.384 110.904 8.464 110.904 8.624C110.84 8.624 110.776 8.592 110.712 8.528C110.68 8.464 110.68 8.416 110.712 8.384ZM16.92 8.432C16.92 8.496 16.872 8.544 16.776 8.576C16.712 8.576 16.68 8.592 16.68 8.624C16.552 8.56 16.552 8.496 16.68 8.432C16.776 8.4 16.856 8.4 16.92 8.432ZM84.744 8.432H84.888V8.672H84.744V8.432ZM85.08 8.432C85.272 8.432 85.272 8.528 85.08 8.72C85.016 8.688 85 8.656 85.032 8.624C85.064 8.528 85.08 8.464 85.08 8.432ZM97.272 8.528C97.176 8.72 97.08 8.752 96.984 8.624C97.08 8.464 97.176 8.432 97.272 8.528ZM97.416 8.432C97.48 8.432 97.496 8.496 97.464 8.624C97.464 8.688 97.432 8.704 97.368 8.672C97.368 8.64 97.368 8.608 97.368 8.576C97.4 8.512 97.416 8.464 97.416 8.432ZM98.28 8.624C98.344 8.56 98.392 8.496 98.424 8.432C98.456 8.56 98.424 8.64 98.328 8.672C98.232 8.704 98.104 8.704 97.944 8.672C97.816 8.64 97.704 8.656 97.608 8.72C97.608 8.656 97.592 8.624 97.56 8.624C97.56 8.528 97.672 8.464 97.896 8.432C98.152 8.4 98.28 8.464 98.28 8.624ZM98.904 8.528C98.904 8.592 98.936 8.624 99 8.624C98.936 8.752 98.792 8.752 98.568 8.624C98.6 8.56 98.648 8.544 98.712 8.576C98.776 8.576 98.84 8.56 98.904 8.528ZM99.384 8.528H99.48C99.48 8.592 99.512 8.624 99.576 8.624C99.544 8.656 99.464 8.672 99.336 8.672C99.336 8.64 99.336 8.608 99.336 8.576L99.384 8.528ZM99.624 8.576C100.392 8.576 100.968 8.608 101.352 8.672C101.416 8.608 101.448 8.56 101.448 8.528C101.544 8.56 101.64 8.576 101.736 8.576C101.832 8.544 101.928 8.544 102.024 8.576C102.12 8.608 102.184 8.688 102.216 8.816C102.152 8.816 101.704 8.816 100.872 8.816C100.072 8.816 99.656 8.736 99.624 8.576ZM16.44 8.576C16.44 8.736 16.344 8.816 16.152 8.816V8.624C16.184 8.592 16.28 8.576 16.44 8.576ZM102.888 8.624C102.984 8.688 103.128 8.72 103.32 8.72C103.256 8.848 103.096 8.912 102.84 8.912C102.584 8.88 102.408 8.816 102.312 8.72C102.408 8.72 102.504 8.736 102.6 8.768C102.696 8.768 102.76 8.768 102.792 8.768C102.856 8.768 102.888 8.72 102.888 8.624ZM104.904 8.624C104.904 8.752 104.856 8.784 104.76 8.72C104.76 8.656 104.808 8.624 104.904 8.624ZM105.48 8.624C105.512 8.624 105.528 8.64 105.528 8.672C105.56 8.704 105.592 8.72 105.624 8.72C105.592 8.88 105.544 8.896 105.48 8.768C105.48 8.704 105.48 8.656 105.48 8.624ZM103.464 8.72V8.672V8.72ZM15.672 8.816C15.672 8.784 15.688 8.768 15.72 8.768L15.816 8.72C15.816 8.752 15.784 8.768 15.72 8.768L15.672 8.816ZM105.672 8.816L105.768 8.72L105.672 8.816ZM108.696 8.96C108.696 8.928 108.744 8.912 108.84 8.912C108.84 8.944 108.792 8.96 108.696 8.96ZM108.888 8.96C108.888 8.928 108.904 8.912 108.936 8.912C108.968 8.912 108.984 8.928 108.984 8.96H108.888ZM110.136 9.104H109.944C109.912 8.976 109.944 8.912 110.04 8.912C110.136 8.912 110.168 8.976 110.136 9.104ZM19.08 9.104C19.08 9.072 19.096 9.056 19.128 9.056L19.224 9.008C19.224 9.04 19.192 9.056 19.128 9.056L19.08 9.104ZM110.328 9.104L110.52 9.008C110.488 9.072 110.424 9.104 110.328 9.104Z" fill="#FF6F61"/>
</svg>
