<svg width="24" height="24" viewBox="0 0 24 24" fill="none" xmlns="http://www.w3.org/2000/svg">
<path d="M17.5368 15.5272L14.9619 13.8547C14.6804 13.6716 14.3452 13.6096 14.0172 13.6775C13.6887 13.7466 13.4063 13.9406 13.2232 14.2234L13.1022 14.4094C11.9877 14.0412 10.7589 13.5707 10.0232 11.4411L10.3278 11.1763C10.8507 10.7217 10.9055 9.92654 10.451 9.40284L8.43661 7.08557C8.28495 6.91087 8.02017 6.89285 7.84546 7.0441L6.58062 8.14345C5.47122 9.10789 5.98947 10.5345 6.15999 11.0033C6.16753 11.0242 6.17674 11.0443 6.18764 11.064C6.23163 11.1428 7.28196 13.0172 8.97833 14.745C10.6814 16.4799 13.7561 18.082 13.8504 18.1285C14.2015 18.3564 14.5966 18.4658 14.9875 18.4658C15.6737 18.4658 16.3466 18.1294 16.7479 17.5127L17.6604 16.1075C17.7861 15.9126 17.7308 15.6533 17.5368 15.5272ZM16.0449 17.056C15.6674 17.6375 14.8873 17.8026 14.2715 17.4054C14.2409 17.3895 11.1862 15.7987 9.57618 14.1585C8.07128 12.6255 7.07206 10.9224 6.9359 10.6849C6.60408 9.75435 6.66274 9.18247 7.1303 8.77608L8.07924 7.95156L9.81876 9.95252C9.97336 10.1302 9.95534 10.3899 9.77854 10.5437L9.26448 10.9903C9.13921 11.0992 9.08977 11.2714 9.13879 11.4298C10.0153 14.2779 11.7196 14.8372 12.9639 15.2457L13.1453 15.3056C13.3267 15.3667 13.5253 15.2968 13.6292 15.1367L13.9262 14.6792C13.9874 14.5845 14.0813 14.5204 14.1902 14.4974C14.2995 14.4739 14.411 14.4957 14.5057 14.5573L16.7295 16.0015L16.0449 17.056Z" fill="white"/>
<path d="M12.9558 9.55864C12.7329 9.49454 12.5012 9.624 12.438 9.84689C12.3747 10.0694 12.5037 10.301 12.7262 10.3643C13.3504 10.5419 13.8478 11.0401 14.0237 11.6648C14.0757 11.8491 14.2437 11.9702 14.4268 11.9702C14.4645 11.9702 14.5026 11.9651 14.5407 11.9547C14.7632 11.8918 14.8931 11.6606 14.8302 11.4377C14.5759 10.5352 13.8574 9.81505 12.9558 9.55864Z" fill="white"/>
<path d="M16.1444 12.0607C16.1821 12.0607 16.2202 12.0557 16.2584 12.0452C16.4812 11.9823 16.6107 11.7507 16.5479 11.5282C16.0535 9.77568 14.6588 8.37803 12.9075 7.87947C12.6851 7.81537 12.4534 7.94566 12.3901 8.16813C12.3268 8.3906 12.4559 8.62228 12.6783 8.68555C14.1518 9.10451 15.3253 10.2814 15.7414 11.7557C15.7937 11.94 15.9613 12.0607 16.1444 12.0607Z" fill="white"/>
<path d="M12.7263 5.92839C12.5034 5.86429 12.2717 5.99375 12.2085 6.21705C12.1452 6.43952 12.2742 6.6712 12.4967 6.73447C14.9933 7.44461 16.9821 9.43802 17.6868 11.9363C17.7387 12.1206 17.9067 12.2417 18.0898 12.2417C18.1275 12.2417 18.1657 12.2367 18.2038 12.2262C18.4262 12.1634 18.5561 11.9317 18.4933 11.7092C17.7102 8.93275 15.5007 6.71813 12.7263 5.92839Z" fill="white"/>
<circle cx="11.999" cy="12.0018" r="11" stroke="white"/>
</svg>
