<svg width="24" height="24" viewBox="0 0 24 24" fill="none" xmlns="http://www.w3.org/2000/svg">
<path d="M12.5326 15.6657C12.8112 15.6657 12.9258 15.4787 12.9222 15.2459C12.9075 14.3677 13.2485 13.8947 13.8663 14.5107C14.5483 15.1927 14.6877 15.6657 15.5172 15.6657L16.9848 15.6657C17.3542 15.6657 17.5 15.5466 17.5 15.3596C17.5 14.9636 16.8482 14.2651 16.2973 13.7536C15.5237 13.0358 15.4888 13.0184 16.1543 12.1549C16.9793 11.0833 18.0601 9.71017 17.1049 9.71017L15.2798 9.71017C14.9251 9.71017 14.9003 9.90908 14.7748 10.207C14.3183 11.2822 13.452 12.6756 13.122 12.4629C12.7764 12.2402 12.935 11.3602 12.9616 10.0521C12.9689 9.7065 12.9671 9.46908 12.4382 9.34625C12.1503 9.27933 11.8689 9.25183 11.6104 9.25183C10.5682 9.25183 9.84858 9.68908 10.2565 9.76517C10.9761 9.899 10.9082 11.4573 10.7396 12.1302C10.4472 13.3017 9.34808 11.2025 8.88975 10.1575C8.77975 9.90541 8.74767 9.71016 8.35258 9.71016L6.86117 9.71016C6.63475 9.71016 6.5 9.7835 6.5 9.94666C6.5 10.2226 7.85575 13.0267 9.151 14.4246C10.4151 15.7877 11.6645 15.6657 12.5326 15.6657Z" fill="white"/>
<circle cx="12" cy="12.0018" r="11" stroke="white"/>
</svg>
